<?xml version="1.0" standalone="no"?>
<!DOCTYPE svg PUBLIC "-//W3C//DTD SVG 1.1//EN" "http://www.w3.org/Graphics/SVG/1.1/DTD/svg11.dtd" >
<svg xmlns="http://www.w3.org/2000/svg" xmlns:xlink="http://www.w3.org/1999/xlink" version="1.1">
<metadata></metadata>
<defs>
<font id="optimaregular" horiz-adv-x="1138" >
<font-face units-per-em="2048" ascent="1638" descent="-410" />
<missing-glyph horiz-adv-x="569" />
<glyph horiz-adv-x="0" />
<glyph unicode="&#xd;" horiz-adv-x="569" />
<glyph horiz-adv-x="0" />
<glyph horiz-adv-x="0" />
<glyph horiz-adv-x="0" />
<glyph unicode="&#x9;" horiz-adv-x="569" />
<glyph horiz-adv-x="0" />
<glyph unicode=" "  horiz-adv-x="569" />
<glyph unicode="&#x09;" horiz-adv-x="569" />
<glyph unicode="&#xa0;" horiz-adv-x="569" />
<glyph unicode="!" horiz-adv-x="681" d="M225 92q0 47 35 82t82 35t82 -35t35 -82t-34.5 -78.5t-82.5 -31.5t-82.5 31.5t-34.5 78.5zM242 1329q0 52 28.5 76.5t71.5 24.5t71.5 -24.5t28.5 -76.5q0 -41 -80 -979h-40q-80 938 -80 979z" />
<glyph unicode="&#x22;" horiz-adv-x="681" d="M135 840v590h107v-590h-107zM440 840v590h107v-590h-107z" />
<glyph unicode="#" d="M147 291q17 31 28 81t11 87h150l88 426h-154q17 31 28 81t11 87h150q40 193 59 297q24 -7 43 -7t43 7q-12 -21 -24 -69.5t-48 -227.5h234q40 193 59 297q25 -7 43 -7t43 7q-12 -20 -23.5 -67t-47.5 -230h151q-14 -34 -26.5 -85.5t-12.5 -82.5h-149l-88 -426h153 q-14 -34 -26.5 -85.5t-12.5 -82.5h-149q-57 -285 -59 -291h-43h-43q9 12 38 143q19 86 33 148h-233q-55 -277 -60 -291h-43h-43q10 13 46 175q16 70 26 116h-152zM408 459h235l88 426h-235z" />
<glyph unicode="$" d="M150 80q26 61 38 174h25q119 -211 330 -211v580q-129 49 -203.5 96.5t-115 117t-40.5 167.5q0 149 96.5 248.5t262.5 119.5q0 103 -17 160q38 -10 54 -10q15 0 53 10q-15 -52 -15 -156q63 0 114.5 -8.5t90.5 -25t60 -28.5t49 -32q-33 -62 -55 -164h-25q-68 175 -234 182 v-524q78 -31 129 -55t101 -56.5t78.5 -67.5t45.5 -82t17 -105q0 -158 -100 -276.5t-271 -147.5q0 -149 15 -230q-42 11 -53 11q-12 0 -54 -11q17 77 17 219q-6 -2 -19 -2h-12h-25q-102 0 -183.5 24.5t-153.5 82.5zM344 1059q0 -96 49 -156t150 -98v491q-88 -14 -143.5 -79 t-55.5 -158zM618 55q98 23 154.5 101t56.5 180q0 38 -7 66t-28 60.5t-64.5 65t-111.5 66.5v-539z" />
<glyph unicode="%" horiz-adv-x="1820" d="M86 1036q0 148 91 244t239 96q147 0 238 -96t91 -244t-91 -244t-238 -96q-148 0 -239 96t-91 244zM238 1036q0 -123 45.5 -207t132.5 -84t132.5 84t45.5 207t-45.5 207t-132.5 84t-132.5 -84t-45.5 -207zM477 -74l764 1497q33 -10 49 -10q14 0 47 10l-764 -1497 q-37 11 -47 11q-12 0 -49 -11zM1075 307q0 148 91 244t239 96t239 -96t91 -244q0 -151 -90.5 -242.5t-239.5 -91.5t-239.5 91.5t-90.5 242.5zM1227 307q0 -123 45.5 -207t132.5 -84t132.5 84t45.5 207t-45.5 207t-132.5 84t-132.5 -84t-45.5 -207z" />
<glyph unicode="&#x26;" horiz-adv-x="1478" d="M145 309q0 131 105.5 253t267.5 188q-68 98 -102.5 172.5t-34.5 146.5q0 130 89 218.5t226 88.5q122 0 197.5 -60t75.5 -169q0 -55 -26 -110t-70 -101t-89.5 -82t-95.5 -66q14 -18 86 -111t99.5 -127.5t80 -97.5t95.5 -110q167 237 243 406q17 -37 78 -82 q-158 -247 -276 -381l262 -289q-29 4 -131 4q-91 0 -117 -4q-83 112 -129 168q-98 -98 -200.5 -146.5t-241.5 -48.5q-81 0 -150.5 21t-124 61.5t-86 106.5t-31.5 151zM313 346q0 -115 86.5 -201t214.5 -86q100 0 174 36t150 112q-208 245 -385 493q-122 -73 -181 -153.5 t-59 -200.5zM524 1126q0 -61 36 -143.5t93 -151.5q100 64 154.5 150t54.5 168q0 75 -45 122.5t-119 47.5q-78 0 -126 -55t-48 -138z" />
<glyph unicode="'" horiz-adv-x="569" d="M231 840v590h107v-590h-107z" />
<glyph unicode="(" horiz-adv-x="569" d="M123 575q0 229 86 456.5t246 398.5l41 -37q-100 -126 -155.5 -262t-73 -261t-17.5 -295q0 -254 51.5 -439.5t194.5 -371.5l-41 -36q-164 177 -248 393.5t-84 453.5z" />
<glyph unicode=")" horiz-adv-x="569" d="M74 -236q143 184 194 370t51 441q0 256 -51 444.5t-194 373.5l41 37q163 -176 247 -396.5t84 -458.5q0 -231 -84.5 -452t-246.5 -395z" />
<glyph unicode="*" horiz-adv-x="909" d="M109 1165q23 20 41 49.5t18 57.5l258 -189l-29 318q19 -8 60 -8q40 0 59 8l-33 -318l256 189q10 -71 62 -107l-291 -131l289 -135q-52 -44 -60 -102l-258 180l35 -311q-21 8 -59 8q-39 0 -60 -8l29 311l-250 -182q-8 67 -59 104l286 133z" />
<glyph unicode="+" horiz-adv-x="1241" d="M102 465v106h465v465h107v-465h465v-106h-465v-465h-107v465h-465z" />
<glyph unicode="," horiz-adv-x="569" d="M61 -338l158 492q22 77 90 77q29 0 52.5 -17.5t23.5 -51.5t-31 -86l-256 -428z" />
<glyph unicode="-" horiz-adv-x="681" d="M86 410v127h510v-127h-510z" />
<glyph unicode="." horiz-adv-x="569" d="M168 92q0 47 35 82t82 35t81.5 -35t34.5 -82t-34 -78.5t-82 -31.5t-82.5 31.5t-34.5 78.5z" />
<glyph unicode="/" horiz-adv-x="569" d="M-45 -41l559 1481q38 -10 53 -10q16 0 54 10l-566 -1481q-38 10 -53 10q-9 0 -47 -10z" />
<glyph unicode="0" d="M90 672q0 151 25.5 273.5t80 221.5t149.5 154t224 55q115 0 200.5 -37t138.5 -99t85 -155t44 -191t12 -222q0 -145 -29 -269.5t-86 -221.5t-150.5 -152.5t-214.5 -55.5q-115 0 -200.5 36t-138 96.5t-84.5 152.5t-44 190.5t-12 223.5zM258 672q0 -639 311 -639 q312 0 312 639t-312 639q-87 0 -148 -44.5t-96.5 -131t-51 -199.5t-15.5 -264z" />
<glyph unicode="1" d="M193 1176v14q234 94 466 213l15 -10q-17 -306 -17 -535v-342q0 -238 17 -520q-22 4 -96 4q-75 0 -97 -4q17 206 17 520v729l-244 -135q-22 43 -61 66z" />
<glyph unicode="2" d="M41 -4v24q181 179 290.5 294.5t190 213.5t117.5 174t52.5 144.5t15.5 157.5q0 145 -65.5 220.5t-164.5 75.5q-50 0 -92.5 -15.5t-70.5 -39t-49 -54.5t-32 -59t-16 -55l-14 -4l-72 101q66 105 156 153.5t219 48.5q172 0 280.5 -90.5t108.5 -271.5q0 -133 -60.5 -242 t-197.5 -246q-9 -9 -48 -47.5t-57.5 -57.5t-56.5 -57.5t-62 -64.5t-54.5 -59.5t-53.5 -61.5t-41 -53h195q231 0 461 16q-11 -57 -11 -75q0 -20 11 -70q-98 4 -439 4q-342 0 -440 -4z" />
<glyph unicode="3" d="M86 39q21 49 25 123l12 8q122 -137 276 -137q152 0 241 93.5t89 248.5q0 305 -289 305q-42 0 -92 -12q4 28 4 43t-4 43q41 -9 92 -9q68 0 116 29t72 78t34 99.5t10 107.5q0 123 -65 187.5t-154 64.5q-82 0 -143.5 -48t-86.5 -116l-14 -4l-47 110q123 123 299 123 q111 0 197 -31.5t140 -101.5t54 -172q0 -71 -25.5 -131.5t-68 -101.5t-88.5 -67.5t-95 -39.5v-12q47 -3 90 -13t90.5 -33t82 -56.5t57.5 -89t23 -126.5q0 -191 -145 -309.5t-378 -118.5q-169 0 -309 66z" />
<glyph unicode="4" d="M43 367v36q27 38 143 201.5t164.5 232t133 189t138.5 200t91 138.5q45 -10 69 -10t66 10q-14 -315 -14 -651v-226q100 0 200 17q-10 -45 -10 -68q0 -22 10 -67q-70 12 -200 12v-86q0 -167 12 -299q-54 4 -90 4t-90 -4q16 192 16 299v86q-99 0 -327 -5t-312 -9zM205 487 h477v689h-4q-359 -493 -473 -689z" />
<glyph unicode="5" d="M109 49v17q16 39 30 118h15q35 -71 117.5 -111t172.5 -40q131 0 222.5 98t91.5 281q0 83 -24 147t-65.5 101t-91 55t-106.5 18q-108 0 -208 -65q-2 -1 -3 -2l-22 14q20 118 20 346q0 233 -16 338l18 12q34 -6 115 -12q89 -6 250 -6q188 0 286 4l11 -8q-15 -52 -15 -115 q0 -31 2 -35q-140 27 -557 27l-28 -465q48 27 96.5 40t132.5 13q175 0 284 -112.5t109 -272.5q0 -197 -142.5 -329t-367.5 -132q-214 0 -327 76z" />
<glyph unicode="6" d="M129 557q0 172 40.5 321t115.5 261t191.5 175.5t260.5 61.5q63 0 86 -6l31 -65l-10 -9q-58 15 -107 15q-91 0 -167.5 -48.5t-125.5 -124t-83.5 -170t-49 -184t-14.5 -168.5h4q117 199 330 199q47 0 96.5 -9.5t106 -36.5t99.5 -68.5t72 -111.5t29 -159q0 -208 -123 -332.5 t-331 -124.5q-93 0 -171.5 31t-142.5 97t-100.5 182.5t-36.5 273.5zM309 387q0 -156 77.5 -255t195.5 -99q127 0 199.5 97.5t72.5 256.5q0 161 -66.5 256.5t-193.5 95.5q-120 0 -202.5 -99.5t-82.5 -252.5z" />
<glyph unicode="7" d="M154 -4q175 273 386 626t339 580q-409 0 -715 -20q8 36 8 92q0 54 -8 90q202 -14 276 -16q26 0 130 -2.5t161 -2.5h96q43 0 110 1.5t101 1.5v-33q-444 -752 -733 -1317q-46 4 -78 4q-27 0 -73 -4z" />
<glyph unicode="8" d="M113 367q0 132 72 233.5t225 153.5v14q-87 19 -156.5 96.5t-69.5 186.5q0 133 107.5 229t277.5 96q191 0 291.5 -87t100.5 -214q0 -101 -60 -183t-170 -118v-14q33 -6 67.5 -18t76.5 -38.5t74.5 -63t54.5 -95.5t22 -131q0 -201 -131 -321t-326 -120q-131 0 -232.5 43.5 t-162.5 134t-61 216.5zM293 377q0 -153 75 -248.5t201 -95.5t201.5 95.5t75.5 248.5t-75.5 248.5t-201.5 95.5t-201 -95.5t-75 -248.5zM352 1049q0 -114 54.5 -188.5t164.5 -74.5t166 75t56 188t-56 187.5t-166 74.5t-164.5 -74.5t-54.5 -187.5z" />
<glyph unicode="9" d="M100 938q0 191 124.5 314.5t330.5 123.5q95 0 175 -32.5t145 -100t102 -184.5t37 -273q0 -231 -70.5 -414t-209 -291t-324.5 -108q-78 0 -162 27q-16 63 -41 111l10 6q94 -84 203 -84q85 0 155.5 40.5t118 108t79.5 157.5t46.5 186.5t14.5 197.5h-5q-106 -193 -331 -193 q-187 0 -292.5 106.5t-105.5 301.5zM281 938q0 -332 251 -332q90 0 158.5 56t101.5 142t33 187q0 142 -75 231t-197 89q-124 0 -198 -100.5t-74 -272.5z" />
<glyph unicode=":" horiz-adv-x="569" d="M168 92q0 47 35 82t82 35t81.5 -35t34.5 -82t-34 -78.5t-82 -31.5t-82.5 31.5t-34.5 78.5zM168 842q0 47 35 81.5t82 34.5t81.5 -34.5t34.5 -81.5t-34.5 -82t-81.5 -35t-82 35t-35 82z" />
<glyph unicode=";" horiz-adv-x="569" d="M61 -338l158 492q22 77 90 77q29 0 52.5 -17.5t23.5 -51.5t-31 -86l-256 -428zM168 842q0 47 35 81.5t82 34.5t81.5 -34.5t34.5 -81.5t-34.5 -82t-81.5 -35t-82 35t-35 82z" />
<glyph unicode="&#x3c;" horiz-adv-x="1241" d="M102 467v106l1037 484v-107l-940 -432l940 -432v-102z" />
<glyph unicode="=" horiz-adv-x="1241" d="M102 266v107h1037v-107h-1037zM102 664v106h1037v-106h-1037z" />
<glyph unicode="&#x3e;" horiz-adv-x="1241" d="M102 -16v102l940 432l-940 432v107l1037 -488v-106z" />
<glyph unicode="?" horiz-adv-x="796" d="M164 1362q36 22 59 33.5t65 23t87 11.5q142 0 222.5 -77.5t80.5 -193.5q0 -68 -27 -132.5t-67.5 -111.5t-88 -97t-88 -91t-67.5 -92t-27 -100q0 -46 28.5 -83.5t78.5 -37.5q39 0 69 18l13 -8q-22 -31 -25 -57q-37 -11 -71 -11q-22 0 -49 7.5t-57.5 25t-55.5 42.5 t-41.5 65t-16.5 88q0 56 19.5 107.5t50.5 92.5t68.5 80.5t75.5 77t69 74.5t50.5 81t19.5 89q0 76 -53.5 122t-123.5 46q-106 0 -186 -94zM256 92q0 47 35 82t82 35t81.5 -35t34.5 -82t-34 -78.5t-82 -31.5t-82.5 31.5t-34.5 78.5z" />
<glyph unicode="@" horiz-adv-x="1638" d="M178 692q0 121 50.5 236.5t139.5 206t223.5 145.5t291.5 55q129 0 230.5 -28t165.5 -73.5t106 -110t58.5 -132t16.5 -143.5q0 -106 -37 -201t-94.5 -157.5t-126.5 -99t-135 -36.5q-80 0 -106.5 36t-26.5 112h-4q-104 -148 -225 -148q-222 0 -222 275q0 200 106.5 330.5 t260.5 130.5q67 0 111.5 -33t50.5 -99h4l20 111h107q-52 -245 -77.5 -371t-30.5 -159.5t-5 -55.5q0 -35 18 -53t50 -18q87 0 176.5 118.5t89.5 276.5q0 105 -24 186t-79 145t-152.5 98t-234.5 34q-161 0 -292 -86t-204 -233.5t-73 -325.5q0 -238 141 -365t371 -127 q235 0 465 168l-6 -65q-30 -28 -74 -56.5t-108 -57.5t-149.5 -47t-176.5 -18q-82 0 -164 24t-159 75.5t-136.5 124t-95 179t-35.5 232.5zM610 621q0 -99 27.5 -145t97.5 -46q56 0 103.5 48.5t76 119.5t44.5 143.5t16 128.5q0 75 -26.5 114.5t-98.5 39.5q-56 0 -103 -39.5 t-76 -100.5t-45 -130t-16 -133z" />
<glyph unicode="A" horiz-adv-x="1366" d="M35 -4q274 590 641 1434h39q122 -295 172 -415.5t160 -383t178 -413.5t106 -222q-26 4 -108 4q-83 0 -109 -4q-17 58 -51.5 147t-86.5 216.5t-73 179.5q-176 4 -268 4q-82 0 -250 -4q-146 -353 -199 -543q-46 4 -75 4q-30 0 -76 -4zM424 633q36 0 110.5 -2t110.5 -2 q77 0 229 4l-227 520z" />
<glyph unicode="B" horiz-adv-x="1251" d="M184 -4q17 370 17 526v352q0 159 -17 529q120 -10 217 -10q36 0 108.5 5t108.5 5q433 0 433 -295q0 -279 -344 -358v-5q393 -16 393 -344q0 -89 -31.5 -160t-82 -116t-119.5 -74.5t-139.5 -42t-145.5 -12.5q-33 0 -99.5 2t-99.5 2q-155 0 -199 -4zM369 489 q0 -135 12 -413q85 -10 201 -10q139 0 234 92.5t95 251.5q0 86 -31 144t-93.5 89t-139.5 43t-186 12h-92v-209zM369 774h110q61 0 115 8.5t105.5 30t88.5 54.5t59.5 84.5t22.5 117.5q0 64 -20 111.5t-51.5 75t-77.5 44t-89 22t-95 5.5q-91 0 -156 -10q-12 -262 -12 -389 v-154z" />
<glyph unicode="C" horiz-adv-x="1366" d="M86 696q0 228 98 395.5t270.5 253t399.5 85.5q230 0 444 -95q-20 -33 -43 -159l-12 -5q-23 27 -57 55.5t-83.5 59t-115 49.5t-133.5 19q-123 0 -225 -40t-179 -118.5t-120 -206t-43 -293.5t43 -293t120 -206t179 -118.5t225 -39.5q69 0 133.5 16.5t121 47.5t88.5 52.5 t73 53.5l8 -8l-18 -121q-42 -38 -164.5 -74.5t-261.5 -36.5q-163 0 -299.5 48t-236.5 139t-156 229.5t-56 310.5z" />
<glyph unicode="D" horiz-adv-x="1593" d="M184 -4q17 361 17 524v352q0 149 -17 531q173 -10 310 -10q52 0 154.5 5t154.5 5q676 0 676 -678q0 -159 -47 -287t-122 -208.5t-175 -135t-199.5 -76.5t-202.5 -22q-46 0 -137 2t-137 2q-214 0 -275 -4zM369 520q0 -222 12 -434q81 -20 268 -20q68 0 129.5 8t126.5 28.5 t118.5 52.5t101.5 83.5t81 119t52.5 161t19.5 206.5q0 139 -29 243.5t-78.5 170.5t-125 106.5t-159.5 56t-190 15.5q-139 0 -315 -21q-12 -196 -12 -424v-352z" />
<glyph unicode="E" horiz-adv-x="1024" d="M184 -4q17 370 17 526v352q0 159 -17 529q205 -10 367 -10q159 0 364 10q-6 -30 -6 -62q0 -31 6 -61q-49 3 -145 11t-185 12t-208 4q-1 -28 -4.5 -115.5t-3.5 -144.5q0 -60 1 -156t1 -115q243 0 497 21q-6 -30 -6 -64q0 -31 6 -61q-159 18 -497 18q0 -10 -1 -40t-1 -54 v-80v-123q0 -205 4 -307h143q280 0 410 27q-6 -18 -6 -64q0 -32 6 -53q-82 4 -369 4q-290 0 -373 -4z" />
<glyph unicode="F" horiz-adv-x="1024" d="M184 -4q17 361 17 524v352q0 149 -17 531q205 -10 367 -10q146 0 391 10q-6 -30 -6 -62q0 -31 6 -61q-103 11 -282.5 19t-288.5 8q-4 -192 -4 -269q0 -49 1 -132t1 -126q302 0 528 21q-8 -27 -8 -62q0 -34 8 -61q-136 16 -391 16h-137v-174q0 -184 16 -524q-62 4 -100 4 q-39 0 -101 -4z" />
<glyph unicode="G" horiz-adv-x="1593" d="M123 696q0 229 99.5 395.5t279.5 252.5t422 86q99 0 182.5 -10.5t149.5 -31.5t103 -36.5t87 -40.5q-35 -60 -47 -158h-25q-71 84 -188.5 142.5t-261.5 58.5q-129 0 -236.5 -40t-189.5 -118.5t-128 -206t-46 -293.5q0 -302 161.5 -474.5t448.5 -172.5q93 0 185.5 17.5 t142.5 48.5q4 164 4 247q0 120 -11 281q58 -10 99 -10q54 0 88 10q-8 -84 -8 -416q0 -27 1 -82.5t1 -83.5q-91 -34 -250 -63t-273 -29q-183 0 -328.5 46t-248.5 135.5t-158 228t-55 317.5z" />
<glyph unicode="H" horiz-adv-x="1593" d="M184 -4q17 361 17 524v352q0 149 -17 531q58 -10 101 -10q42 0 100 10q-16 -360 -16 -531v-71q51 -1 136 -2.5t156 -2.5t136 -1t136 1t156 2.5t136 2.5v71q0 149 -17 531q58 -10 101 -10q42 0 100 10q-16 -360 -16 -531v-352q0 -184 16 -524q-62 4 -100 4q-39 0 -101 -4 q17 361 17 524v185q-294 4 -428 4t-428 -4v-185q0 -184 16 -524q-62 4 -100 4q-39 0 -101 -4z" />
<glyph unicode="I" horiz-adv-x="569" d="M184 -4q17 361 17 524v352q0 149 -17 531q58 -10 101 -10q42 0 100 10q-16 -360 -16 -531v-352q0 -184 16 -524q-62 4 -100 4q-39 0 -101 -4z" />
<glyph unicode="J" horiz-adv-x="569" d="M-55 -231q57 0 99 17t70 53.5t45.5 80t26.5 109.5t12 129t3 151v563q0 149 -17 531q58 -10 101 -10q42 0 100 10q-16 -360 -16 -531q0 -131 3 -384.5t3 -344.5q0 -119 -52 -217.5t-147.5 -156.5t-214.5 -58z" />
<glyph unicode="K" horiz-adv-x="1251" d="M184 -4q17 361 17 524v352q0 149 -17 531q58 -10 101 -10q42 0 100 10q-16 -360 -16 -531v-112q0 -17 12 -17q7 0 29 19q222 191 616 641q52 -10 84 -10q43 0 98 10q-151 -130 -350 -323.5t-305 -315.5q116 -130 342.5 -388t335.5 -380q-27 4 -123 4q-87 0 -113 -4 q-95 108 -321 380.5t-271 317.5q-17 17 -24 17q-10 0 -10 -13v-178q0 -184 16 -524q-62 4 -100 4q-39 0 -101 -4z" />
<glyph unicode="L" horiz-adv-x="1024" d="M184 -4q17 361 17 524v352q0 149 -17 531q58 -10 101 -10q42 0 100 10q-16 -360 -16 -531q0 -189 6 -786q127 0 194 1t171 7t200 19q-10 -42 -10 -62q0 -17 10 -55q-83 4 -377 4q-292 0 -379 -4z" />
<glyph unicode="M" horiz-adv-x="1820" d="M98 -4q146 902 199 1434h35q240 -494 588 -1129q106 202 608 1129h26q16 -138 51 -465.5t61 -545t56 -423.5q-22 4 -96 4t-96 -4q-66 772 -100 1051h-5q-141 -259 -196 -360.5t-159.5 -308t-180.5 -378.5h-19q-96 202 -292 587t-234 460h-4q-81 -704 -94 -926 q-4 -74 -4 -125q-46 4 -72 4t-72 -4z" />
<glyph unicode="N" horiz-adv-x="1593" d="M184 -4q12 66 27.5 377t15.5 508q0 457 -6 549h33q64 -69 331 -359t429.5 -463t275.5 -286v278q0 529 -16 803q45 -10 69 -10q21 0 66 10q-9 -106 -21 -341t-12 -345v-123q0 -96 3 -297.5t3 -259.5v-68h-28q-65 75 -133 152t-151.5 168.5t-138 151.5t-159.5 172 t-143.5 153.5t-161.5 172t-148 157.5q-6 -228 -6 -416q0 -137 6.5 -385.5t12.5 -298.5q-46 4 -72 4q-30 0 -76 -4z" />
<glyph unicode="O" horiz-adv-x="1705" d="M86 696q0 171 56.5 310t157.5 231.5t242 142.5t310 50q227 0 399.5 -85.5t270.5 -253t98 -395.5q0 -230 -98 -395.5t-270 -248.5t-400 -83q-227 0 -398.5 83t-269.5 248.5t-98 395.5zM287 696q0 -133 28 -242t78.5 -185.5t121.5 -128.5t155.5 -76.5t181.5 -24.5 q123 0 225 39.5t179 118.5t120 206t43 293t-43 293.5t-120 206t-179 118.5t-225 40q-122 0 -223.5 -40t-178.5 -118.5t-120 -206t-43 -293.5z" />
<glyph unicode="P" d="M184 -4q17 361 17 524v352q0 149 -17 531q110 -10 199 -10q35 0 130.5 5t123.5 5t48 -0.5t57.5 -4t65.5 -9.5t66 -18t65.5 -29t56.5 -43.5t47 -60t30 -80t12 -101.5q0 -75 -20.5 -137t-54 -105.5t-80.5 -77.5t-96 -54.5t-104 -33.5t-102 -17.5t-93 -4.5q-111 0 -166 6 v-113q0 -184 16 -524q-62 4 -100 4q-39 0 -101 -4zM369 719q80 -17 145 -17q55 0 105.5 8.5t102.5 32t89.5 60.5t61.5 99t24 142q0 86 -23 143t-71 87t-106.5 41.5t-143.5 11.5h-184v-608z" />
<glyph unicode="Q" horiz-adv-x="1705" d="M86 696q0 171 56.5 310t157.5 231.5t242 142.5t310 50q227 0 399.5 -85.5t270.5 -253t98 -395.5q0 -280 -147 -468.5t-394 -233.5q282 -224 463 -352q-51 -4 -96 -29.5t-64 -54.5q-273 253 -471 413q-6 -2 -30 -2h-29q-227 0 -398.5 83t-269.5 248.5t-98 395.5zM287 696 q0 -133 28 -242t78.5 -185.5t121.5 -128.5t155.5 -76.5t181.5 -24.5q123 0 225 39.5t179 118.5t120 206t43 293t-43 293.5t-120 206t-179 118.5t-225 40q-122 0 -223.5 -40t-178.5 -118.5t-120 -206t-43 -293.5z" />
<glyph unicode="R" horiz-adv-x="1251" d="M184 -4q17 361 17 524v352q0 149 -17 531q133 -10 234 -10q40 0 116.5 5t116.5 5q91 0 165 -17t134 -53t93.5 -101t33.5 -153q0 -75 -29 -138.5t-73.5 -106t-102.5 -74.5t-111 -48t-104 -24q3 -4 81 -103.5t129 -164.5t127.5 -160.5t133.5 -162.5t91 -101q-27 4 -123 4 q-93 0 -119 -4q-102 146 -260 352t-271 322h-77v-150q0 -184 16 -524q-62 4 -100 4q-39 0 -101 -4zM369 756q54 -11 137 -11q54 0 105.5 8.5t104.5 31.5t92 57t64 90t25 127q0 62 -20 110t-51.5 77.5t-74.5 48t-84.5 25.5t-86.5 7q-127 0 -199 -10q-12 -300 -12 -445v-116z " />
<glyph unicode="S" horiz-adv-x="1024" d="M92 80q28 70 39 182h25q17 -39 44.5 -75t66.5 -68t94 -51t118 -19q132 0 212.5 85.5t80.5 211.5q0 60 -22 107.5t-59.5 78.5t-86 56t-101.5 46.5t-106.5 44t-102 54t-86 71t-59.5 100.5t-22 138q0 172 121 280t323 108q97 0 169 -23.5t134 -73.5q-33 -62 -55 -172h-24 q-12 34 -29 63.5t-45.5 61t-72 50t-97.5 18.5q-116 0 -190 -71t-74 -183q0 -61 22 -109t59.5 -79.5t86 -56.5t102 -46t106.5 -43t101.5 -51.5t86 -67t59.5 -94.5t22 -129q0 -198 -135 -326.5t-367 -128.5q-116 0 -194.5 30t-143.5 81z" />
<glyph unicode="T" d="M41 1274q10 42 10 65q0 19 -10 64q300 -10 528 -10q229 0 529 10q-11 -49 -11 -66t11 -63q-158 22 -439 22q-6 -211 -6 -424v-352q0 -163 17 -524q-62 4 -101 4q-38 0 -100 -4q16 340 16 524v352q0 212 -6 424q-280 0 -438 -22z" />
<glyph unicode="U" horiz-adv-x="1593" d="M193 1403q55 -10 106 -10q36 0 88 10q-25 -302 -25 -703q0 -63 0.5 -96.5t4.5 -96t12 -99t23.5 -90t38 -85t57 -69t79 -57.5t106.5 -34t136 -14q93 0 166 26t119.5 62t79.5 99.5t49 113.5t24.5 131.5t9.5 125t1 120.5q0 562 -13 666q52 -10 84 -10q24 0 62 10 q-26 -311 -37 -850q-5 -278 -156.5 -431t-427.5 -153q-306 0 -445.5 139t-139.5 441q0 68 5 171t5 152q0 285 -12 531z" />
<glyph unicode="V" horiz-adv-x="1366" d="M35 1403q65 -10 106 -10q42 0 107 10q161 -483 467 -1210q104 237 248 614t217 596q52 -10 75 -10q24 0 76 10q-340 -757 -590 -1407q-46 4 -67 4q-32 0 -68 -4q-238 610 -571 1407z" />
<glyph unicode="W" horiz-adv-x="2048" d="M27 1403q58 -10 102 -10t102 10q73 -291 145.5 -536.5t209.5 -676.5h4q9 26 82.5 246t125 375.5t109 337.5t74.5 254q45 -10 68 -10q22 0 67 10q37 -144 173.5 -561.5t217.5 -651.5h4q321 1015 367 1213q42 -10 72 -10q29 0 71 10q-47 -107 -255 -723t-234 -684 q-46 4 -70 4q-23 0 -69 -4q-21 64 -158 494.5t-219 672.5h-4q-103 -291 -400 -1167q-46 4 -71 4q-26 0 -72 -4q-21 66 -120 391.5t-192.5 624t-129.5 391.5z" />
<glyph unicode="X" horiz-adv-x="1251" d="M76 -4q192 266 473 698q-143 243 -434 709q65 -10 110 -10q46 0 111 10q98 -199 317 -561q192 285 342 561q52 -10 76 -10t76 10q-18 -24 -89.5 -122t-99.5 -137.5t-82 -116t-95 -138.5t-81 -125q235 -398 476 -768q-26 4 -115 4t-115 -4q-22 39 -98.5 184t-131.5 241 t-118 189q-34 -50 -70 -107t-60.5 -97t-65.5 -109.5t-56.5 -96t-62.5 -108t-56 -96.5q-18 4 -75 4q-58 0 -76 -4z" />
<glyph unicode="Y" horiz-adv-x="1251" d="M45 1403q65 -10 113 -10q47 0 112 10q141 -273 389 -709q205 321 388 709q58 -10 79 -10q22 0 80 10q-367 -559 -495 -809q0 -414 16 -598q-62 4 -100 4q-39 0 -101 -4q17 150 17 575q-450 755 -498 832z" />
<glyph unicode="Z" horiz-adv-x="1251" d="M47 -4v29q219 304 507.5 721t379.5 557q-98 4 -143 4q-145 0 -344 -9.5t-316 -21.5q10 42 10 63q0 22 -10 64q133 -10 854 -10q99 0 219 10v-37q-110 -115 -436.5 -589t-458.5 -685q66 -6 170 -6q151 0 381.5 12t343.5 25q-10 -42 -10 -68q0 -21 10 -59q-147 4 -368 4 h-113h-182q-416 0 -494 -4z" />
<glyph unicode="[" horiz-adv-x="681" d="M270 -242q13 296 13 559v517q0 263 -13 565q46 -6 105 -6q36 0 120 3t109 3q-4 -20 -4 -29q0 -3 4 -31q-114 4 -186 4q-17 -292 -17 -509v-517q0 -211 17 -503q72 0 186 4q-4 -28 -4 -31q0 -9 4 -29q-25 0 -109 3t-120 3q-59 0 -105 -6z" />
<glyph unicode="\" horiz-adv-x="1024" d="M176 1440q38 -10 53 -10q16 0 54 10l565 -1481q-38 10 -53 10q-16 0 -54 -10z" />
<glyph unicode="]" horiz-adv-x="681" d="M78 -182q114 -4 186 -4q17 292 17 503v517q0 217 -17 509q-72 0 -186 -4q4 28 4 31q0 9 -4 29q25 0 109 -3t120 -3q59 0 105 6q-13 -302 -13 -565v-517q0 -263 13 -559q-46 6 -105 6q-36 0 -120 -3t-109 -3q4 20 4 29q0 3 -4 31z" />
<glyph unicode="^" horiz-adv-x="1241" d="M86 416l483 927h107l479 -927h-106l-428 831l-428 -831h-107z" />
<glyph unicode="_" horiz-adv-x="1024" d="M0 -160h1024v-102h-1024v102z" />
<glyph unicode="`" horiz-adv-x="681" d="M20 1434q0 30 22 47.5t46 17.5q43 0 92 -49l301 -305h-86l-301 192q-21 13 -34.5 23.5t-26.5 30.5t-13 43z" />
<glyph unicode="a" horiz-adv-x="1024" d="M86 221q0 231 289 281q79 13 126 21.5t85 19.5t54.5 18t27.5 21.5t12.5 26.5t1.5 36q0 113 -55 185.5t-170 72.5q-83 0 -153 -37t-105 -102h-23v106q88 66 166 92.5t164 26.5q148 0 240 -83.5t92 -219.5q0 -76 -4.5 -232.5t-4.5 -244.5q0 -28 0.5 -43t4.5 -39t12 -37 t24 -23t39 -10q27 0 43 9v-46q-49 -22 -131 -22q-64 0 -99.5 32.5t-41.5 88.5q-76 -76 -148.5 -110t-173.5 -34q-111 0 -191.5 65.5t-80.5 180.5zM254 250q0 -92 52.5 -143.5t125.5 -51.5q74 0 139 41.5t103 102.5l8 307q-32 -11 -97 -23t-116 -24t-103.5 -34.5t-82 -66.5 t-29.5 -108z" />
<glyph unicode="b" d="M117 0q16 206 16 580v370q0 371 -16 590q65 -10 92 -10q35 0 100 10q-7 -49 -12 -168t-8 -333t-4 -263h4q69 110 153.5 161.5t194.5 51.5q103 0 184 -39t130.5 -106.5t75.5 -153t26 -182.5q0 -236 -133 -384.5t-332 -148.5q-95 0 -174.5 40.5t-122.5 103.5 q-47 -38 -137 -119h-37zM279 446q0 -411 299 -411q128 0 211 132.5t83 346.5q0 180 -81.5 284.5t-194.5 104.5q-67 0 -122.5 -24.5t-100 -76.5t-69.5 -142.5t-25 -213.5z" />
<glyph unicode="c" horiz-adv-x="1024" d="M86 479q0 103 29 188.5t79 144t117 99.5t142 59.5t155 18.5q108 0 199 -26.5t131 -63.5q-33 -74 -45 -135h-16q-32 61 -103 110.5t-160 49.5q-177 0 -262.5 -121t-85.5 -322q0 -210 90.5 -318t264.5 -108q80 0 166 41.5t141 104.5l10 -6q-9 -50 -12 -101 q-65 -52 -156.5 -85.5t-185.5 -33.5q-74 0 -143 16t-134.5 54t-114 95t-77.5 144t-29 195z" />
<glyph unicode="d" d="M86 473q0 125 38.5 226.5t102 163t140.5 94t159 32.5q228 0 316 -205h4v201q0 380 -8 555q55 -10 92 -10q34 0 92 10q-11 -120 -18 -444t-7 -615q0 -111 3.5 -283t3.5 -202q-54 4 -80 4q-24 0 -78 -4l6 194h-4q-15 -30 -33.5 -56.5t-49.5 -57t-66.5 -51.5t-87 -35.5 t-109.5 -14.5q-81 0 -153 28.5t-132 85.5t-95.5 156t-35.5 228zM266 461q0 -95 17 -169t44 -119.5t65 -75t76 -41t81 -11.5q77 0 137 39.5t96 105.5t54 145t18 165q0 197 -76 300t-223 103q-95 0 -161.5 -59.5t-97 -157.5t-30.5 -225z" />
<glyph unicode="e" horiz-adv-x="1024" d="M72 451q0 255 121 396.5t348 141.5q105 0 187 -33t133 -91t77.5 -132.5t26.5 -161.5q0 -25 -4 -79q-49 1 -138.5 2.5t-162.5 2.5t-138 1q-40 0 -84.5 -1t-99 -2.5t-84.5 -2.5q-2 -6 -2 -31v-27q0 -165 94.5 -272t259.5 -107q80 0 166 41.5t141 104.5l11 -6l-13 -101 q-65 -52 -156.5 -85.5t-185.5 -33.5q-221 0 -359 133t-138 343zM258 569q252 -6 266 -6q9 0 273 6q0 49 -5.5 93.5t-22 94t-43.5 85t-73.5 59t-107.5 23.5q-58 0 -106 -23t-79.5 -59.5t-54 -84.5t-33.5 -94.5t-14 -93.5z" />
<glyph unicode="f" horiz-adv-x="569" d="M35 877q4 28 4 41q0 12 -4 40q25 0 74.5 -1t72.5 -1q0 125 50 271.5t128 224.5q40 40 96 67t113 27q23 0 41 -6q-1 -19 -4.5 -76t-3.5 -88l-12 -6q-51 31 -113 31q-85 0 -126.5 -58.5t-41.5 -146.5q0 -90 25 -240q36 0 105.5 1t105.5 1q-4 -28 -4 -40q0 -13 4 -41 q-25 1 -67 2.5t-77 2.5t-67 1q0 -590 8 -887q-21 4 -88 4q-28 0 -90 -4q18 297 18 887q-22 0 -46.5 -1t-54.5 -2.5t-46 -2.5z" />
<glyph unicode="g" horiz-adv-x="1024" d="M68 -254q0 103 65 172t154 92v4q-63 19 -96 61.5t-33 102.5q0 64 45 112t100 58v4q-201 88 -201 303q0 162 111 248t281 86q66 0 165 -8q84 -8 144 -8q108 0 166 10q-4 -28 -4 -43t4 -43q-205 15 -228 16l-4 -4q63 -35 102.5 -107.5t39.5 -150.5q0 -153 -103 -240 t-278 -87q-20 0 -57 2t-56 2q-38 0 -69 -27.5t-31 -67.5q0 -55 26.5 -79t94.5 -25l225 -6q179 -4 264.5 -74t85.5 -182q0 -58 -17 -115.5t-55 -112t-93 -96t-138 -67t-182 -25.5q-198 0 -313 79.5t-115 215.5zM199 -231q0 -132 82 -195t219 -63q86 0 158.5 27.5t121.5 90 t49 150.5q0 122 -71 171.5t-238 49.5q-161 0 -241 -52.5t-80 -178.5zM262 655q0 -132 58 -205t174 -73q111 0 168 82.5t57 206.5q0 126 -60.5 195t-162.5 69q-109 0 -171.5 -74.5t-62.5 -200.5z" />
<glyph unicode="h" d="M156 -4q16 203 16 584v370q0 371 -16 590q65 -10 92 -10t92 10q-16 -219 -16 -579v-156h4q120 184 327 184q49 0 93.5 -9.5t88.5 -34.5t75.5 -64t51 -102.5t19.5 -145.5q0 -56 -4 -181.5t-4 -197.5v-133q0 -47 4 -125q-54 4 -86 4q-30 0 -84 -4q14 329 14 450v125 q0 152 -58.5 232t-164.5 80q-276 0 -276 -336q0 -384 16 -551q-62 4 -92 4t-92 -4z" />
<glyph unicode="i" horiz-adv-x="569" d="M180 1325q0 43 31 74t74 31t73.5 -31t30.5 -74t-30.5 -73.5t-73.5 -30.5t-74 30.5t-31 73.5zM193 -4q16 125 16 377v213q0 249 -16 383q72 -11 92 -11q21 0 92 11q-17 -142 -17 -383v-213q0 -245 17 -377q-62 4 -92 4t-92 -4z" />
<glyph unicode="j" horiz-adv-x="569" d="M-2 -479q4 -4 27 -4q184 0 184 385v602q0 350 -16 465q72 -11 92 -11q21 0 92 11q-17 -142 -17 -383v-213q0 -80 4.5 -235.5t4.5 -229.5q0 -105 -11.5 -172t-54.5 -129q-45 -68 -123 -110t-174 -46zM180 1325q0 43 31 74t74 31t73.5 -31t30.5 -74t-30.5 -73.5 t-73.5 -30.5t-74 30.5t-31 73.5z" />
<glyph unicode="k" horiz-adv-x="1024" d="M156 -4q16 203 16 584v370q0 371 -16 590q65 -10 92 -10t92 10q-16 -219 -16 -590v-372q0 -39 24 -39q7 0 13.5 2t16 8t14 9t18.5 14t18 14q43 33 166.5 157t210.5 226q50 -11 78 -11q16 0 102 11q-294 -238 -471 -412q260 -314 494 -561q-31 4 -117 4q-79 0 -105 -4 q-49 56 -203.5 241t-207.5 240q-17 21 -31 21q-20 0 -20 -25v-123q0 -220 16 -354q-62 4 -92 4t-92 -4z" />
<glyph unicode="l" horiz-adv-x="569" d="M193 -4q16 203 16 584v370q0 371 -16 590q65 -10 92 -10t92 10q-17 -233 -17 -590v-370q0 -368 17 -584q-62 4 -92 4t-92 -4z" />
<glyph unicode="m" horiz-adv-x="1705" d="M143 -4q17 132 17 377v213q0 241 -17 383q71 -11 93 -11q17 0 81 11q-6 -83 -6 -164h4q108 184 306 184q104 0 189.5 -58t107.5 -145h4q50 98 134.5 150.5t194.5 52.5q143 0 228.5 -79.5t85.5 -243.5q0 -28 -6.5 -171t-6.5 -282q0 -124 7 -217q-21 4 -89 4q-69 0 -90 -4 q21 178 21 641q0 246 -215 246q-131 0 -205 -97q-24 -32 -32.5 -67t-12.5 -119.5t-4 -284.5q0 -127 10 -319q-62 4 -90 4t-90 -4q18 193 18 459q0 185 -5.5 232.5t-31.5 100.5q-24 39 -72 67t-98 28q-262 0 -262 -336v-174q0 -245 17 -377q-62 4 -92 4q-31 0 -93 -4z" />
<glyph unicode="n" d="M156 -4q16 125 16 377v213q0 249 -16 383q72 -11 92 -11q18 0 82 11q-6 -82 -6 -164h4q120 184 327 184q49 0 93.5 -9.5t88.5 -34.5t75.5 -64t51 -102.5t19.5 -145.5q0 -56 -4 -181.5t-4 -197.5v-133q0 -47 4 -125q-54 4 -86 4q-30 0 -84 -4q14 329 14 450v125 q0 152 -58.5 232t-164.5 80q-276 0 -276 -336v-174q0 -252 16 -377q-62 4 -92 4t-92 -4z" />
<glyph unicode="o" d="M72 479q0 108 29 195.5t77 145t113 96.5t134.5 56t143.5 17t143.5 -17t134.5 -56t113.5 -96.5t77.5 -145.5t29 -195q0 -109 -29 -196.5t-77.5 -144t-114 -94t-134 -53.5t-143.5 -16q-95 0 -179 26.5t-157.5 83t-117 158t-43.5 236.5zM252 479q0 -91 16 -167t51 -140 t99 -100.5t151 -36.5t151 36.5t99.5 100.5t51.5 140t16 167t-16 167t-51.5 140.5t-99.5 101t-151 36.5q-70 0 -125.5 -24.5t-91 -66t-58.5 -99.5t-32.5 -120.5t-9.5 -134.5z" />
<glyph unicode="p" d="M117 -543q16 216 16 584v332q0 370 -16 596q71 -11 92 -11t92 11q-16 -115 -16 -201h4q16 37 42 71.5t67 70.5t102.5 57.5t134.5 21.5q81 0 154 -30.5t133 -89.5t95.5 -158.5t35.5 -225.5q0 -127 -38.5 -227.5t-103 -160.5t-141.5 -91t-160 -31q-226 0 -321 195h-4v-129 q0 -368 16 -584q-71 11 -92 11t-92 -11zM285 471q0 -426 299 -426q95 0 161.5 59.5t96.5 157.5t30 225q0 95 -17 169t-44 119.5t-64.5 75t-75.5 41t-81 11.5q-80 0 -140.5 -34t-95.5 -94t-52 -136t-17 -168z" />
<glyph unicode="q" d="M86 473q0 104 25.5 191t67.5 146t98 100t116.5 60t122.5 19q251 0 334 -221h4q0 86 -16 201q71 -11 92 -11q20 0 92 11q-16 -226 -16 -596v-332q0 -368 16 -584q-72 11 -92 11t-92 -11q16 216 16 584v154h-4q-113 -220 -334 -220q-64 0 -123 15t-116 51t-98.5 91.5 t-67 143t-25.5 197.5zM266 457q0 -182 71.5 -297t203.5 -115q99 0 172 68t107 169t34 218q0 109 -28.5 197t-97 147t-169.5 59q-43 0 -82 -11.5t-78.5 -42.5t-68 -79.5t-46.5 -129t-18 -183.5z" />
<glyph unicode="r" horiz-adv-x="681" d="M156 -4q8 92 8 483v66q0 244 -8 424q57 -11 86 -11q25 0 82 11q-11 -108 -11 -199l4 -2q120 221 271 221q33 0 65 -12q-14 -33 -14 -166l-14 -10q-11 12 -41 22.5t-60 10.5q-96 0 -152.5 -81.5t-56.5 -203.5v-225q0 -262 9 -328q-54 4 -82 4q-32 0 -86 -4z" />
<glyph unicode="s" horiz-adv-x="796" d="M82 37q14 30 26.5 75.5t12.5 73.5h24q24 -50 89 -95.5t143 -45.5q83 0 140.5 48.5t57.5 135.5q0 51 -26.5 86t-69 54t-94 34.5t-103.5 34.5t-94.5 46t-69 76.5t-26.5 119.5q0 137 90 223t250 86q35 0 71.5 -6.5t53.5 -12t56.5 -21t45.5 -17.5q-33 -59 -49 -146h-24 q-19 53 -67 90t-113 37q-68 0 -121.5 -44t-53.5 -128q0 -47 21 -81t55 -52t77.5 -34t88.5 -26.5t88.5 -30t77.5 -45t55 -71.5t21 -108q0 -61 -26 -118t-73 -101.5t-117.5 -71.5t-152.5 -27q-157 0 -264 62z" />
<glyph unicode="t" horiz-adv-x="569" d="M35 860q4 32 4 47q0 13 -4 41q91 -6 135 -6q-1 17 -1.5 60.5t-2 86.5t-4.5 82l170 72h10q-5 -59 -9.5 -163.5t-6.5 -139.5q121 0 217 6q-2 -4 -2 -22v-21v-22q0 -17 2 -21q-70 4 -117 4h-100q-4 -17 -9.5 -200.5t-5.5 -319.5q0 -41 0.5 -66t4 -62t10 -59t18.5 -48 t29.5 -40.5t43.5 -24t60 -9.5q45 0 92 13v-48q-13 -2 -46.5 -9.5t-60.5 -11.5t-50 -4q-252 0 -252 250q0 56 7 261.5t7 377.5h-65q-20 0 -74 -4z" />
<glyph unicode="u" d="M156 305q0 78 3 186t3 152q0 96 -4 326q64 -11 86 -11q20 0 84 11q-21 -246 -21 -570q0 -176 64 -247q69 -76 176 -76q83 0 142 36.5t85 94.5q22 51 29 83.5t10.5 102t3.5 240.5v172q0 66 -4 164q57 -11 86 -11q35 0 84 11q-14 -213 -14 -623q0 -205 8 -350q-54 4 -80 4 t-80 -4q4 50 4 82v88h-4q-53 -96 -135.5 -143.5t-183.5 -47.5q-161 0 -251.5 86t-90.5 244z" />
<glyph unicode="v" horiz-adv-x="1024" d="M43 969q64 -11 102 -11q34 0 91 11q124 -399 305 -799q38 78 84.5 191.5t72.5 181.5t85 230.5t71 195.5q46 -11 64 -11q17 0 63 11q-18 -40 -71.5 -160t-76.5 -171t-67.5 -154.5t-72 -169.5t-62 -153t-62.5 -165q-40 4 -63 4q-20 0 -66 -4q-9 23 -46 118t-49 126t-45 116 t-50 126t-47.5 116.5t-52.5 127.5t-51 117.5t-56 125.5z" />
<glyph unicode="w" horiz-adv-x="1593" d="M37 969q61 -11 96 -11q30 0 94 11q114 -405 262 -785q49 115 131.5 353t139.5 432q46 -11 61 -11q16 0 58 11q14 -55 29.5 -108.5t36 -117.5t33.5 -104t40.5 -117.5t37 -105t43 -120.5t40.5 -112q46 112 291 785q50 -11 65 -11q19 0 61 11q-231 -489 -407 -973 q-28 4 -53 4q-45 0 -54 -4q-115 390 -262 754q-117 -298 -270 -754q-32 4 -57 4q-26 0 -58 -4q-181 545 -358 973z" />
<glyph unicode="x" horiz-adv-x="1024" d="M51 -4q205 241 379 473q-137 185 -377 500q72 -11 109 -11q36 0 108 11q103 -169 260 -383q22 29 89 118t110 147.5t84 117.5q46 -11 72 -11q12 0 69 11q-127 -146 -376 -443q168 -246 395 -530q-26 4 -105 4q-78 0 -104 -4q-131 193 -285 412q-156 -217 -291 -412 q-46 4 -67 4q-24 0 -70 -4z" />
<glyph unicode="y" horiz-adv-x="1024" d="M45 969q64 -11 94 -11t94 11q84 -262 306 -787q169 353 305 787q50 -11 67 -11q19 0 68 11q-87 -175 -344.5 -753t-315.5 -759q-49 11 -69 11t-70 -11q151 247 275 537q-67 166 -216.5 521t-193.5 454z" />
<glyph unicode="z" horiz-adv-x="1024" d="M70 -4v22q82 99 185.5 233t173.5 227.5t172 231.5t128 173q-44 0 -249 -10.5t-306 -20.5q6 27 6 57q0 25 -6 60q121 -11 512 -11h78q33 0 64 1.5t68 5t58 4.5v-31q-324 -419 -651 -862q194 0 317.5 4.5t323.5 23.5q-8 -21 -8 -57q0 -35 8 -51q-115 4 -512 4 q-280 0 -362 -4z" />
<glyph unicode="{" horiz-adv-x="681" d="M117 532v86q72 0 110.5 52.5t38.5 140.5v348q0 131 44.5 185.5t135.5 54.5h119v-76h-65q-58 0 -82.5 -33t-24.5 -131v-336q0 -100 -44.5 -156.5t-135.5 -88.5v-5q91 -32 135.5 -88.5t44.5 -156.5v-330q0 -98 24.5 -131t82.5 -33h65v-76h-119q-91 0 -135.5 53t-44.5 187 v342q0 88 -38.5 140t-110.5 52z" />
<glyph unicode="|" horiz-adv-x="681" d="M289 -508v2044h106v-2044h-106z" />
<glyph unicode="}" horiz-adv-x="681" d="M117 -166h65q58 0 82.5 33t24.5 131v330q0 100 44.5 156.5t135.5 88.5v5q-91 32 -135.5 88.5t-44.5 156.5v336q0 98 -24.5 131t-82.5 33h-65v76h119q91 0 135.5 -54.5t44.5 -185.5v-348q0 -88 38.5 -140.5t110.5 -52.5v-86q-72 0 -110.5 -52t-38.5 -140v-342 q0 -134 -44.5 -187t-135.5 -53h-119v76z" />
<glyph unicode="~" horiz-adv-x="1241" d="M154 471q53 87 107.5 128.5t141.5 41.5q55 0 97 -12.5t96 -38.5q23 -10 63 -30t62 -30t55 -19t64 -9q53 0 106.5 48t81.5 105l59 -86q-53 -79 -110.5 -126.5t-138.5 -47.5q-92 0 -234 76q-118 64 -188 64q-140 0 -203 -154z" />
<glyph unicode="&#xa1;" horiz-adv-x="681" d="M223 872q0 47 35 82t82 35t82 -35t35 -82t-35 -81.5t-82 -34.5t-82 34.5t-35 81.5zM240 -358q0 31 79 972h41q80 -943 80 -972q0 -52 -28.5 -76.5t-71.5 -24.5t-71.5 24.5t-28.5 76.5z" />
<glyph unicode="&#xa2;" d="M162 479q0 116 35.5 209t97.5 153t140 96t169 46v16q0 118 -10 197q38 -10 53 -10t53 10q-10 -79 -10 -195v-12q106 -1 195 -27t129 -63q-33 -74 -45 -135h-17q-33 62 -102.5 111t-159.5 49v-869h6q80 0 166.5 41.5t141.5 104.5l10 -6q-11 -58 -13 -101q-58 -48 -141 -79 t-170 -35v-17q0 -104 10 -209q-38 10 -53 10t-53 -10q10 95 10 211v15q-70 7 -131.5 27t-119.5 59t-99.5 94t-66.5 137t-25 182zM342 481q0 -362 262 -415v849q-134 -31 -198 -145.5t-64 -288.5z" />
<glyph unicode="&#xa3;" d="M92 -4q4 20 4 59q0 20 -4 66h29q85 0 141.5 23.5t86 71t41 105.5t11.5 142q0 67 -18 215q-136 -4 -199 -4q4 20 4 22v25v20q0 7 -4 23q51 -10 189 -10q-11 90 -11 139q0 109 26 194.5t67 138.5t97 88t111 48.5t113 13.5q81 0 155 -28t109 -80q-46 -57 -77 -111l-9 6 q-18 66 -66 101.5t-112 35.5q-109 0 -177.5 -78.5t-68.5 -197.5q0 -110 13 -270q136 0 313 10q-4 -28 -4 -43t4 -47q-208 4 -307 4q4 -62 4 -94q0 -147 -57.5 -267t-143.5 -188v-4q81 0 180.5 2.5t169.5 5.5t180.5 7.5t157.5 6.5q-6 -44 -6 -81q0 -43 6 -70q-109 4 -481 4 q-363 0 -467 -4z" />
<glyph unicode="&#xa4;" d="M61 246l111 112q-111 135 -111 314q0 185 113 317l-113 117l74 74l115 -115q141 115 319 115q180 0 318 -113l112 113l74 -74l-112 -115q116 -132 116 -319q0 -181 -112 -318l108 -108l-74 -78l-112 111q-137 -115 -318 -115q-186 0 -319 117l-115 -113zM168 672 q0 -171 116 -291.5t285 -120.5t285.5 120.5t116.5 291.5t-116.5 291t-285.5 120t-285 -120t-116 -291z" />
<glyph unicode="&#xa5;" d="M51 1403q65 -10 109 -10q43 0 108 10q40 -103 342 -600q241 377 363 600q45 -10 69 -10q25 0 70 10q-120 -160 -446 -649q103 0 333 4q-4 -28 -4 -43t4 -43q-43 1 -113.5 2.5t-129 2.5t-113.5 1v-178h178h88q59 0 90 2q-4 -28 -4 -43t4 -43q-164 8 -356 8q0 -253 14 -428 q-62 4 -94 4t-94 -4q14 197 14 428q-194 0 -350 -8q4 28 4 43t-4 43q31 -2 88 -2h86h176v178q-52 0 -110.5 -1t-129.5 -2.5t-110 -2.5q4 28 4 43t-4 43q230 -4 332 -4q-62 95 -130.5 202.5t-152 239.5t-131.5 207z" />
<glyph unicode="&#xa6;" horiz-adv-x="681" d="M289 -354v712h106v-712h-106zM289 666v716h106v-716h-106z" />
<glyph unicode="&#xa7;" horiz-adv-x="1024" d="M121 647q0 88 44.5 155.5t96.5 98.5q-22 34 -30 49.5t-16.5 53t-8.5 90.5q0 65 23.5 124.5t67.5 107t114.5 76t158.5 28.5q164 0 273 -125q-20 -19 -37.5 -54.5t-22.5 -66.5h-24q-18 70 -77 120t-140 50q-90 0 -160 -57.5t-70 -147.5q0 -60 32.5 -105.5t84.5 -74 t115 -53.5t126 -52.5t115 -61.5t84.5 -89.5t32.5 -128.5q0 -76 -37.5 -149.5t-81.5 -117.5q76 -63 76 -182q0 -60 -17.5 -116.5t-53.5 -106.5t-86.5 -87.5t-121 -59t-151.5 -21.5q-76 0 -157 25t-132 63q23 77 23 168h24q11 -24 31.5 -51t55.5 -58t91 -51t121 -20 q106 0 186.5 74.5t80.5 160.5q0 47 -21.5 84t-58.5 63t-84.5 47.5t-100 41t-104.5 40.5t-99.5 49.5t-84.5 63.5t-58.5 87t-21.5 116zM217 715q0 -76 49 -124.5t170 -101.5q259 -112 316 -149q18 26 27.5 42t18.5 47t9 65q0 76 -37 116.5t-143 87.5q-127 56 -198.5 91t-93 49 t-40.5 30q-78 -69 -78 -153z" />
<glyph unicode="&#xa8;" horiz-adv-x="681" d="M35 1305q0 43 30.5 73.5t73.5 30.5t74 -30.5t31 -73.5t-31 -74t-74 -31t-73.5 31t-30.5 74zM438 1305q0 43 31 73.5t74 30.5t73.5 -30.5t30.5 -73.5t-30.5 -74t-73.5 -31t-74 31t-31 74z" />
<glyph unicode="&#xa9;" horiz-adv-x="1536" d="M35 696q0 150 58 285.5t156 234t233.5 156.5t285.5 58t285.5 -58t233.5 -156.5t156 -234t58 -285.5q0 -152 -58 -287t-156 -231.5t-233.5 -152.5t-285.5 -56t-285.5 56t-233.5 152.5t-156 231.5t-58 287zM121 696q0 -133 50.5 -254t136.5 -209.5t206.5 -141t253.5 -52.5 t253.5 52.5t206.5 141t136.5 209.5t50.5 254q0 178 -85.5 329t-234.5 240t-327 89t-327 -89t-234.5 -240t-85.5 -329zM315 692q0 118 39 211.5t107.5 153.5t160 91.5t197.5 31.5q191 0 289 -58q-24 -50 -27 -102l-10 -4q-1 1 -18 16t-24 20t-26.5 19t-35.5 20.5t-38.5 15 t-48.5 12t-55 3.5q-61 0 -112.5 -11.5t-101 -42t-84 -77.5t-55.5 -124t-21 -177q0 -182 97.5 -294.5t270.5 -112.5q78 0 153 34.5t124 77.5l12 -4q-12 -30 -12 -82q-140 -84 -299 -84q-214 0 -348 127.5t-134 339.5z" />
<glyph unicode="&#xaa;" horiz-adv-x="663" d="M41 915q0 73 43.5 111t159.5 59q48 8 76.5 13.5t52 11.5t33.5 10t17 11t8 13t1 17q0 92 -38 125t-107 33q-58 0 -99 -25.5t-55 -56.5h-24v76q35 20 60 31t69 21.5t94 10.5q31 0 58.5 -4t57.5 -17t51.5 -33.5t35.5 -56.5t14 -83q0 -54 -5 -163.5t-5 -135.5q0 -70 45 -70 q24 0 39 12v-37q-43 -24 -97 -24q-39 0 -61 25t-27 63q-91 -88 -207 -88q-78 0 -134 35.5t-56 115.5zM168 928q0 -52 31.5 -79.5t81.5 -27.5q74 0 151 82v189q-24 -13 -75.5 -23t-89.5 -18t-68.5 -39t-30.5 -84z" />
<glyph unicode="&#xab;" horiz-adv-x="1024" d="M197 475l258 383q24 -46 75 -55l-227 -326l217 -340q-25 -5 -48 -20t-30 -33zM494 475l258 383q24 -46 75 -55l-227 -326l217 -340q-25 -5 -48 -20t-30 -33z" />
<glyph unicode="&#xac;" horiz-adv-x="1241" d="M102 664v106h1037v-549h-107v443h-930z" />
<glyph unicode="&#xad;" horiz-adv-x="681" d="M86 410v127h510v-127h-510z" />
<glyph unicode="&#xae;" horiz-adv-x="1536" d="M35 696q0 150 58 285.5t156 234t233.5 156.5t285.5 58t285.5 -58t233.5 -156.5t156 -234t58 -285.5q0 -152 -58 -287t-156 -231.5t-233.5 -152.5t-285.5 -56t-285.5 56t-233.5 152.5t-156 231.5t-58 287zM121 696q0 -133 50.5 -254t136.5 -209.5t206.5 -141t253.5 -52.5 t253.5 52.5t206.5 141t136.5 209.5t50.5 254q0 178 -85.5 329t-234.5 240t-327 89t-327 -89t-234.5 -240t-85.5 -329zM481 252q15 240 15 287v350q0 133 -15 276q92 -10 168 -10q27 0 82.5 5t83.5 5q112 0 185 -52t73 -152q0 -59 -29 -108.5t-73 -79t-90.5 -47t-87.5 -19.5 q40 -48 118.5 -150t143 -182.5t100.5 -112.5v-10q-52 10 -78 10q-22 0 -80 -10q-163 240 -329 438h-66v-143q0 -148 12 -295q-45 10 -65 10q-23 0 -68 -10zM602 748q21 -9 86 -9q114 0 186 50.5t72 156.5q0 79 -51.5 124.5t-138.5 45.5q-74 0 -142 -10q-12 -126 -12 -193 v-165z" />
<glyph unicode="&#xaf;" horiz-adv-x="681" d="M61 1237v106h560v-106h-560z" />
<glyph unicode="&#xb0;" horiz-adv-x="819" d="M113 1079q0 123 87 210t210 87t210 -87t87 -210t-87 -210t-210 -87t-210 87t-87 210zM188 1079q0 -92 65 -156.5t157 -64.5t156.5 64.5t64.5 156.5t-64.5 156.5t-156.5 64.5t-157 -64.5t-65 -156.5z" />
<glyph unicode="&#xb1;" horiz-adv-x="1241" d="M102 0v106h1037v-106h-1037zM102 557v107h465v372h107v-372h465v-107h-465v-373h-107v373h-465z" />
<glyph unicode="&#xb2;" horiz-adv-x="681" d="M35 532v31q26 24 75 70t71 66.5t62 59t58 59t47.5 54t42.5 55t31 52.5t25.5 56.5t13.5 56t6 61.5q0 87 -42.5 130.5t-107.5 43.5q-74 0 -117.5 -42t-49.5 -87l-11 -4l-47 61q43 63 100.5 92t143.5 29q122 0 194 -53t72 -164q0 -69 -30 -126.5t-114 -144.5t-268 -249 l5 -10h98q201 0 313 10q-8 -21 -8 -53q0 -33 8 -54q-176 11 -287 11q-108 0 -284 -11z" />
<glyph unicode="&#xb3;" horiz-adv-x="681" d="M53 573l21 78h10q71 -71 176 -71q97 0 153 54t56 142q0 93 -48 135.5t-118 42.5q-38 0 -84 -12q6 18 6 35q0 23 -6 41q28 -14 68 -14q54 0 88 30t45.5 68.5t11.5 83.5q0 68 -39.5 104.5t-97.5 36.5q-52 0 -93 -25.5t-55 -62.5l-10 -2l-31 66q25 21 47 34.5t68 26 t103 12.5q104 0 169.5 -46t65.5 -134q0 -84 -55 -138.5t-125 -68.5v-4q30 -2 58.5 -8t59.5 -20.5t54 -35t38 -54.5t15 -76q0 -117 -93.5 -189t-246.5 -72q-123 0 -211 43z" />
<glyph unicode="&#xb4;" horiz-adv-x="681" d="M201 1145l301 305q49 49 92 49q24 0 46 -17.5t22 -47.5q0 -33 -20.5 -55t-53.5 -42l-301 -192h-86z" />
<glyph unicode="&#xb5;" d="M156 -543q0 116 4 325t4 337q0 195 -3 468t-3 382q64 -11 86 -11q20 0 84 11q-21 -246 -21 -570q0 -176 64 -247q69 -76 176 -76q83 0 142 36.5t85 94.5q22 51 29 83.5t10.5 102t3.5 240.5v172q0 66 -4 164q57 -11 86 -11q35 0 84 11q-14 -213 -14 -623q0 -205 8 -350 q-54 4 -80 4t-80 -4q4 50 4 82v88h-4q-53 -96 -136 -143.5t-185 -47.5q-122 0 -189 56v-58v-61v-56t0.5 -60t1.5 -55t2 -59t2.5 -54.5t3.5 -59t5 -54t6 -57.5q-64 11 -86 11t-86 -11z" />
<glyph unicode="&#xb6;" horiz-adv-x="1638" d="M307 1016q0 188 106 282.5t302 94.5h534v-50l-153 -24v-1548h-74v1538l-131 -21v-1517h-74v825q-254 0 -382 113t-128 307z" />
<glyph unicode="&#xb7;" horiz-adv-x="569" d="M162 627q0 51 36 87t87 36t87 -36t36 -87t-36 -87t-87 -36t-87 36t-36 87z" />
<glyph unicode="&#xb8;" horiz-adv-x="681" d="M59 -418l29 66q55 -25 148 -25q53 0 87.5 23t34.5 63q0 42 -29 62t-75 20q-68 0 -88 -14l-14 14l84 209h71l-51 -143q27 10 59 10q79 0 124.5 -39.5t45.5 -106.5q0 -83 -69.5 -128.5t-173.5 -45.5q-86 0 -183 35z" />
<glyph unicode="&#xb9;" horiz-adv-x="681" d="M104 1229v20q178 56 304 127h22q-12 -156 -12 -319v-205q0 -156 12 -320q-50 11 -70 11t-69 -11q10 144 10 320v410l-8 4l-148 -76q-15 28 -41 39z" />
<glyph unicode="&#xba;" horiz-adv-x="696" d="M20 1069q0 80 28.5 141.5t76.5 96.5t104.5 52t120.5 17q61 0 117 -17t104 -52t76.5 -96.5t28.5 -141.5t-28.5 -141t-76.5 -95.5t-103.5 -51.5t-117.5 -17q-64 0 -120.5 17t-104.5 51.5t-76.5 95.5t-28.5 141zM156 1069q0 -107 47 -181.5t147 -74.5q66 0 110.5 39 t62.5 94.5t18 122.5q0 108 -47 183t-144 75q-52 0 -91 -21.5t-60.5 -59.5t-32 -82t-10.5 -95z" />
<glyph unicode="&#xbb;" horiz-adv-x="1024" d="M197 145l227 326l-217 340q25 5 48 20t30 33l245 -391l-258 -383q-24 46 -75 55zM494 145l227 326l-217 340q25 5 48 20t30 33l245 -391l-258 -383q-24 46 -75 55z" />
<glyph unicode="&#xbc;" horiz-adv-x="1708" d="M98 1229v20q176 56 303 127h23q-12 -156 -12 -319v-205q0 -156 12 -320q-50 11 -70 11t-69 -11q10 144 10 320v410l-8 4l-148 -76q-15 28 -41 39zM438 -51l568 1452q33 -10 47 -10t47 10l-568 -1452q-33 10 -47 10t-47 -10zM924 213v45q74 94 217.5 281.5t216.5 281.5 q16 -8 53 -8t53 8q-10 -174 -10 -524q72 0 119 12q-8 -19 -8 -47q0 -30 8 -49q-36 8 -119 8q0 -129 8 -225q-46 4 -67 4q-22 0 -68 -4q10 120 10 225h-120q-179 0 -293 -8zM1049 307l4 -10h284v395l-4 6q-19 -25 -91 -118.5t-114.5 -153.5t-78.5 -119z" />
<glyph unicode="&#xbd;" horiz-adv-x="1708" d="M98 1229v20q176 56 303 127h23q-12 -156 -12 -319v-205q0 -156 12 -320q-50 11 -70 11t-69 -11q10 144 10 320v410l-8 4l-148 -76q-15 28 -41 39zM432 -51l567 1452q33 -10 48 -10q14 0 47 10l-568 -1452q-33 10 -47 10t-47 -10zM977 -4v24q26 24 75 70t71 66.5t62 59 t58 59t47.5 54t42.5 55t31 52.5t25.5 56.5t13.5 56t6 61.5q0 87 -42 130.5t-107 43.5q-74 0 -118 -42t-50 -87l-11 -4l-47 62q43 63 100.5 92t143.5 29q122 0 194 -53.5t72 -164.5q0 -69 -29.5 -126.5t-113.5 -144.5t-268 -249l4 -10h98q200 0 313 10q-8 -21 -8 -53 q0 -31 8 -47q-64 4 -286 4q-221 0 -285 -4z" />
<glyph unicode="&#xbe;" horiz-adv-x="1708" d="M49 573l21 78h10q71 -71 176 -71q97 0 153 54t56 142q0 93 -48 135.5t-118 42.5q-38 0 -84 -12q6 18 6 35q0 23 -6 41q28 -14 68 -14q54 0 88 30t45.5 68.5t11.5 83.5q0 68 -39.5 104.5t-97.5 36.5q-52 0 -93 -25.5t-55 -62.5l-10 -2l-31 66q25 21 47 34.5t67.5 26 t102.5 12.5q104 0 170 -46t66 -134q0 -84 -55 -138.5t-125 -68.5v-4q30 -2 58.5 -8t59.5 -20.5t54 -35t38 -54.5t15 -76q0 -117 -93.5 -189t-246.5 -72q-123 0 -211 43zM504 -51l567 1452q33 -10 47 -10t47 10l-567 -1452q-33 10 -47 10t-47 -10zM965 213v45 q73 94 217 281.5t217 281.5q16 -8 53 -8t53 8q-10 -174 -10 -524q73 0 119 12q-8 -19 -8 -47q0 -30 8 -49q-36 8 -119 8q0 -129 8 -225q-46 4 -67 4q-22 0 -68 -4q10 120 10 225h-121q-178 0 -292 -8zM1090 307l4 -10h284v395l-4 6q-19 -25 -91 -118.5t-114.5 -153.5 t-78.5 -119z" />
<glyph unicode="&#xbf;" horiz-adv-x="796" d="M119 -188q0 58 20 112.5t52 97.5t71 84.5t78 80t71 76t52 81t20 86.5q0 46 -28 83.5t-78 37.5q-38 0 -70 -19l-12 9q21 29 24 57q33 10 72 10q28 0 63 -12.5t71.5 -37.5t60.5 -71.5t24 -105.5q0 -76 -36.5 -145t-88 -121t-103 -102t-88 -108.5t-36.5 -119.5 q0 -76 53 -122t123 -46q107 0 187 94l12 -102q-36 -22 -59 -33.5t-65 -23t-87 -11.5q-142 0 -222.5 77.5t-80.5 193.5zM307 872q0 47 35 82t82 35t82 -35t35 -82t-35 -81.5t-82 -34.5t-82 34.5t-35 81.5z" />
<glyph unicode="&#xc0;" horiz-adv-x="1366" d="M35 -4q274 590 641 1434h39q122 -295 172 -415.5t160 -383t178 -413.5t106 -222q-26 4 -108 4q-83 0 -109 -4q-17 58 -51.5 147t-86.5 216.5t-73 179.5q-176 4 -268 4q-82 0 -250 -4q-146 -353 -199 -543q-46 4 -75 4q-30 0 -76 -4zM362 1786q0 30 22 47.5t46 17.5 q43 0 92 -49l301 -305h-86l-301 193q-22 13 -35 23t-26 30t-13 43zM424 633q36 0 110.5 -2t110.5 -2q77 0 229 4l-227 520z" />
<glyph unicode="&#xc1;" horiz-adv-x="1366" d="M35 -4q274 590 641 1434h39q122 -295 172 -415.5t160 -383t178 -413.5t106 -222q-26 4 -108 4q-83 0 -109 -4q-17 58 -51.5 147t-86.5 216.5t-73 179.5q-176 4 -268 4q-82 0 -250 -4q-146 -353 -199 -543q-46 4 -75 4q-30 0 -76 -4zM424 633q36 0 110.5 -2t110.5 -2 q77 0 229 4l-227 520zM543 1497l301 305q49 49 92 49q24 0 46 -17.5t22 -47.5q0 -23 -13 -43t-26 -30t-35 -23l-301 -193h-86z" />
<glyph unicode="&#xc2;" horiz-adv-x="1366" d="M35 -4q274 590 641 1434h39q122 -295 172 -415.5t160 -383t178 -413.5t106 -222q-26 4 -108 4q-83 0 -109 -4q-17 58 -51.5 147t-86.5 216.5t-73 179.5q-176 4 -268 4q-82 0 -250 -4q-146 -353 -199 -543q-46 4 -75 4q-30 0 -76 -4zM362 1497l252 342h138l252 -342h-76 l-246 215l-244 -215h-76zM424 633q36 0 110.5 -2t110.5 -2q77 0 229 4l-227 520z" />
<glyph unicode="&#xc3;" horiz-adv-x="1366" d="M35 -4q274 590 641 1434h39q122 -295 172 -415.5t160 -383t178 -413.5t106 -222q-26 4 -108 4q-83 0 -109 -4q-17 58 -51.5 147t-86.5 216.5t-73 179.5q-176 4 -268 4q-82 0 -250 -4q-146 -353 -199 -543q-46 4 -75 4q-30 0 -76 -4zM346 1548q14 84 68.5 147.5 t144.5 63.5q34 0 62.5 -9t87.5 -38q60 -29 85 -38t50 -9q45 0 74.5 28.5t42.5 73.5h59q-5 -31 -17 -63t-36 -70t-68 -62t-102 -24q-63 0 -148 47q-87 47 -133 47t-67.5 -19.5t-40.5 -74.5h-62zM424 633q36 0 110.5 -2t110.5 -2q77 0 229 4l-227 520z" />
<glyph unicode="&#xc4;" horiz-adv-x="1366" d="M35 -4q274 590 641 1434h39q122 -295 172 -415.5t160 -383t178 -413.5t106 -222q-26 4 -108 4q-83 0 -109 -4q-17 58 -51.5 147t-86.5 216.5t-73 179.5q-176 4 -268 4q-82 0 -250 -4q-146 -353 -199 -543q-46 4 -75 4q-30 0 -76 -4zM377 1657q0 43 30.5 73.5t73.5 30.5 t74 -30.5t31 -73.5t-31 -74t-74 -31t-73.5 31t-30.5 74zM424 633q36 0 110.5 -2t110.5 -2q77 0 229 4l-227 520zM780 1657q0 43 31 73.5t74 30.5t73.5 -30.5t30.5 -73.5t-30.5 -74t-73.5 -31t-74 31t-31 74z" />
<glyph unicode="&#xc5;" horiz-adv-x="1366" d="M35 -4q274 590 641 1434h39q122 -295 172 -415.5t160 -383t178 -413.5t106 -222q-26 4 -108 4q-83 0 -109 -4q-17 58 -51.5 147t-86.5 216.5t-73 179.5q-176 4 -268 4q-82 0 -250 -4q-146 -353 -199 -543q-46 4 -75 4q-30 0 -76 -4zM424 633q36 0 110.5 -2t110.5 -2 q77 0 229 4l-227 520zM473 1673q0 86 61.5 147.5t149.5 61.5q86 0 147.5 -61.5t61.5 -147.5t-61.5 -147.5t-149.5 -61.5q-86 0 -147.5 61.5t-61.5 147.5zM559 1673q0 -51 36 -87t87 -36q54 0 89.5 36t35.5 87t-36 87t-87 36q-54 0 -89.5 -36t-35.5 -87z" />
<glyph unicode="&#xc6;" horiz-adv-x="1705" d="M-6 -4q366 535 913 1407q192 -10 346 -10q148 0 340 10q-10 -42 -10 -64q0 -21 10 -63q-55 11 -88 16t-137 10t-266 5q-10 -205 -10 -359v-168q275 0 460 15q-10 -38 -10 -58q0 -19 10 -57q-177 14 -460 14v-207q0 -179 10 -401q354 0 506 23q-11 -42 -11 -60 q0 -27 11 -53q-82 4 -351 4q-272 0 -350 -4q17 176 17 508l-473 12q-156 -254 -287 -520q-54 4 -84 4q-68 0 -86 -4zM496 602l428 -12v653h-23z" />
<glyph unicode="&#xc7;" horiz-adv-x="1366" d="M86 696q0 228 98 395.5t270.5 253t399.5 85.5q230 0 444 -95q-20 -33 -43 -159l-12 -5q-23 27 -57 55.5t-83.5 59t-115 49.5t-133.5 19q-123 0 -225 -40t-179 -118.5t-120 -206t-43 -293.5t43 -293t120 -206t179 -118.5t225 -39.5q69 0 133.5 16.5t121 47.5t88.5 52.5 t73 53.5l8 -8l-18 -121q-42 -38 -164.5 -74.5t-261.5 -36.5h-25l-43 -125q29 11 59 11q79 0 124.5 -39.5t45.5 -106.5q0 -83 -69.5 -128.5t-173.5 -45.5q-86 0 -183 35l29 65q53 -24 147 -24q53 0 88 23t35 63q0 42 -29 62t-75 20q-67 0 -88 -15l-14 15l75 190 q-296 30 -473.5 220t-177.5 507z" />
<glyph unicode="&#xc8;" horiz-adv-x="1024" d="M184 -4q17 370 17 526v352q0 159 -17 529q205 -10 367 -10q159 0 364 10q-6 -30 -6 -62q0 -31 6 -61q-49 3 -145 11t-185 12t-208 4q-1 -28 -4.5 -115.5t-3.5 -144.5q0 -60 1 -156t1 -115q243 0 497 21q-6 -30 -6 -64q0 -31 6 -61q-159 18 -497 18q0 -10 -1 -40t-1 -54 v-80v-123q0 -205 4 -307h143q280 0 410 27q-6 -18 -6 -64q0 -32 6 -53q-82 4 -369 4q-290 0 -373 -4zM225 1786q0 30 22 47.5t46 17.5q43 0 92 -49l301 -305h-86l-301 193q-22 13 -35 23t-26 30t-13 43z" />
<glyph unicode="&#xc9;" horiz-adv-x="1024" d="M184 -4q17 370 17 526v352q0 159 -17 529q205 -10 367 -10q159 0 364 10q-6 -30 -6 -62q0 -31 6 -61q-49 3 -145 11t-185 12t-208 4q-1 -28 -4.5 -115.5t-3.5 -144.5q0 -60 1 -156t1 -115q243 0 497 21q-6 -30 -6 -64q0 -31 6 -61q-159 18 -497 18q0 -10 -1 -40t-1 -54 v-80v-123q0 -205 4 -307h143q280 0 410 27q-6 -18 -6 -64q0 -32 6 -53q-82 4 -369 4q-290 0 -373 -4zM406 1497l301 305q49 49 92 49q23 0 45 -17.5t22 -47.5q0 -33 -20 -54.5t-53 -41.5l-301 -193h-86z" />
<glyph unicode="&#xca;" horiz-adv-x="1024" d="M184 -4q17 370 17 526v352q0 159 -17 529q205 -10 367 -10q159 0 364 10q-6 -30 -6 -62q0 -31 6 -61q-49 3 -145 11t-185 12t-208 4q-1 -28 -4.5 -115.5t-3.5 -144.5q0 -60 1 -156t1 -115q243 0 497 21q-6 -30 -6 -64q0 -31 6 -61q-159 18 -497 18q0 -10 -1 -40t-1 -54 v-80v-123q0 -205 4 -307h143q280 0 410 27q-6 -18 -6 -64q0 -32 6 -53q-82 4 -369 4q-290 0 -373 -4zM225 1497l252 342h137l252 -342h-75l-246 215l-244 -215h-76z" />
<glyph unicode="&#xcb;" horiz-adv-x="1024" d="M184 -4q17 370 17 526v352q0 159 -17 529q205 -10 367 -10q159 0 364 10q-6 -30 -6 -62q0 -31 6 -61q-49 3 -145 11t-185 12t-208 4q-1 -28 -4.5 -115.5t-3.5 -144.5q0 -60 1 -156t1 -115q243 0 497 21q-6 -30 -6 -64q0 -31 6 -61q-159 18 -497 18q0 -10 -1 -40t-1 -54 v-80v-123q0 -205 4 -307h143q280 0 410 27q-6 -18 -6 -64q0 -32 6 -53q-82 4 -369 4q-290 0 -373 -4zM240 1657q0 43 30.5 73.5t73.5 30.5t74 -30.5t31 -73.5t-31 -74t-74 -31t-73.5 31t-30.5 74zM643 1657q0 43 31 73.5t74 30.5t73.5 -30.5t30.5 -73.5t-30.5 -74t-73.5 -31 t-74 31t-31 74z" />
<glyph unicode="&#xcc;" horiz-adv-x="569" d="M-29 1786q0 30 19.5 47.5t42.5 17.5q43 0 92 -49l301 -305h-86l-301 193q-68 41 -68 96zM184 -4q17 361 17 524v352q0 149 -17 531q58 -10 101 -10q42 0 100 10q-16 -360 -16 -531v-352q0 -184 16 -524q-62 4 -100 4q-39 0 -101 -4z" />
<glyph unicode="&#xcd;" horiz-adv-x="569" d="M145 1497l301 305q49 49 93 49q23 0 45 -17.5t22 -47.5q0 -23 -13 -43t-26 -30t-35 -23l-301 -193h-86zM184 -4q17 361 17 524v352q0 149 -17 531q58 -10 101 -10q42 0 100 10q-16 -360 -16 -531v-352q0 -184 16 -524q-62 4 -100 4q-39 0 -101 -4z" />
<glyph unicode="&#xce;" horiz-adv-x="569" d="M-29 1497l246 342h137l252 -342h-76l-245 215l-244 -215h-70zM184 -4q17 361 17 524v352q0 149 -17 531q58 -10 101 -10q42 0 100 10q-16 -360 -16 -531v-352q0 -184 16 -524q-62 4 -100 4q-39 0 -101 -4z" />
<glyph unicode="&#xcf;" horiz-adv-x="569" d="M-14 1657q0 43 28 73.5t70 30.5q43 0 73.5 -30.5t30.5 -73.5t-30.5 -74t-73.5 -31q-42 0 -70 31t-28 74zM184 -4q17 361 17 524v352q0 149 -17 531q58 -10 101 -10q42 0 100 10q-16 -360 -16 -531v-352q0 -184 16 -524q-62 4 -100 4q-39 0 -101 -4zM383 1657 q0 43 30.5 73.5t73.5 30.5t74 -30.5t31 -73.5t-31 -74t-74 -31t-73.5 31t-30.5 74z" />
<glyph unicode="&#xd0;" horiz-adv-x="1593" d="M0 743q4 28 4 43q0 13 -4 41q78 -4 104 -4h97v49q0 149 -17 531q173 -10 310 -10q52 0 154.5 5t154.5 5q676 0 676 -678q0 -159 -47 -287t-122 -208.5t-175 -135t-199.5 -76.5t-202.5 -22q-46 0 -137 2t-137 2q-214 0 -275 -4q17 361 17 524v228h-97q-6 0 -104 -5z M369 520q0 -222 12 -434q81 -20 268 -20q68 0 129.5 8t126.5 28.5t118.5 52.5t101.5 83.5t81 119t52.5 161t19.5 206.5q0 139 -29 243.5t-78.5 170.5t-125 106.5t-159.5 56t-190 15.5q-139 0 -315 -21q-12 -196 -12 -424v-49q268 0 393 6q-6 -21 -6 -43q0 -23 6 -47 q-187 9 -393 9v-228z" />
<glyph unicode="&#xd1;" horiz-adv-x="1593" d="M184 -4q12 66 27.5 377t15.5 508q0 457 -6 549h33q64 -69 331 -359t429.5 -463t275.5 -286v278q0 529 -16 803q45 -10 69 -10q21 0 66 10q-9 -106 -21 -341t-12 -345v-123q0 -96 3 -297.5t3 -259.5v-68h-28q-65 75 -133 152t-151.5 168.5t-138 151.5t-159.5 172 t-143.5 153.5t-161.5 172t-148 157.5q-6 -228 -6 -416q0 -137 6.5 -385.5t12.5 -298.5q-46 4 -72 4q-30 0 -76 -4zM494 1548q14 84 68.5 147.5t144.5 63.5q34 0 62 -9t87 -38q60 -29 85 -38t50 -9q45 0 74.5 28.5t42.5 73.5h59q-5 -31 -17 -63t-36 -70t-68 -62t-102 -24 q-62 0 -147 47q-87 47 -133 47t-68 -19.5t-41 -74.5h-61z" />
<glyph unicode="&#xd2;" horiz-adv-x="1705" d="M86 696q0 171 56.5 310t157.5 231.5t242 142.5t310 50q227 0 399.5 -85.5t270.5 -253t98 -395.5q0 -230 -98 -395.5t-270 -248.5t-400 -83q-227 0 -398.5 83t-269.5 248.5t-98 395.5zM287 696q0 -133 28 -242t78.5 -185.5t121.5 -128.5t155.5 -76.5t181.5 -24.5 q123 0 225 39.5t179 118.5t120 206t43 293t-43 293.5t-120 206t-179 118.5t-225 40q-122 0 -223.5 -40t-178.5 -118.5t-120 -206t-43 -293.5zM532 1786q0 30 22 47.5t46 17.5q43 0 92 -49l301 -305h-86l-301 193q-22 13 -35 23t-26 30t-13 43z" />
<glyph unicode="&#xd3;" horiz-adv-x="1705" d="M86 696q0 171 56.5 310t157.5 231.5t242 142.5t310 50q227 0 399.5 -85.5t270.5 -253t98 -395.5q0 -230 -98 -395.5t-270 -248.5t-400 -83q-227 0 -398.5 83t-269.5 248.5t-98 395.5zM287 696q0 -133 28 -242t78.5 -185.5t121.5 -128.5t155.5 -76.5t181.5 -24.5 q123 0 225 39.5t179 118.5t120 206t43 293t-43 293.5t-120 206t-179 118.5t-225 40q-122 0 -223.5 -40t-178.5 -118.5t-120 -206t-43 -293.5zM713 1497l301 305q49 49 92 49q24 0 46 -17.5t22 -47.5q0 -23 -13 -43t-26 -30t-35 -23l-301 -193h-86z" />
<glyph unicode="&#xd4;" horiz-adv-x="1705" d="M86 696q0 171 56.5 310t157.5 231.5t242 142.5t310 50q227 0 399.5 -85.5t270.5 -253t98 -395.5q0 -230 -98 -395.5t-270 -248.5t-400 -83q-227 0 -398.5 83t-269.5 248.5t-98 395.5zM287 696q0 -133 28 -242t78.5 -185.5t121.5 -128.5t155.5 -76.5t181.5 -24.5 q123 0 225 39.5t179 118.5t120 206t43 293t-43 293.5t-120 206t-179 118.5t-225 40q-122 0 -223.5 -40t-178.5 -118.5t-120 -206t-43 -293.5zM532 1497l252 342h138l252 -342h-76l-246 215l-244 -215h-76z" />
<glyph unicode="&#xd5;" horiz-adv-x="1705" d="M86 696q0 171 56.5 310t157.5 231.5t242 142.5t310 50q227 0 399.5 -85.5t270.5 -253t98 -395.5q0 -230 -98 -395.5t-270 -248.5t-400 -83q-227 0 -398.5 83t-269.5 248.5t-98 395.5zM287 696q0 -133 28 -242t78.5 -185.5t121.5 -128.5t155.5 -76.5t181.5 -24.5 q123 0 225 39.5t179 118.5t120 206t43 293t-43 293.5t-120 206t-179 118.5t-225 40q-122 0 -223.5 -40t-178.5 -118.5t-120 -206t-43 -293.5zM516 1548q14 84 68.5 147.5t144.5 63.5q34 0 62.5 -9t87.5 -38q60 -29 85 -38t50 -9q44 0 73.5 28.5t42.5 73.5h60q-5 -31 -17 -63 t-36 -70t-68 -62t-102 -24q-63 0 -148 47q-87 47 -133 47t-67.5 -19.5t-40.5 -74.5h-62z" />
<glyph unicode="&#xd6;" horiz-adv-x="1705" d="M86 696q0 171 56.5 310t157.5 231.5t242 142.5t310 50q227 0 399.5 -85.5t270.5 -253t98 -395.5q0 -230 -98 -395.5t-270 -248.5t-400 -83q-227 0 -398.5 83t-269.5 248.5t-98 395.5zM287 696q0 -133 28 -242t78.5 -185.5t121.5 -128.5t155.5 -76.5t181.5 -24.5 q123 0 225 39.5t179 118.5t120 206t43 293t-43 293.5t-120 206t-179 118.5t-225 40q-122 0 -223.5 -40t-178.5 -118.5t-120 -206t-43 -293.5zM547 1657q0 43 30.5 73.5t73.5 30.5t74 -30.5t31 -73.5t-31 -74t-74 -31t-73.5 31t-30.5 74zM950 1657q0 43 31 73.5t74 30.5 t73.5 -30.5t30.5 -73.5t-30.5 -74t-73.5 -31t-74 31t-31 74z" />
<glyph unicode="&#xd7;" horiz-adv-x="1241" d="M168 141l377 377l-377 379l76 74l377 -377l378 377l74 -74l-377 -379l377 -377l-74 -75l-378 376l-377 -376z" />
<glyph unicode="&#xd8;" horiz-adv-x="1705" d="M86 696q0 171 56.5 310t157.5 231.5t242 142.5t310 50q298 0 491 -144q43 43 105.5 116t73.5 97q28 -31 57 -49q-34 -23 -190 -199q231 -196 231 -555q0 -230 -98 -395.5t-270 -248.5t-400 -83q-287 0 -485 133q-158 -169 -183 -213q-23 29 -57 50q46 37 192 200 q-233 195 -233 557zM287 696q0 -289 127 -454l846 950q-141 162 -408 162q-122 0 -223.5 -40t-178.5 -118.5t-120 -206t-43 -293.5zM451 197q149 -158 401 -158q123 0 225 39.5t179 118.5t120 206t43 293q0 283 -123 451z" />
<glyph unicode="&#xd9;" horiz-adv-x="1593" d="M193 1403q55 -10 106 -10q36 0 88 10q-25 -302 -25 -703q0 -63 0.5 -96.5t4.5 -96t12 -99t23.5 -90t38 -85t57 -69t79 -57.5t106.5 -34t136 -14q93 0 166 26t119.5 62t79.5 99.5t49 113.5t24.5 131.5t9.5 125t1 120.5q0 562 -13 666q52 -10 84 -10q24 0 62 10 q-26 -311 -37 -850q-5 -278 -156.5 -431t-427.5 -153q-306 0 -445.5 139t-139.5 441q0 68 5 171t5 152q0 285 -12 531zM477 1786q0 30 22 47.5t46 17.5q43 0 92 -49l301 -305h-86l-301 193q-22 13 -35 23t-26 30t-13 43z" />
<glyph unicode="&#xda;" horiz-adv-x="1593" d="M193 1403q55 -10 106 -10q36 0 88 10q-25 -302 -25 -703q0 -63 0.5 -96.5t4.5 -96t12 -99t23.5 -90t38 -85t57 -69t79 -57.5t106.5 -34t136 -14q93 0 166 26t119.5 62t79.5 99.5t49 113.5t24.5 131.5t9.5 125t1 120.5q0 562 -13 666q52 -10 84 -10q24 0 62 10 q-26 -311 -37 -850q-5 -278 -156.5 -431t-427.5 -153q-306 0 -445.5 139t-139.5 441q0 68 5 171t5 152q0 285 -12 531zM657 1497l301 305q49 49 93 49q23 0 45 -17.5t22 -47.5q0 -23 -13 -43t-26 -30t-35 -23l-301 -193h-86z" />
<glyph unicode="&#xdb;" horiz-adv-x="1593" d="M193 1403q55 -10 106 -10q36 0 88 10q-25 -302 -25 -703q0 -63 0.5 -96.5t4.5 -96t12 -99t23.5 -90t38 -85t57 -69t79 -57.5t106.5 -34t136 -14q93 0 166 26t119.5 62t79.5 99.5t49 113.5t24.5 131.5t9.5 125t1 120.5q0 562 -13 666q52 -10 84 -10q24 0 62 10 q-26 -311 -37 -850q-5 -278 -156.5 -431t-427.5 -153q-306 0 -445.5 139t-139.5 441q0 68 5 171t5 152q0 285 -12 531zM477 1497l252 342h137l252 -342h-76l-245 215l-244 -215h-76z" />
<glyph unicode="&#xdc;" horiz-adv-x="1593" d="M193 1403q55 -10 106 -10q36 0 88 10q-25 -302 -25 -703q0 -63 0.5 -96.5t4.5 -96t12 -99t23.5 -90t38 -85t57 -69t79 -57.5t106.5 -34t136 -14q93 0 166 26t119.5 62t79.5 99.5t49 113.5t24.5 131.5t9.5 125t1 120.5q0 562 -13 666q52 -10 84 -10q24 0 62 10 q-26 -311 -37 -850q-5 -278 -156.5 -431t-427.5 -153q-306 0 -445.5 139t-139.5 441q0 68 5 171t5 152q0 285 -12 531zM492 1657q0 43 30.5 73.5t73.5 30.5t73.5 -30.5t30.5 -73.5t-30.5 -74t-73.5 -31t-73.5 31t-30.5 74zM895 1657q0 43 30.5 73.5t73.5 30.5t74 -30.5 t31 -73.5t-31 -74t-74 -31t-73.5 31t-30.5 74z" />
<glyph unicode="&#xdd;" horiz-adv-x="1251" d="M45 1403q65 -10 113 -10q47 0 112 10q141 -273 389 -709q205 321 388 709q58 -10 79 -10q22 0 80 10q-367 -559 -495 -809q0 -414 16 -598q-62 4 -100 4q-39 0 -101 -4q17 150 17 575q-450 755 -498 832zM485 1477l301 305q49 49 93 49q23 0 45 -18t22 -48q0 -23 -13 -43 t-26 -30t-35 -23l-301 -192h-86z" />
<glyph unicode="&#xde;" d="M184 -4q17 361 17 524v352q0 149 -17 531q58 -10 101 -10q42 0 100 10q-16 -180 -16 -268h252q442 0 442 -357q0 -87 -30 -155.5t-78 -111t-115 -70.5t-136 -39t-145 -11q-114 0 -190 8v-114q0 -242 16 -289q-62 4 -100 4q-39 0 -101 -4zM369 475q44 -8 159 -8 q67 0 127.5 19t110 55.5t79 97t29.5 137.5q0 55 -17 103.5t-53 90t-101 65.5t-152 24h-182v-584z" />
<glyph unicode="&#xdf;" d="M162 -4q16 203 16 584v251q0 78 -3 161.5t-3 86.5q0 97 26 177.5t68.5 133t97.5 89t111.5 52t112.5 15.5q65 0 133 -28t117 -82.5t49 -120.5q0 -58 -25 -114t-60.5 -98.5t-71 -81.5t-60.5 -78t-25 -73q0 -38 24 -72.5t62 -62.5t84.5 -57t93 -61.5t84.5 -69t62 -87 t24 -108.5q0 -68 -33 -136.5t-87 -121.5t-128.5 -86t-152.5 -33q-121 0 -205 41q25 43 37 121h10q24 -38 81 -65t118 -27q90 0 155.5 60.5t65.5 156.5q0 53 -24 99.5t-62 81t-84.5 67t-93 64t-84.5 64t-62 74t-24 87.5q0 43 28 89.5t68.5 90t81 89.5t68.5 104t28 118 q0 84 -53 137.5t-149 53.5q-136 0 -192 -103.5t-56 -316.5v-481q0 -381 16 -584q-62 4 -92 4t-92 -4z" />
<glyph unicode="&#xe0;" horiz-adv-x="1024" d="M86 221q0 231 289 281q79 13 126 21.5t85 19.5t54.5 18t27.5 21.5t12.5 26.5t1.5 36q0 113 -55 185.5t-170 72.5q-83 0 -153 -37t-105 -102h-23v106q88 66 166 92.5t164 26.5q148 0 240 -83.5t92 -219.5q0 -76 -4.5 -232.5t-4.5 -244.5q0 -28 0.5 -43t4.5 -39t12 -37 t24 -23t39 -10q27 0 43 9v-46q-49 -22 -131 -22q-64 0 -99.5 32.5t-41.5 88.5q-76 -76 -148.5 -110t-173.5 -34q-111 0 -191.5 65.5t-80.5 180.5zM193 1434q0 30 22 47.5t45 17.5q43 0 92 -49l301 -305h-86l-301 192q-73 44 -73 97zM254 250q0 -92 52.5 -143.5t125.5 -51.5 q74 0 139 41.5t103 102.5l8 307q-32 -11 -97 -23t-116 -24t-103.5 -34.5t-82 -66.5t-29.5 -108z" />
<glyph unicode="&#xe1;" horiz-adv-x="1024" d="M86 221q0 231 289 281q79 13 126 21.5t85 19.5t54.5 18t27.5 21.5t12.5 26.5t1.5 36q0 113 -55 185.5t-170 72.5q-83 0 -153 -37t-105 -102h-23v106q88 66 166 92.5t164 26.5q148 0 240 -83.5t92 -219.5q0 -76 -4.5 -232.5t-4.5 -244.5q0 -28 0.5 -43t4.5 -39t12 -37 t24 -23t39 -10q27 0 43 9v-46q-49 -22 -131 -22q-64 0 -99.5 32.5t-41.5 88.5q-76 -76 -148.5 -110t-173.5 -34q-111 0 -191.5 65.5t-80.5 180.5zM254 250q0 -92 52.5 -143.5t125.5 -51.5q74 0 139 41.5t103 102.5l8 307q-32 -11 -97 -23t-116 -24t-103.5 -34.5t-82 -66.5 t-29.5 -108zM373 1145l301 305q49 49 92 49q24 0 46 -17.5t22 -47.5q0 -33 -20.5 -55t-53.5 -42l-301 -192h-86z" />
<glyph unicode="&#xe2;" horiz-adv-x="1024" d="M86 221q0 231 289 281q79 13 126 21.5t85 19.5t54.5 18t27.5 21.5t12.5 26.5t1.5 36q0 113 -55 185.5t-170 72.5q-83 0 -153 -37t-105 -102h-23v106q88 66 166 92.5t164 26.5q148 0 240 -83.5t92 -219.5q0 -76 -4.5 -232.5t-4.5 -244.5q0 -28 0.5 -43t4.5 -39t12 -37 t24 -23t39 -10q27 0 43 9v-46q-49 -22 -131 -22q-64 0 -99.5 32.5t-41.5 88.5q-76 -76 -148.5 -110t-173.5 -34q-111 0 -191.5 65.5t-80.5 180.5zM193 1145l251 342h138l252 -342h-76l-246 215l-244 -215h-75zM254 250q0 -92 52.5 -143.5t125.5 -51.5q74 0 139 41.5 t103 102.5l8 307q-32 -11 -97 -23t-116 -24t-103.5 -34.5t-82 -66.5t-29.5 -108z" />
<glyph unicode="&#xe3;" horiz-adv-x="1024" d="M86 221q0 231 289 281q79 13 126 21.5t85 19.5t54.5 18t27.5 21.5t12.5 26.5t1.5 36q0 113 -55 185.5t-170 72.5q-83 0 -153 -37t-105 -102h-23v106q88 66 166 92.5t164 26.5q148 0 240 -83.5t92 -219.5q0 -76 -4.5 -232.5t-4.5 -244.5q0 -28 0.5 -43t4.5 -39t12 -37 t24 -23t39 -10q27 0 43 9v-46q-49 -22 -131 -22q-64 0 -99.5 32.5t-41.5 88.5q-76 -76 -148.5 -110t-173.5 -34q-111 0 -191.5 65.5t-80.5 180.5zM176 1196q14 84 68.5 147.5t144.5 63.5q34 0 62.5 -9t87.5 -38q60 -29 85 -38t50 -9q45 0 74.5 28.5t42.5 73.5h59 q-5 -31 -17 -63t-36 -70t-68 -62t-102 -24q-63 0 -148 47q-87 47 -133 47t-67.5 -19.5t-40.5 -74.5h-62zM254 250q0 -92 52.5 -143.5t125.5 -51.5q74 0 139 41.5t103 102.5l8 307q-32 -11 -97 -23t-116 -24t-103.5 -34.5t-82 -66.5t-29.5 -108z" />
<glyph unicode="&#xe4;" horiz-adv-x="1024" d="M86 221q0 231 289 281q79 13 126 21.5t85 19.5t54.5 18t27.5 21.5t12.5 26.5t1.5 36q0 113 -55 185.5t-170 72.5q-83 0 -153 -37t-105 -102h-23v106q88 66 166 92.5t164 26.5q148 0 240 -83.5t92 -219.5q0 -76 -4.5 -232.5t-4.5 -244.5q0 -28 0.5 -43t4.5 -39t12 -37 t24 -23t39 -10q27 0 43 9v-46q-49 -22 -131 -22q-64 0 -99.5 32.5t-41.5 88.5q-76 -76 -148.5 -110t-173.5 -34q-111 0 -191.5 65.5t-80.5 180.5zM207 1305q0 43 30.5 73.5t73.5 30.5t74 -30.5t31 -73.5t-31 -74t-74 -31t-73.5 31t-30.5 74zM254 250q0 -92 52.5 -143.5 t125.5 -51.5q74 0 139 41.5t103 102.5l8 307q-32 -11 -97 -23t-116 -24t-103.5 -34.5t-82 -66.5t-29.5 -108zM610 1305q0 43 31 73.5t74 30.5t73.5 -30.5t30.5 -73.5t-30.5 -74t-73.5 -31t-74 31t-31 74z" />
<glyph unicode="&#xe5;" horiz-adv-x="1024" d="M86 221q0 231 289 281q79 13 126 21.5t85 19.5t54.5 18t27.5 21.5t12.5 26.5t1.5 36q0 113 -55 185.5t-170 72.5q-83 0 -153 -37t-105 -102h-23v106q88 66 166 92.5t164 26.5q148 0 240 -83.5t92 -219.5q0 -76 -4.5 -232.5t-4.5 -244.5q0 -28 0.5 -43t4.5 -39t12 -37 t24 -23t39 -10q27 0 43 9v-46q-49 -22 -131 -22q-64 0 -99.5 32.5t-41.5 88.5q-76 -76 -148.5 -110t-173.5 -34q-111 0 -191.5 65.5t-80.5 180.5zM254 250q0 -92 52.5 -143.5t125.5 -51.5q74 0 139 41.5t103 102.5l8 307q-32 -11 -97 -23t-116 -24t-103.5 -34.5t-82 -66.5 t-29.5 -108zM303 1321q0 86 61.5 147.5t149.5 61.5q86 0 147.5 -61.5t61.5 -147.5t-61.5 -147.5t-149.5 -61.5q-86 0 -147.5 61.5t-61.5 147.5zM389 1321q0 -51 36 -87t87 -36q54 0 89.5 36t35.5 87t-36 87t-87 36q-54 0 -89.5 -36t-35.5 -87z" />
<glyph unicode="&#xe6;" horiz-adv-x="1593" d="M72 221q0 231 288 281q79 13 126 21.5t85 19t55 18t28 22t12.5 26.5t1.5 36q0 53 -12.5 98.5t-38.5 82t-71 57t-104 20.5q-83 0 -153 -37t-105 -102h-22v106q88 66 166 92.5t164 26.5q194 0 307 -153q115 153 311 153q105 0 187 -33t133 -91t77.5 -132.5t26.5 -161.5 q0 -25 -4 -79q-49 1 -138 2.5t-162 2.5t-138 1q-40 0 -85 -1t-99.5 -2.5t-84.5 -2.5q-2 -6 -2 -31v-27q0 -165 95 -272t260 -107q80 0 166 41.5t141 104.5l10 -6l-12 -101q-65 -52 -156.5 -85.5t-185.5 -33.5q-150 0 -260 60.5t-160 177.5q-86 -238 -375 -238 q-111 0 -191.5 65.5t-80.5 180.5zM240 250q0 -88 52.5 -141.5t139.5 -53.5q90 0 157.5 57t74.5 160q4 47 4 130.5v103.5q-32 -11 -97 -23t-116 -24t-103.5 -34.5t-82 -66.5t-29.5 -108zM827 569q252 -6 267 -6q8 0 272 6q0 49 -5.5 93.5t-22 94t-43.5 85t-73.5 59 t-107.5 23.5q-58 0 -106 -23t-79.5 -59.5t-54 -84.5t-33.5 -94.5t-14 -93.5z" />
<glyph unicode="&#xe7;" horiz-adv-x="1024" d="M86 479q0 103 29 188.5t79 144t117 99.5t142 59.5t155 18.5q108 0 199 -26.5t131 -63.5q-33 -74 -45 -135h-16q-32 61 -103 110.5t-160 49.5q-177 0 -262.5 -121t-85.5 -322q0 -210 90.5 -318t264.5 -108q80 0 166 41.5t141 104.5l10 -6q-9 -50 -12 -101 q-59 -49 -143.5 -81t-174.5 -36l-43 -120q27 10 60 10q79 0 124.5 -39.5t45.5 -106.5q0 -83 -70 -128.5t-174 -45.5q-85 0 -182 35l28 66q55 -25 148 -25q53 0 88 23t35 63q0 42 -29.5 62t-75.5 20q-68 0 -88 -14l-14 14l71 189q-87 6 -163.5 36.5t-141.5 87.5t-103 153.5 t-38 221.5z" />
<glyph unicode="&#xe8;" horiz-adv-x="1024" d="M72 451q0 255 121 396.5t348 141.5q105 0 187 -33t133 -91t77.5 -132.5t26.5 -161.5q0 -25 -4 -79q-49 1 -138.5 2.5t-162.5 2.5t-138 1q-40 0 -84.5 -1t-99 -2.5t-84.5 -2.5q-2 -6 -2 -31v-27q0 -165 94.5 -272t259.5 -107q80 0 166 41.5t141 104.5l11 -6l-13 -101 q-65 -52 -156.5 -85.5t-185.5 -33.5q-221 0 -359 133t-138 343zM225 1434q0 30 22 47.5t46 17.5q43 0 92 -49l301 -305h-86l-301 192q-21 13 -34.5 23.5t-26.5 30.5t-13 43zM258 569q252 -6 266 -6q9 0 273 6q0 49 -5.5 93.5t-22 94t-43.5 85t-73.5 59t-107.5 23.5 q-58 0 -106 -23t-79.5 -59.5t-54 -84.5t-33.5 -94.5t-14 -93.5z" />
<glyph unicode="&#xe9;" horiz-adv-x="1024" d="M72 451q0 255 121 396.5t348 141.5q105 0 187 -33t133 -91t77.5 -132.5t26.5 -161.5q0 -25 -4 -79q-49 1 -138.5 2.5t-162.5 2.5t-138 1q-40 0 -84.5 -1t-99 -2.5t-84.5 -2.5q-2 -6 -2 -31v-27q0 -165 94.5 -272t259.5 -107q80 0 166 41.5t141 104.5l11 -6l-13 -101 q-65 -52 -156.5 -85.5t-185.5 -33.5q-221 0 -359 133t-138 343zM258 569q252 -6 266 -6q9 0 273 6q0 49 -5.5 93.5t-22 94t-43.5 85t-73.5 59t-107.5 23.5q-58 0 -106 -23t-79.5 -59.5t-54 -84.5t-33.5 -94.5t-14 -93.5zM406 1145l301 305q49 49 92 49q23 0 45 -17.5 t22 -47.5q0 -53 -73 -97l-301 -192h-86z" />
<glyph unicode="&#xea;" horiz-adv-x="1024" d="M72 451q0 255 121 396.5t348 141.5q105 0 187 -33t133 -91t77.5 -132.5t26.5 -161.5q0 -25 -4 -79q-49 1 -138.5 2.5t-162.5 2.5t-138 1q-40 0 -84.5 -1t-99 -2.5t-84.5 -2.5q-2 -6 -2 -31v-27q0 -165 94.5 -272t259.5 -107q80 0 166 41.5t141 104.5l11 -6l-13 -101 q-65 -52 -156.5 -85.5t-185.5 -33.5q-221 0 -359 133t-138 343zM225 1145l252 342h137l252 -342h-75l-246 215l-244 -215h-76zM258 569q252 -6 266 -6q9 0 273 6q0 49 -5.5 93.5t-22 94t-43.5 85t-73.5 59t-107.5 23.5q-58 0 -106 -23t-79.5 -59.5t-54 -84.5t-33.5 -94.5 t-14 -93.5z" />
<glyph unicode="&#xeb;" horiz-adv-x="1024" d="M72 451q0 255 121 396.5t348 141.5q105 0 187 -33t133 -91t77.5 -132.5t26.5 -161.5q0 -25 -4 -79q-49 1 -138.5 2.5t-162.5 2.5t-138 1q-40 0 -84.5 -1t-99 -2.5t-84.5 -2.5q-2 -6 -2 -31v-27q0 -165 94.5 -272t259.5 -107q80 0 166 41.5t141 104.5l11 -6l-13 -101 q-65 -52 -156.5 -85.5t-185.5 -33.5q-221 0 -359 133t-138 343zM240 1305q0 43 30.5 73.5t73.5 30.5t74 -30.5t31 -73.5t-31 -74t-74 -31t-73.5 31t-30.5 74zM258 569q252 -6 266 -6q9 0 273 6q0 49 -5.5 93.5t-22 94t-43.5 85t-73.5 59t-107.5 23.5q-58 0 -106 -23 t-79.5 -59.5t-54 -84.5t-33.5 -94.5t-14 -93.5zM643 1305q0 43 31 73.5t74 30.5t73.5 -30.5t30.5 -73.5t-30.5 -74t-73.5 -31t-74 31t-31 74z" />
<glyph unicode="&#xec;" horiz-adv-x="569" d="M-29 1434q0 30 19.5 47.5t42.5 17.5q43 0 92 -49l301 -305h-86l-301 192q-68 41 -68 97zM193 -4q16 125 16 377v213q0 249 -16 383q72 -11 92 -11q21 0 92 11q-17 -142 -17 -383v-213q0 -245 17 -377q-62 4 -92 4t-92 -4z" />
<glyph unicode="&#xed;" horiz-adv-x="569" d="M145 1145l301 305q49 49 93 49q23 0 45 -17.5t22 -47.5q0 -33 -20.5 -55t-53.5 -42l-301 -192h-86zM193 -4q16 125 16 377v213q0 249 -16 383q72 -11 92 -11q21 0 92 11q-17 -142 -17 -383v-213q0 -245 17 -377q-62 4 -92 4t-92 -4z" />
<glyph unicode="&#xee;" horiz-adv-x="569" d="M-29 1145l246 342h137l252 -342h-76l-245 215l-244 -215h-70zM193 -4q16 125 16 377v213q0 249 -16 383q72 -11 92 -11q21 0 92 11q-17 -142 -17 -383v-213q0 -245 17 -377q-62 4 -92 4t-92 -4z" />
<glyph unicode="&#xef;" horiz-adv-x="569" d="M-14 1305q0 43 28 73.5t70 30.5q43 0 73.5 -30.5t30.5 -73.5t-30.5 -74t-73.5 -31q-42 0 -70 31t-28 74zM193 -4q16 125 16 377v213q0 249 -16 383q72 -11 92 -11q21 0 92 11q-17 -142 -17 -383v-213q0 -245 17 -377q-62 4 -92 4t-92 -4zM383 1305q0 43 30.5 73.5 t73.5 30.5t74 -30.5t31 -73.5t-31 -74t-74 -31t-73.5 31t-30.5 74z" />
<glyph unicode="&#xf0;" d="M72 479q0 108 29 195.5t77 145t113 96.5t134.5 56t143.5 17q68 0 101 -14l4 4q-156 171 -262 268l-267 -92q-13 27 -43 74q15 4 109.5 29.5t146.5 41.5q-86 81 -249 209l143 37q204 -150 262 -198q179 58 258 90q14 -35 43 -72q-161 -42 -244 -68q261 -220 378.5 -415.5 t117.5 -403.5q0 -109 -29 -196.5t-77.5 -144t-114 -94t-134 -53.5t-143.5 -16q-95 0 -179 26.5t-157.5 83t-117 158t-43.5 236.5zM252 479q0 -91 16 -167t51 -140t99 -100.5t151 -36.5t151 36.5t99.5 100.5t51.5 140t16 167t-16 167t-51.5 140.5t-99.5 101t-151 36.5 q-70 0 -125.5 -24.5t-91 -66t-58.5 -99.5t-32.5 -120.5t-9.5 -134.5z" />
<glyph unicode="&#xf1;" d="M156 -4q16 125 16 377v213q0 249 -16 383q72 -11 92 -11q18 0 82 11q-6 -82 -6 -164h4q120 184 327 184q49 0 93.5 -9.5t88.5 -34.5t75.5 -64t51 -102.5t19.5 -145.5q0 -56 -4 -181.5t-4 -197.5v-133q0 -47 4 -125q-54 4 -86 4q-30 0 -84 -4q14 329 14 450v125 q0 152 -58.5 232t-164.5 80q-276 0 -276 -336v-174q0 -252 16 -377q-62 4 -92 4t-92 -4zM233 1196q14 84 68.5 147.5t144.5 63.5q34 0 62.5 -9t87.5 -38q60 -29 85 -38t50 -9q45 0 74.5 28.5t42.5 73.5h59q-5 -31 -17 -63t-36 -70t-68 -62t-102 -24q-62 0 -147 47 q-87 47 -134 47q-46 0 -67.5 -19.5t-40.5 -74.5h-62z" />
<glyph unicode="&#xf2;" d="M72 479q0 108 29 195.5t77 145t113 96.5t134.5 56t143.5 17t143.5 -17t134.5 -56t113.5 -96.5t77.5 -145.5t29 -195q0 -109 -29 -196.5t-77.5 -144t-114 -94t-134 -53.5t-143.5 -16q-95 0 -179 26.5t-157.5 83t-117 158t-43.5 236.5zM250 1434q0 30 22 47.5t45 17.5 q44 0 93 -49l301 -305h-86l-301 192q-21 13 -34.5 23.5t-26.5 30.5t-13 43zM252 479q0 -91 16 -167t51 -140t99 -100.5t151 -36.5t151 36.5t99.5 100.5t51.5 140t16 167t-16 167t-51.5 140.5t-99.5 101t-151 36.5q-70 0 -125.5 -24.5t-91 -66t-58.5 -99.5t-32.5 -120.5 t-9.5 -134.5z" />
<glyph unicode="&#xf3;" d="M72 479q0 108 29 195.5t77 145t113 96.5t134.5 56t143.5 17t143.5 -17t134.5 -56t113.5 -96.5t77.5 -145.5t29 -195q0 -109 -29 -196.5t-77.5 -144t-114 -94t-134 -53.5t-143.5 -16q-95 0 -179 26.5t-157.5 83t-117 158t-43.5 236.5zM252 479q0 -91 16 -167t51 -140 t99 -100.5t151 -36.5t151 36.5t99.5 100.5t51.5 140t16 167t-16 167t-51.5 140.5t-99.5 101t-151 36.5q-70 0 -125.5 -24.5t-91 -66t-58.5 -99.5t-32.5 -120.5t-9.5 -134.5zM430 1145l301 305q49 49 92 49q24 0 46 -17.5t22 -47.5q0 -33 -20.5 -55t-53.5 -42l-301 -192h-86z " />
<glyph unicode="&#xf4;" d="M72 479q0 108 29 195.5t77 145t113 96.5t134.5 56t143.5 17t143.5 -17t134.5 -56t113.5 -96.5t77.5 -145.5t29 -195q0 -109 -29 -196.5t-77.5 -144t-114 -94t-134 -53.5t-143.5 -16q-95 0 -179 26.5t-157.5 83t-117 158t-43.5 236.5zM250 1145l252 342h137l252 -342h-76 l-246 215l-243 -215h-76zM252 479q0 -91 16 -167t51 -140t99 -100.5t151 -36.5t151 36.5t99.5 100.5t51.5 140t16 167t-16 167t-51.5 140.5t-99.5 101t-151 36.5q-70 0 -125.5 -24.5t-91 -66t-58.5 -99.5t-32.5 -120.5t-9.5 -134.5z" />
<glyph unicode="&#xf5;" d="M72 479q0 108 29 195.5t77 145t113 96.5t134.5 56t143.5 17t143.5 -17t134.5 -56t113.5 -96.5t77.5 -145.5t29 -195q0 -109 -29 -196.5t-77.5 -144t-114 -94t-134 -53.5t-143.5 -16q-95 0 -179 26.5t-157.5 83t-117 158t-43.5 236.5zM233 1196q14 84 68.5 147.5 t144.5 63.5q34 0 62.5 -9t87.5 -38q60 -29 85 -38t50 -9q45 0 74.5 28.5t42.5 73.5h59q-5 -31 -17 -63t-36 -70t-68 -62t-102 -24q-62 0 -147 47q-87 47 -134 47q-46 0 -67.5 -19.5t-40.5 -74.5h-62zM252 479q0 -91 16 -167t51 -140t99 -100.5t151 -36.5t151 36.5 t99.5 100.5t51.5 140t16 167t-16 167t-51.5 140.5t-99.5 101t-151 36.5q-70 0 -125.5 -24.5t-91 -66t-58.5 -99.5t-32.5 -120.5t-9.5 -134.5z" />
<glyph unicode="&#xf6;" d="M72 479q0 108 29 195.5t77 145t113 96.5t134.5 56t143.5 17t143.5 -17t134.5 -56t113.5 -96.5t77.5 -145.5t29 -195q0 -109 -29 -196.5t-77.5 -144t-114 -94t-134 -53.5t-143.5 -16q-95 0 -179 26.5t-157.5 83t-117 158t-43.5 236.5zM252 479q0 -91 16 -167t51 -140 t99 -100.5t151 -36.5t151 36.5t99.5 100.5t51.5 140t16 167t-16 167t-51.5 140.5t-99.5 101t-151 36.5q-70 0 -125.5 -24.5t-91 -66t-58.5 -99.5t-32.5 -120.5t-9.5 -134.5zM264 1305q0 43 31 73.5t74 30.5t73.5 -30.5t30.5 -73.5t-30.5 -74t-73.5 -31t-74 31t-31 74z M668 1305q0 43 30.5 73.5t73.5 30.5t74 -30.5t31 -73.5t-31 -74t-74 -31t-73.5 31t-30.5 74z" />
<glyph unicode="&#xf7;" horiz-adv-x="1241" d="M102 465v106h1037v-106h-1037zM504 117q0 47 35 81.5t82 34.5t81.5 -34.5t34.5 -81.5t-34.5 -82t-81.5 -35t-82 35t-35 82zM504 920q0 47 35 81.5t82 34.5t81.5 -34.5t34.5 -81.5t-34.5 -82t-81.5 -35t-82 35t-35 82z" />
<glyph unicode="&#xf8;" d="M35 -47q50 36 160 166q-123 140 -123 360q0 108 29 195.5t77 145t113 96.5t134.5 56t143.5 17q187 0 318 -98q127 137 143 168q21 -30 51 -45q-36 -26 -153 -158q139 -139 139 -377q0 -109 -29 -196.5t-77.5 -144t-114 -94t-134 -53.5t-143.5 -16q-199 0 -329 103 q-31 -35 -84.5 -91.5t-69.5 -76.5q-21 30 -51 43zM252 479q0 -156 41 -254l516 576q-78 123 -240 123q-70 0 -125.5 -24.5t-91 -66t-58.5 -99.5t-32.5 -120.5t-9.5 -134.5zM319 170q81 -135 250 -135q87 0 151 36.5t99.5 100.5t51.5 140t16 167q0 176 -51 275z" />
<glyph unicode="&#xf9;" d="M156 305q0 78 3 186t3 152q0 96 -4 326q64 -11 86 -11q20 0 84 11q-21 -246 -21 -570q0 -176 64 -247q69 -76 176 -76q83 0 142 36.5t85 94.5q22 51 29 83.5t10.5 102t3.5 240.5v172q0 66 -4 164q57 -11 86 -11q35 0 84 11q-14 -213 -14 -623q0 -205 8 -350q-54 4 -80 4 t-80 -4q4 50 4 82v88h-4q-53 -96 -135.5 -143.5t-183.5 -47.5q-161 0 -251.5 86t-90.5 244zM250 1434q0 30 22 47.5t45 17.5q44 0 93 -49l301 -305h-86l-301 192q-21 13 -34.5 23.5t-26.5 30.5t-13 43z" />
<glyph unicode="&#xfa;" d="M156 305q0 78 3 186t3 152q0 96 -4 326q64 -11 86 -11q20 0 84 11q-21 -246 -21 -570q0 -176 64 -247q69 -76 176 -76q83 0 142 36.5t85 94.5q22 51 29 83.5t10.5 102t3.5 240.5v172q0 66 -4 164q57 -11 86 -11q35 0 84 11q-14 -213 -14 -623q0 -205 8 -350q-54 4 -80 4 t-80 -4q4 50 4 82v88h-4q-53 -96 -135.5 -143.5t-183.5 -47.5q-161 0 -251.5 86t-90.5 244zM430 1145l301 305q49 49 92 49q24 0 46 -17.5t22 -47.5q0 -33 -20.5 -55t-53.5 -42l-301 -192h-86z" />
<glyph unicode="&#xfb;" d="M156 305q0 78 3 186t3 152q0 96 -4 326q64 -11 86 -11q20 0 84 11q-21 -246 -21 -570q0 -176 64 -247q69 -76 176 -76q83 0 142 36.5t85 94.5q22 51 29 83.5t10.5 102t3.5 240.5v172q0 66 -4 164q57 -11 86 -11q35 0 84 11q-14 -213 -14 -623q0 -205 8 -350q-54 4 -80 4 t-80 -4q4 50 4 82v88h-4q-53 -96 -135.5 -143.5t-183.5 -47.5q-161 0 -251.5 86t-90.5 244zM250 1145l252 342h137l252 -342h-76l-246 215l-243 -215h-76z" />
<glyph unicode="&#xfc;" d="M156 305q0 78 3 186t3 152q0 96 -4 326q64 -11 86 -11q20 0 84 11q-21 -246 -21 -570q0 -176 64 -247q69 -76 176 -76q83 0 142 36.5t85 94.5q22 51 29 83.5t10.5 102t3.5 240.5v172q0 66 -4 164q57 -11 86 -11q35 0 84 11q-14 -213 -14 -623q0 -205 8 -350q-54 4 -80 4 t-80 -4q4 50 4 82v88h-4q-53 -96 -135.5 -143.5t-183.5 -47.5q-161 0 -251.5 86t-90.5 244zM264 1305q0 43 31 73.5t74 30.5t73.5 -30.5t30.5 -73.5t-30.5 -74t-73.5 -31t-74 31t-31 74zM668 1305q0 43 30.5 73.5t73.5 30.5t74 -30.5t31 -73.5t-31 -74t-74 -31t-73.5 31 t-30.5 74z" />
<glyph unicode="&#xfd;" horiz-adv-x="1024" d="M45 969q64 -11 94 -11t94 11q84 -262 306 -787q169 353 305 787q50 -11 67 -11q19 0 68 11q-87 -175 -344.5 -753t-315.5 -759q-49 11 -69 11t-70 -11q151 247 275 537q-67 166 -216.5 521t-193.5 454zM373 1145l301 305q49 49 92 49q24 0 46 -17.5t22 -47.5 q0 -33 -20.5 -55t-53.5 -42l-301 -192h-86z" />
<glyph unicode="&#xfe;" d="M117 -543q16 216 16 584v909q0 371 -16 590q65 -10 92 -10t92 10q-16 -219 -16 -590v-182h4q16 37 42 71.5t67 70.5t102.5 57.5t134.5 21.5q81 0 154 -30.5t133 -89.5t95.5 -158.5t35.5 -225.5q0 -127 -38.5 -227.5t-103 -160.5t-141.5 -91t-160 -31q-226 0 -321 195h-4 v-129q0 -368 16 -584q-71 11 -92 11t-92 -11zM285 471q0 -426 299 -426q95 0 161.5 59.5t96.5 157.5t30 225q0 95 -17 169t-44 119.5t-64.5 75t-75.5 41t-81 11.5q-80 0 -140.5 -34t-95.5 -94t-52 -136t-17 -168z" />
<glyph unicode="&#xff;" horiz-adv-x="1024" d="M45 969q64 -11 94 -11t94 11q84 -262 306 -787q169 353 305 787q50 -11 67 -11q19 0 68 11q-87 -175 -344.5 -753t-315.5 -759q-49 11 -69 11t-70 -11q151 247 275 537q-67 166 -216.5 521t-193.5 454zM207 1305q0 43 30.5 73.5t73.5 30.5t74 -30.5t31 -73.5t-31 -74 t-74 -31t-73.5 31t-30.5 74zM610 1305q0 43 31 73.5t74 30.5t73.5 -30.5t30.5 -73.5t-30.5 -74t-73.5 -31t-74 31t-31 74z" />
<glyph unicode="&#x152;" horiz-adv-x="2048" d="M86 672q0 181 55.5 325.5t155 238.5t234 144t294.5 50q98 0 182.5 -19t135.5 -42t97 -60.5t64 -57.5t39 -49l5 4q0 98 -9 197q192 -10 336 -10q140 0 332 10q-10 -42 -10 -64q0 -21 10 -63q-55 11 -88 16t-137 10t-266 5q-11 -226 -11 -359v-168q276 0 461 15 q-10 -38 -10 -58q0 -19 10 -57q-177 14 -461 14v-207q0 -157 11 -401q353 0 505 23q-10 -38 -10 -60q0 -30 10 -53q-77 4 -344 4q-268 0 -350 -4q10 98 10 194l-4 5q-43 -46 -84 -79t-106.5 -70t-154.5 -57t-197 -20q-146 0 -274 48t-224 136t-151.5 222t-55.5 297zM287 696 q0 -165 42.5 -293t116.5 -206t169 -118t206 -40q244 0 388.5 180t144.5 477q0 141 -25.5 253t-70.5 187t-110 124.5t-140 71.5t-164 22q-119 0 -218.5 -40t-176 -118.5t-119.5 -206.5t-43 -293z" />
<glyph unicode="&#x153;" horiz-adv-x="1820" d="M72 479q0 108 29 195.5t77 145t113 96.5t134.5 56t143.5 17q119 0 224.5 -44t171.5 -134q124 178 372 178q105 0 187 -33t133 -91t77.5 -132.5t26.5 -161.5q0 -25 -4 -79q-49 1 -138 2.5t-162 2.5t-138 1q-40 0 -84.5 -1t-99 -2.5t-84.5 -2.5q-2 -6 -2 -31v-27 q0 -165 94.5 -272t259.5 -107q80 0 166 41.5t141 104.5l10 -6l-12 -101q-65 -52 -156.5 -85.5t-185.5 -33.5q-262 0 -397 177q-130 -177 -400 -177q-95 0 -179 26.5t-157.5 83t-117 158t-43.5 236.5zM252 479q0 -91 16 -167t51 -140t99 -100.5t151 -36.5q72 0 127.5 24.5 t91.5 65.5t59 99t32.5 120.5t9.5 134.5t-9.5 134.5t-32.5 120.5t-59 99.5t-91.5 66t-127.5 24.5q-70 0 -125.5 -24.5t-91 -66t-58.5 -99.5t-32.5 -120.5t-9.5 -134.5zM1055 569q252 -6 266 -6q8 0 272 6q0 49 -5.5 93.5t-22 94t-43.5 85t-73.5 59t-107.5 23.5 q-71 0 -127 -34t-88 -89t-49.5 -113.5t-21.5 -118.5z" />
<glyph unicode="&#x178;" horiz-adv-x="1251" d="M45 1403q65 -10 113 -10q47 0 112 10q141 -273 389 -709q205 321 388 709q58 -10 79 -10q22 0 80 10q-367 -559 -495 -809q0 -414 16 -598q-62 4 -100 4q-39 0 -101 -4q17 150 17 575q-450 755 -498 832zM340 1657q0 43 30.5 73.5t73.5 30.5t74 -30.5t31 -73.5t-31 -74 t-74 -31t-73.5 31t-30.5 74zM743 1657q0 43 31 73.5t74 30.5t73.5 -30.5t30.5 -73.5t-30.5 -74t-73.5 -31t-74 31t-31 74z" />
<glyph unicode="&#x2c6;" horiz-adv-x="681" d="M20 1145l252 342h138l252 -342h-76l-246 215l-244 -215h-76z" />
<glyph unicode="&#x2dc;" horiz-adv-x="681" d="M4 1196q14 84 68.5 147.5t144.5 63.5q34 0 62.5 -9t87.5 -38q60 -29 85 -38t50 -9q44 0 73.5 28.5t42.5 73.5h60q-5 -31 -17 -63t-36 -70t-68 -62t-102 -24q-63 0 -148 47q-87 47 -133 47t-67.5 -19.5t-40.5 -74.5h-62z" />
<glyph unicode="&#x2000;" horiz-adv-x="941" />
<glyph unicode="&#x2001;" horiz-adv-x="1882" />
<glyph unicode="&#x2002;" horiz-adv-x="941" />
<glyph unicode="&#x2003;" horiz-adv-x="1882" />
<glyph unicode="&#x2004;" horiz-adv-x="627" />
<glyph unicode="&#x2005;" horiz-adv-x="470" />
<glyph unicode="&#x2006;" horiz-adv-x="313" />
<glyph unicode="&#x2007;" horiz-adv-x="313" />
<glyph unicode="&#x2008;" horiz-adv-x="235" />
<glyph unicode="&#x2009;" horiz-adv-x="376" />
<glyph unicode="&#x200a;" horiz-adv-x="104" />
<glyph unicode="&#x2010;" horiz-adv-x="681" d="M86 410v127h510v-127h-510z" />
<glyph unicode="&#x2011;" horiz-adv-x="681" d="M86 410v127h510v-127h-510z" />
<glyph unicode="&#x2012;" horiz-adv-x="681" d="M86 410v127h510v-127h-510z" />
<glyph unicode="&#x2013;" horiz-adv-x="1024" d="M0 424v96h1024v-96h-1024z" />
<glyph unicode="&#x2014;" horiz-adv-x="2048" d="M0 424v96h2048v-96h-2048z" />
<glyph unicode="&#x2018;" horiz-adv-x="569" d="M143 909q0 9 1.5 18t6 19.5t6.5 15t9 18t8 15.5l256 435l37 -15l-158 -497q-22 -78 -90 -78q-29 0 -52.5 17.5t-23.5 51.5z" />
<glyph unicode="&#x2019;" horiz-adv-x="569" d="M102 854l158 498q22 78 90 78q29 0 52.5 -18t23.5 -52q0 -9 -1.5 -18t-6 -19.5t-6.5 -15t-9 -18t-8 -15.5l-256 -434z" />
<glyph unicode="&#x201a;" horiz-adv-x="569" d="M61 -338l158 492q22 77 90 77q29 0 52.5 -17.5t23.5 -51.5t-31 -86l-256 -428z" />
<glyph unicode="&#x201c;" horiz-adv-x="909" d="M131 909q0 9 1.5 18t6 19.5t6.5 15t9 18t8 15.5l256 435l37 -15l-158 -497q-22 -78 -90 -78q-29 0 -52.5 17.5t-23.5 51.5zM483 909q0 9 1.5 18t6 19.5t6.5 15t9 18t8 15.5l256 435l37 -15l-158 -497q-22 -78 -90 -78q-29 0 -52.5 17.5t-23.5 51.5z" />
<glyph unicode="&#x201d;" horiz-adv-x="909" d="M102 854l158 498q22 78 90 78q29 0 52.5 -18t23.5 -52q0 -9 -1.5 -18t-6 -19.5t-6.5 -15t-9 -18t-8 -15.5l-256 -434zM455 854l157 498q22 78 90 78q29 0 52.5 -18t23.5 -52q0 -28 -30 -86l-256 -434z" />
<glyph unicode="&#x201e;" horiz-adv-x="909" d="M102 -338l158 492q22 77 90 77q29 0 52.5 -17.5t23.5 -51.5t-31 -86l-256 -428zM455 -338l157 492q22 77 90 77q29 0 52.5 -17.5t23.5 -51.5q0 -35 -30 -86l-256 -428z" />
<glyph unicode="&#x2022;" horiz-adv-x="1241" d="M272 696q0 142 103 245t246 103t245.5 -103t102.5 -245t-102.5 -245t-245.5 -103t-246 103t-103 245z" />
<glyph unicode="&#x2026;" horiz-adv-x="2048" d="M225 92q0 47 35 82t82 35t82 -35t35 -82t-34.5 -78.5t-82.5 -31.5t-82.5 31.5t-34.5 78.5zM907 92q0 47 35 82t82 35t82 -35t35 -82t-34.5 -78.5t-82.5 -31.5t-82.5 31.5t-34.5 78.5zM1589 92q0 47 35 82t82 35t82 -35t35 -82t-34.5 -78.5t-82.5 -31.5t-82.5 31.5 t-34.5 78.5z" />
<glyph unicode="&#x202f;" horiz-adv-x="376" />
<glyph unicode="&#x2039;" horiz-adv-x="681" d="M174 475l258 383q24 -45 76 -55l-227 -326l217 -340q-25 -5 -48 -20t-30 -33z" />
<glyph unicode="&#x203a;" horiz-adv-x="681" d="M174 147l227 326l-217 340q25 5 48 20t30 33l246 -391l-258 -383q-24 45 -76 55z" />
<glyph unicode="&#x205f;" horiz-adv-x="470" />
<glyph unicode="&#x20ac;" d="M45 506q23 56 31 117q31 -8 112 -11v41q0 17 5 84q-101 -3 -148 -12q23 56 31 117q30 -8 129 -11q45 236 199 390.5t360 154.5q88 0 185.5 -29t172.5 -73q-15 -35 -47 -162l-31 -2q-48 83 -128 130.5t-158 47.5q-139 0 -237.5 -116.5t-129.5 -342.5h340q160 0 219 13 q-15 -29 -32 -117q-68 12 -199 12h-336q-4 -70 -4 -110v-17h291q160 0 219 13q-17 -32 -33 -117q-68 12 -199 12h-272q24 -212 126 -333.5t245 -121.5q171 0 317 158l17 -24q-14 -64 -19 -119q-48 -44 -148 -71t-198 -27q-213 0 -354 140t-174 398q-106 -3 -152 -12z" />
<glyph unicode="&#x2122;" horiz-adv-x="1945" d="M61 1327q11 29 11 39q0 8 -11 37q177 -10 318 -10q140 0 317 10q-10 -27 -10 -37q0 -12 10 -39q-147 10 -264 10v-288q0 -213 10 -486q-42 10 -63 10q-22 0 -64 -10q11 200 11 469v305q-118 0 -265 -10zM725 563q39 185 90 557l39 295h20q106 -229 242 -469l107 -188h4 l104 184q148 263 260 473h17l24 -260q25 -284 76 -592q-38 10 -57 10q-22 0 -60 -10q-15 283 -30 408l-29 221h-4l-86 -156q-157 -285 -232 -458h-16q-26 62 -60.5 129t-84 157.5t-70.5 130.5l-98 187h-4l-27 -228q-26 -215 -29 -391q-33 10 -47 10q-16 0 -49 -10z" />
<glyph unicode="&#x25fc;" horiz-adv-x="972" d="M0 0v973h973v-973h-973z" />
<glyph unicode="&#xfb01;" d="M59 877q4 28 4 41q0 12 -4 40q25 0 75 -1t73 -1q0 125 50 271.5t128 224.5q40 40 96 67t113 27q23 0 41 -6q-1 -19 -4.5 -76t-3.5 -88l-13 -6q-51 31 -112 31q-85 0 -126.5 -58.5t-41.5 -146.5q0 -96 24 -240q36 0 105.5 1t105.5 1q-4 -28 -4 -40q0 -13 4 -41 q-25 1 -67 2.5t-77 2.5t-67 1q0 -553 9 -887q-21 4 -88 4q-29 0 -91 -4q19 313 19 887q-1 0 -148 -6zM774 1325q0 43 31 74t74 31t73.5 -31t30.5 -74t-30.5 -73.5t-73.5 -30.5t-74 30.5t-31 73.5zM786 -4q17 132 17 377v213q0 241 -17 383q71 -11 93 -11q21 0 92 11 q-17 -142 -17 -383v-213q0 -245 17 -377q-62 4 -92 4q-31 0 -93 -4z" />
<glyph unicode="&#xfb02;" d="M59 877q4 28 4 41q0 12 -4 40q25 0 75 -1t73 -1q0 125 50 271.5t128 224.5q40 40 96 67t113 27q23 0 41 -6q-1 -19 -4.5 -76t-3.5 -88l-13 -6q-51 31 -112 31q-85 0 -126.5 -58.5t-41.5 -146.5q0 -96 24 -240q36 0 105.5 1t105.5 1q-4 -28 -4 -40q0 -13 4 -41 q-25 1 -67 2.5t-77 2.5t-67 1q0 -553 9 -887q-21 4 -88 4q-29 0 -91 -4q19 313 19 887q-1 0 -148 -6zM799 -4q16 203 16 584v370q0 371 -16 590q65 -10 92 -10t92 10q-16 -219 -16 -590v-370q0 -381 16 -584q-62 4 -92 4t-92 -4z" />
</font>
</defs>
</svg>
