<?xml version="1.0" standalone="no"?>
<!DOCTYPE svg PUBLIC "-//W3C//DTD SVG 1.1//EN" "http://www.w3.org/Graphics/SVG/1.1/DTD/svg11.dtd" >
<svg xmlns="http://www.w3.org/2000/svg" xmlns:xlink="http://www.w3.org/1999/xlink" version="1.1">
<metadata></metadata>
<defs>
<font id="optimabold" horiz-adv-x="1138" >
<font-face units-per-em="2048" ascent="1638" descent="-410" />
<missing-glyph horiz-adv-x="569" />
<glyph horiz-adv-x="0" />
<glyph unicode="&#xd;" horiz-adv-x="569" />
<glyph horiz-adv-x="0" />
<glyph horiz-adv-x="0" />
<glyph horiz-adv-x="0" />
<glyph unicode="&#x9;" horiz-adv-x="569" />
<glyph horiz-adv-x="0" />
<glyph unicode=" "  horiz-adv-x="569" />
<glyph unicode="&#x09;" horiz-adv-x="569" />
<glyph unicode="&#xa0;" horiz-adv-x="569" />
<glyph unicode="!" horiz-adv-x="681" d="M170 1266q0 74 47 119t125 45t125 -45t47 -119q0 -69 -26 -223t-117 -603h-58q-91 449 -117 603t-26 223zM174 131q0 69 49.5 118.5t118.5 49.5t118.5 -49.5t49.5 -118.5q0 -68 -49 -115t-119 -47t-119 47t-49 115z" />
<glyph unicode="&#x22;" horiz-adv-x="681" d="M47 750v700h205v-700h-205zM430 750v700h205v-700h-205z" />
<glyph unicode="#" d="M45 268q31 88 43 217q9 0 79.5 -4t111.5 -4l81 389h-135q-35 0 -55 -4q31 88 43 217q9 0 79 -4t111 -4q10 51 20 102.5t14 71.5t8 46.5t8 58.5q4 -1 21 -4t26 -3q10 0 30 3t29 4q-31 -100 -67 -279h323q9 47 19.5 102t14 73t7.5 45t8 59q4 -1 21 -4t26 -3q10 0 30.5 3 t29.5 4q-34 -108 -68 -279h133q38 0 58 4q-29 -80 -43 -217q-9 0 -79.5 4t-111.5 4l-82 -389h133q38 0 58 4q-29 -80 -43 -217q-9 0 -79.5 4t-111.5 4q-32 -167 -49 -272h-47h-59q30 86 67 272h-323q-38 -195 -50 -272h-47h-59q32 92 68 272h-136q-35 0 -55 -4zM367 477h323 l82 389h-323z" />
<glyph unicode="$" d="M76 969q0 170 111 279t311 128l-9 170q8 -1 31.5 -4.5t36.5 -3.5t36.5 3.5t31.5 4.5l-9 -170q82 0 195 -31t166 -77q-62 -144 -76 -207h-29q-31 91 -106.5 151t-149.5 60v-443q61 -16 102.5 -29t92.5 -33.5t84.5 -42t68 -53t54.5 -68t32.5 -86.5t12.5 -109 q0 -97 -38.5 -179t-102 -136t-142.5 -85t-164 -35l9 -225q-8 1 -31.5 4.5t-36.5 3.5t-36.5 -3.5t-31.5 -4.5l9 225q-107 0 -227.5 38.5t-180.5 88.5q24 85 51 244h39q26 -101 112 -178t206 -94v479q-208 47 -315 145t-107 273zM313 1063q0 -73 50.5 -127t134.5 -78v414 q-70 0 -127.5 -55.5t-57.5 -153.5zM616 72q80 5 140.5 66.5t60.5 156.5q0 199 -201 235v-458z" />
<glyph unicode="%" horiz-adv-x="2048" d="M205 1032q0 145 102.5 244.5t245.5 99.5q150 0 248 -90.5t98 -238.5q0 -152 -99 -252.5t-247 -100.5q-156 0 -252 91t-96 247zM410 1010q0 -126 31.5 -188t111.5 -62q141 0 141 289q0 262 -135 262q-78 0 -113.5 -75t-35.5 -226zM612 -70l713 1489q36 -4 55 -4q20 0 56 4 l-713 -1489q-36 4 -55 4q-20 0 -56 -4zM1149 305q0 145 102.5 244.5t245.5 99.5q150 0 248 -91t98 -239q0 -154 -98 -250t-248 -96q-157 0 -252.5 87.5t-95.5 244.5zM1354 283q0 -126 31.5 -188t111.5 -62q141 0 141 289q0 262 -135 262q-78 0 -113.5 -75t-35.5 -226z" />
<glyph unicode="&#x26;" horiz-adv-x="1478" d="M80 293q0 78 25 141.5t78.5 115.5t113 91.5t152.5 87.5q-77 108 -113.5 182.5t-36.5 153.5q0 69 22 125t58.5 93.5t86 62.5t102 36t108.5 11q148 0 240 -65.5t92 -184.5q0 -98 -62.5 -179t-200.5 -169q126 -169 324 -394q130 152 244 396q90 -99 112 -119 q-13 -20 -27.5 -41t-26.5 -38t-29 -39t-26.5 -35t-29 -36.5t-27.5 -33t-30 -35t-28 -32.5t-30.5 -35t-29.5 -34q194 -231 305 -323q-200 4 -252 4q-54 0 -168 -4l-98 129q-91 -74 -213 -115t-246 -41q-182 0 -285.5 95.5t-103.5 228.5zM354 401q0 -109 82 -196.5t215 -87.5 q129 0 219 80q-11 13 -70 85t-80 98t-66 81.5t-78.5 99t-67.5 88.5q-77 -58 -115.5 -116t-38.5 -132zM563 1153q0 -106 127 -285q62 46 113 122.5t51 160.5q0 65 -43.5 107t-101.5 42q-63 0 -104.5 -39t-41.5 -108z" />
<glyph unicode="'" horiz-adv-x="569" d="M182 750v700h205v-700h-205z" />
<glyph unicode="(" horiz-adv-x="681" d="M164 561q0 130 21.5 241.5t56.5 196.5t92.5 164t117.5 139t142 128l53 -54q-146 -165 -204 -353.5t-58 -475.5q0 -247 60 -431t200 -345l-55 -52q-102 82 -176.5 166t-132.5 186t-87.5 224.5t-29.5 265.5z" />
<glyph unicode=")" horiz-adv-x="681" d="M35 1376l53 54q82 -68 142 -128t117.5 -139t92.5 -164t56.5 -196.5t21.5 -241.5q0 -143 -29.5 -265.5t-87.5 -224.5t-132.5 -186t-176.5 -166l-55 52q140 161 200 345t60 431q0 287 -58 475.5t-204 353.5z" />
<glyph unicode="*" horiz-adv-x="909" d="M74 885q57 21 159.5 64.5t133.5 60.5q-31 17 -133.5 60.5t-159.5 64.5q5 7 23 30t26 37q12 20 33 76q40 -36 133 -105.5t123 -87.5q0 34 -14 148.5t-25 169.5q52 -10 82 -10t82 10q-11 -55 -25 -169.5t-14 -148.5q48 26 256 193q22 -60 32 -76q8 -14 26.5 -36.5 t23.5 -30.5q-51 -19 -155 -63.5t-138 -61.5q34 -17 138 -61.5t155 -63.5q-7 -9 -24.5 -31t-25.5 -35q-9 -16 -32 -78q-208 167 -256 193q0 -38 13.5 -150t25.5 -168q-57 11 -82 11t-82 -11q12 56 25.5 168t13.5 150q-159 -113 -256 -193q-21 56 -33 76q-8 15 -26.5 38.5 t-22.5 29.5z" />
<glyph unicode="+" horiz-adv-x="1241" d="M102 422v192h422v422h193v-422h422v-192h-422v-422h-193v422h-422z" />
<glyph unicode="," horiz-adv-x="569" d="M43 -373q42 190 71 304t53.5 194t48 115t46 48t57.5 13q55 0 100.5 -34t45.5 -93q0 -20 -8 -40.5t-50 -85t-108.5 -157.5t-204.5 -284z" />
<glyph unicode="-" horiz-adv-x="681" d="M86 336v225h510v-225h-510z" />
<glyph unicode="." horiz-adv-x="569" d="M117 131q0 69 49.5 118.5t118.5 49.5t118.5 -49.5t49.5 -118.5q0 -68 -49 -115t-119 -47t-119 47t-49 115z" />
<glyph unicode="/" horiz-adv-x="796" d="M20 -35l586 1469q54 -4 84 -4q24 0 86 4l-586 -1469q-54 4 -84 4q-24 0 -86 -4z" />
<glyph unicode="0" d="M80 682q0 333 131 513.5t373 180.5q226 0 350.5 -168t124.5 -495q0 -357 -123 -548.5t-367 -191.5q-247 0 -368 184.5t-121 524.5zM393 700q0 -105 1.5 -178t5.5 -145.5t12 -119t21 -87.5t31.5 -63.5t44 -35t58.5 -12.5q65 0 101 47t56.5 184.5t20.5 389.5 q0 247 -19 381.5t-55 182.5t-100 48t-101.5 -50t-57 -180.5t-19.5 -361.5z" />
<glyph unicode="1" d="M113 1128q291 104 606 265l39 -17q-21 -344 -21 -612v-125v-156q0 -164 13 -487q-37 4 -160 4q-125 0 -162 -4q23 353 23 559v578q-17 -7 -107 -53t-131 -64q-66 88 -100 112z" />
<glyph unicode="2" d="M84 1114q39 118 147 190t279 72q109 0 195 -22t138 -57t86 -82.5t47 -94.5t13 -98q0 -96 -45 -192.5t-176 -242t-362 -341.5l2 -4q413 4 579 16q-1 -17 -4.5 -61.5t-3.5 -71.5q0 -28 4 -74.5t4 -54.5q-104 4 -459 4q-344 0 -442 -4v86q314 285 447 494t133 411 q0 154 -59.5 225.5t-147.5 71.5q-55 0 -95.5 -31t-61 -80t-29.5 -96t-9 -92l-20 -6q-68 63 -160 135z" />
<glyph unicode="3" d="M84 127q55 69 127 178l27 -6q13 -101 71 -170.5t150 -69.5q99 0 165 83.5t66 213.5q0 137 -62 219t-171 82q-15 0 -30 -1t-33.5 -2.5t-28.5 -2.5v105q9 -1 26 -3.5t27 -2.5q231 0 231 286q0 128 -48.5 192t-125.5 64q-162 0 -192 -250l-29 -6q-18 21 -39 43t-53.5 53.5 t-44.5 43.5q58 101 149.5 150.5t253.5 49.5q116 0 201.5 -25t134.5 -70.5t72.5 -101.5t23.5 -124q0 -118 -71 -193t-213 -125v-18q87 -13 145.5 -34t103.5 -59t66 -98.5t21 -148.5q0 -94 -44.5 -172.5t-117.5 -128.5t-164.5 -77.5t-188.5 -27.5q-289 0 -405 154z" />
<glyph unicode="4" d="M53 319q10 58 10 101t-10 98q415 638 565 858q78 -10 134 -10q55 0 133 10q-21 -167 -21 -839l180 14q-8 -55 -8 -121q0 -67 8 -119l-180 13q0 -205 19 -328q-34 4 -156 4t-156 -4l19 323h-537zM188 545h402v598h-4q-162 -233 -398 -598z" />
<glyph unicode="5" d="M66 82q40 67 102 211h29q34 -122 86 -178t147 -56q32 0 62.5 9t62 33t55.5 60.5t39 98t15 139.5q0 151 -68.5 227t-173.5 76q-43 0 -95.5 -28t-70.5 -58l-49 27q14 159 14 275q0 109 -7.5 247.5t-18.5 180.5l16 14q80 -17 242 -17q260 0 469 19q-11 -79 -11 -131t11 -131 q-33 5 -147.5 11.5t-166.5 6.5q-208 0 -274 -8q-17 -80 -17 -360q76 57 232 57q197 0 312.5 -110.5t115.5 -272.5q0 -201 -152.5 -326t-398.5 -125q-105 0 -201 29t-159 80z" />
<glyph unicode="6" d="M113 541q0 386 173.5 610.5t454.5 224.5q54 0 119 -10q11 -30 37 -80l-12 -12q-45 18 -123 18q-63 0 -123 -36.5t-110.5 -105.5t-82.5 -184t-36 -259l4 -5q95 117 282 117q104 0 188.5 -42t137.5 -132.5t53 -216.5q0 -135 -64.5 -240.5t-169.5 -160t-231 -54.5 q-232 0 -364.5 143t-132.5 425zM416 406q0 -347 174 -347q85 0 128.5 85t43.5 241q0 317 -174 317q-74 0 -123 -72.5t-49 -223.5z" />
<glyph unicode="7" d="M111 1077q10 78 10 144q0 63 -10 141q364 -19 696 -19q37 0 237 5l15 -27q-453 -774 -690 -1325q-26 4 -119 4q-111 0 -137 -4q358 520 696 1102q-400 0 -698 -21z" />
<glyph unicode="8" d="M88 371q0 153 80.5 249t200.5 123v15q-98 18 -167 98t-69 186q0 157 120.5 245.5t313.5 88.5q212 0 325.5 -89.5t113.5 -225.5q0 -124 -66 -202t-168 -101v-15q50 -9 97.5 -35t89 -67.5t67 -104.5t25.5 -137q0 -209 -134 -317.5t-354 -108.5q-214 0 -344.5 101 t-130.5 297zM391 375q0 -157 48 -240.5t130 -83.5q75 0 127 84t52 244q0 159 -49.5 238t-133.5 79q-174 0 -174 -321zM408 1020q0 -113 46.5 -176.5t110.5 -63.5q75 0 120.5 69.5t45.5 190.5q0 117 -39.5 184.5t-116.5 67.5q-89 0 -128 -68.5t-39 -203.5z" />
<glyph unicode="9" d="M63 915q0 207 125.5 334t339.5 127q231 0 364.5 -146.5t133.5 -426.5q0 -392 -176.5 -611t-470.5 -219q-38 0 -84 7.5t-70 19.5q-30 84 -51 121l14 14q30 -25 50.5 -38.5t59 -26.5t83.5 -13q62 0 120.5 35.5t108.5 103.5t81.5 182t35.5 257l-4 4q-43 -57 -103.5 -86 t-166.5 -29t-193 42.5t-142 133t-55 215.5zM377 958q0 -317 174 -317q74 0 123 73t49 224q0 346 -174 346q-85 0 -128.5 -85t-43.5 -241z" />
<glyph unicode=":" horiz-adv-x="569" d="M117 131q0 69 49.5 118.5t118.5 49.5t118.5 -49.5t49.5 -118.5q0 -68 -49 -115t-119 -47t-119 47t-49 115zM117 803q0 69 49.5 118.5t118.5 49.5t118.5 -49.5t49.5 -118.5t-49.5 -118.5t-118.5 -49.5t-118.5 49.5t-49.5 118.5z" />
<glyph unicode=";" horiz-adv-x="569" d="M43 -373q42 190 71 304t53.5 194t48 115t46 48t57.5 13q55 0 100.5 -34t45.5 -93q0 -20 -8 -40.5t-50 -85t-108.5 -157.5t-204.5 -284zM117 803q0 69 49.5 118.5t118.5 49.5t118.5 -49.5t49.5 -118.5t-49.5 -118.5t-118.5 -49.5t-118.5 49.5t-49.5 118.5z" />
<glyph unicode="&#x3c;" horiz-adv-x="1241" d="M102 436v164l1037 453v-193l-793 -342l793 -342v-188z" />
<glyph unicode="=" horiz-adv-x="1241" d="M102 188v193h1037v-193h-1037zM102 655v193h1037v-193h-1037z" />
<glyph unicode="&#x3e;" horiz-adv-x="1241" d="M102 -12v188l793 342l-793 342v193l1037 -453v-164z" />
<glyph unicode="?" horiz-adv-x="909" d="M135 1354q44 35 118.5 55.5t154.5 20.5q159 0 262.5 -79.5t103.5 -222.5q0 -70 -34 -136t-82 -115t-96 -94t-82 -92t-34 -89q0 -38 29 -68t74 -30q38 0 88 26l18 -10q-21 -40 -32 -84q-66 -16 -123 -16q-134 0 -212.5 76.5t-78.5 187.5q0 54 23.5 106.5t50 84.5t71.5 79 q84 84 115 130t31 100q0 73 -47 107t-111 34q-60 0 -105 -30t-69 -81h-25zM274 131q0 69 49.5 118.5t118.5 49.5t118.5 -49.5t49.5 -118.5q0 -68 -49 -115t-119 -47t-119 47t-49 115z" />
<glyph unicode="@" horiz-adv-x="1536" d="M127 653q0 148 57.5 277t154.5 217t225.5 138t269.5 50q121 0 219.5 -30t164 -80t110 -117.5t64 -140.5t19.5 -150q0 -98 -30.5 -183t-79.5 -141.5t-110 -89t-122 -32.5q-91 0 -133.5 47t-42.5 141h-4q-106 -184 -260 -184q-90 0 -145.5 64.5t-55.5 183.5 q0 221 100.5 355t235.5 134q75 0 117.5 -34.5t68.5 -106.5h4l27 112q5 0 37.5 -3t50.5 -3t49 3t37 3q-75 -344 -91.5 -430t-16.5 -137q0 -37 21 -58.5t52 -21.5q74 0 136.5 92t62.5 238q0 78 -14.5 149t-49 138t-86 116.5t-131 79t-178.5 29.5q-128 0 -238 -51t-184 -136.5 t-115.5 -196.5t-41.5 -232q0 -151 59.5 -273t174.5 -194t267 -72q105 0 217.5 46.5t200.5 125.5l-6 -64q-237 -174 -479 -174q-94 0 -180.5 24.5t-161 74.5t-129.5 120.5t-86 167t-31 209.5zM608 606q0 -66 27 -102.5t74 -36.5q62 0 112 70.5t74.5 168.5t24.5 195 q0 71 -29 108.5t-80 37.5q-53 0 -100.5 -62t-75 -164t-27.5 -215z" />
<glyph unicode="A" horiz-adv-x="1366" d="M29 -4q77 168 264 622t319 795q45 -10 78 -10t78 10q134 -358 199 -529t180.5 -456t189.5 -432q-44 4 -180 4t-174 -4q-81 250 -141 414q-176 4 -262 4q-69 0 -213 -4q-72 -182 -140 -414q-22 4 -96 4q-76 0 -102 -4zM420 530h375q-101 285 -183 488q-97 -222 -192 -488z " />
<glyph unicode="B" horiz-adv-x="1251" d="M166 -4q16 272 16 561v279q0 282 -16 567q78 -10 168 -10q58 0 184 5t184 5q193 0 303.5 -78.5t110.5 -239.5q0 -64 -23 -118.5t-58 -90.5t-81.5 -63.5t-88.5 -42t-83 -22.5v-5q40 -2 86.5 -14t97.5 -39t91.5 -65t67 -97t26.5 -129q0 -88 -26 -157.5t-70.5 -115 t-106.5 -75.5t-129.5 -42.5t-144.5 -12.5q-55 0 -152.5 2t-148.5 2q-176 0 -207 -4zM485 469q0 -33 1 -100.5t1 -100.5q0 -37 1 -90t1 -67q97 -5 113 -5q95 0 160 75t65 204q0 142 -64 213.5t-188 71.5q-21 0 -49 -1t-39 -1q0 -25 -1 -89.5t-1 -109.5zM485 995q0 -37 1 -105 t1 -104h93q94 0 163.5 69t69.5 192q0 107 -52.5 173t-166.5 66q-73 0 -100 -6q-9 -150 -9 -285z" />
<glyph unicode="C" horiz-adv-x="1366" d="M72 647q0 165 43.5 298t118 222.5t179 149.5t222 86.5t250.5 26.5q106 0 226 -29.5t192 -71.5q-39 -97 -48 -209h-28q-78 98 -160 140.5t-193 42.5q-67 0 -132.5 -23t-126 -72.5t-106.5 -121t-73.5 -177t-27.5 -231.5q0 -122 28 -222t74.5 -167t110 -112.5t131.5 -66 t141 -20.5q98 0 202 42.5t169 111.5l26 -17q-36 -89 -45 -174q-170 -84 -418 -84q-175 0 -318 51t-238.5 141.5t-147 215t-51.5 270.5z" />
<glyph unicode="D" horiz-adv-x="1593" d="M166 -4q16 272 16 561v279q0 282 -16 567q78 -10 168 -10q34 0 152 5t219 5q146 0 262 -19.5t216.5 -66.5t167 -122t104.5 -190.5t38 -267.5q0 -166 -56.5 -307t-153.5 -235t-226 -146.5t-273 -52.5q-115 0 -262 2t-188 2q-137 0 -168 -4zM485 285q0 -48 1 -109.5 t1 -62.5q143 -7 181 -7q237 0 369 161t132 474q0 251 -128 398t-341 147q-108 0 -213 -10q0 -1 -1 -63t-1 -111v-123v-102v-365v-104v-123z" />
<glyph unicode="E" horiz-adv-x="1024" d="M147 -4q17 289 17 561v279q0 264 -17 567q50 -1 173.5 -5.5t191.5 -4.5q336 0 428 10q-8 -31 -8 -86q0 -51 8 -92q-379 24 -463 24q-10 -150 -10 -446q196 2 465 16q-10 -59 -10 -92q0 -12 10 -84q-247 19 -465 19q0 -44 -1 -131.5t-1 -131.5q0 -133 6 -256q232 0 469 27 q-8 -41 -8 -92q0 -61 8 -82q-148 4 -358 4h-203q-199 0 -232 -4z" />
<glyph unicode="F" horiz-adv-x="1024" d="M147 -4q17 289 17 561v279q0 264 -17 567q50 -1 173.5 -5t191.5 -5q336 0 428 10q-8 -31 -8 -86q0 -51 8 -92q-379 24 -463 24q-10 -150 -10 -446q196 2 465 16q-10 -59 -10 -92q0 -12 10 -84q-247 19 -465 19v-105q0 -289 16 -561q-31 4 -168 4t-168 -4z" />
<glyph unicode="G" horiz-adv-x="1593" d="M96 649q0 190 64.5 340t179 245.5t268 145.5t336.5 50q149 0 263.5 -30t230.5 -93q-44 -139 -58 -209h-28q-147 205 -404 205q-77 0 -151 -25t-140.5 -77.5t-116 -126.5t-79 -180.5t-29.5 -231.5q0 -252 133.5 -412t364.5 -160q60 0 130 10.5t93 26.5q6 33 6 143 q0 76 -2 143t-4 101.5t-5 68t-3 40.5q50 -11 151 -11q116 0 166 11q-16 -69 -16 -344v-68q0 -133 6 -158q-296 -84 -547 -84q-235 0 -417.5 81t-287 236.5t-104.5 362.5z" />
<glyph unicode="H" horiz-adv-x="1593" d="M166 -4q16 272 16 561v279q0 282 -16 567q78 -10 168 -10t168 10q-17 -216 -17 -563q144 -4 314 -4q149 0 309 4q0 278 -16 563q78 -10 168 -10q89 0 167 10q-16 -285 -16 -567v-279q0 -289 16 -561q-31 4 -167 4q-137 0 -168 -4q16 272 16 561v117q-35 1 -143.5 4.5 t-167.5 3.5q-173 0 -312 -8v-117q0 -272 17 -561q-31 4 -168 4t-168 -4z" />
<glyph unicode="I" horiz-adv-x="681" d="M174 -4q16 272 16 561v279q0 282 -16 567q78 -10 168 -10t168 10q-16 -285 -16 -567v-279q0 -289 16 -561q-31 4 -168 4t-168 -4z" />
<glyph unicode="J" horiz-adv-x="681" d="M14 -238q89 38 121 82.5t39 151.5q16 272 16 561v279q0 282 -16 567q78 -10 168 -10t168 10q-16 -285 -16 -567v-279q0 -55 2 -180t2 -193q0 -235 -111.5 -357.5t-341.5 -160.5z" />
<glyph unicode="K" horiz-adv-x="1251" d="M147 -4q17 289 17 561v279q0 264 -17 567q78 -10 168 -10t168 10q-16 -94 -16 -457v-196q140 165 304.5 370.5t217.5 282.5q65 -10 115 -10q45 0 123 10q-65 -65 -252.5 -274.5t-276.5 -315.5q19 -29 78.5 -119t91 -138t87 -132t92 -137t80 -115.5t75.5 -105.5t55 -70 q-53 4 -198 4q-139 0 -178 -4q-78 116 -218 336.5t-192 300.5h-4q0 -512 16 -637q-31 4 -168 4t-168 -4z" />
<glyph unicode="L" horiz-adv-x="1024" d="M166 -4q16 272 16 561v279q0 282 -16 567q78 -10 168 -10t168 10q-17 -303 -17 -567v-279q0 -202 4 -414q232 0 469 27q-8 -41 -8 -92q0 -61 8 -82q-148 4 -358 4h-203q-198 0 -231 -4z" />
<glyph unicode="M" horiz-adv-x="1820" d="M72 -4q118 629 211 1407q52 -10 84 -10q30 0 82 10q169 -378 473 -979q238 443 477 979q58 -10 88 -10q28 0 86 10q9 -73 42 -363t50 -429t42 -328.5t42 -286.5q-37 4 -166 4q-132 0 -170 -4q-14 280 -82 944h-4q-315 -651 -453 -944q-28 4 -38 4q-11 0 -39 -4 q-40 82 -136.5 284t-168.5 350.5t-142 289.5h-4q-15 -110 -28 -241.5t-20 -215.5t-18.5 -246t-15.5 -221q-22 4 -96 4t-96 -4z" />
<glyph unicode="N" horiz-adv-x="1593" d="M160 -4q9 40 25 379.5t16 619.5q0 112 -5.5 255t-5.5 153q65 -10 93 -10q27 0 92 10q451 -501 889 -975v178v199q0 527 -15 598q65 -10 92 -10q28 0 93 10q-33 -611 -33 -1161v-246q-54 4 -84 4q-34 0 -80 -4q-403 471 -895 989q-4 -160 -4 -240v-237q0 -386 12 -512 q-22 4 -96 4q-32 0 -94 -4z" />
<glyph unicode="O" horiz-adv-x="1705" d="M72 696q0 150 56.5 284.5t157.5 234t249.5 157.5t322.5 58q165 0 304.5 -45.5t245.5 -134.5t166 -230.5t60 -321.5q0 -204 -99.5 -370.5t-279 -262.5t-403.5 -96q-132 0 -247 25.5t-214 82t-169 140t-110 206t-40 273.5zM408 678q0 -158 34.5 -275t95.5 -183.5t135.5 -98 t164.5 -31.5q94 0 176 39.5t146 117t101 204.5t37 290q0 262 -123 417t-323 155q-136 0 -238.5 -86.5t-154 -229t-51.5 -319.5z" />
<glyph unicode="P" d="M147 -4q17 289 17 561v279q0 264 -17 567q78 -10 168 -10q48 0 149 5t150 5q140 0 222 -21t135 -63q66 -57 96.5 -122t30.5 -155q0 -115 -39 -200t-110.5 -136.5t-166 -76.5t-211.5 -25h-104q0 -381 16 -608q-31 4 -168 4t-168 -4zM467 709q46 0 85 6t82 25t72 50.5 t48.5 88t19.5 131.5q0 145 -60 210.5t-157 65.5h-47h-21q-12 0 -18 -2q-4 -394 -4 -575z" />
<glyph unicode="Q" horiz-adv-x="1705" d="M72 696q0 150 56.5 284.5t157.5 234t249.5 157.5t322.5 58q165 0 304.5 -45.5t245.5 -134.5t166 -230.5t60 -321.5q0 -242 -138.5 -427t-383.5 -271q90 -49 279.5 -163t257.5 -146q-66 -10 -130.5 -36t-158.5 -75q-145 115 -243.5 187t-291.5 202q-123 0 -232.5 26 t-205.5 83t-165.5 140.5t-109.5 205.5t-40 272zM408 678q0 -158 34.5 -275t95.5 -183.5t135.5 -98t164.5 -31.5q94 0 176 39.5t146 117t101 204.5t37 290q0 262 -123 417t-323 155q-136 0 -238.5 -86.5t-154 -229t-51.5 -319.5z" />
<glyph unicode="R" horiz-adv-x="1251" d="M166 -4q16 272 16 561v279q0 282 -16 567q78 -10 168 -10q29 0 126 5t175 5q150 0 223.5 -15.5t130.5 -54.5q133 -96 133 -270q0 -148 -81 -243t-236 -134q122 -215 405 -644q21 -31 31 -46q-42 4 -184 4q-145 0 -187 -4l-366 645h-19v-84q0 -272 17 -561q-31 4 -168 4 t-168 -4zM485 729q32 -4 45 -4q136 0 207.5 73.5t71.5 219.5q0 60 -7.5 103t-25.5 73t-41 48t-62 28t-79.5 13t-101.5 3q-7 -325 -7 -557z" />
<glyph unicode="S" horiz-adv-x="1024" d="M76 51q42 151 59 260h39q18 -96 92 -158.5t191 -62.5t178 58.5t61 150.5q0 50 -21 90t-56 69t-81 54.5t-96.5 49.5t-101 50t-96.5 61t-81 77.5t-56 104t-21 136.5q0 104 37.5 188.5t101.5 138.5t147 83t175 29q208 0 336 -101q-21 -53 -66 -203h-31q-65 177 -247 177 q-92 0 -152.5 -55t-60.5 -130q0 -61 34.5 -108.5t89 -80.5t121 -63.5t133 -68t121 -83.5t89 -120t34.5 -168q0 -207 -148.5 -332t-393.5 -125q-107 0 -195.5 23t-134.5 59z" />
<glyph unicode="T" d="M43 1223q10 52 10 90t-10 90q310 -10 532 -10q234 0 521 10q-11 -57 -11 -90t11 -90q-180 26 -365 26q-4 -28 -4 -71v-109v-512q0 -289 16 -561q-31 4 -168 4q-136 0 -167 -4q16 272 16 561v512q0 149 -6 180q-178 0 -375 -26z" />
<glyph unicode="U" horiz-adv-x="1593" d="M180 1403q92 -10 168 -10t168 10q-29 -284 -29 -717q0 -148 18 -252.5t49 -168.5t84.5 -100t113 -48.5t145.5 -12.5q54 0 98.5 13t78 35t60 58.5t44.5 74.5t31 92t20 102.5t11.5 114.5t5.5 120t1 126q0 262 -16 563q65 -10 104 -10q45 0 103 10q-27 -327 -27 -768 q0 -349 -150.5 -507.5t-453.5 -158.5q-108 0 -199.5 18t-170.5 58t-134.5 101t-87 151.5t-31.5 204.5q0 59 1 146t1 120q0 37 1 106.5t1 106.5q0 331 -8 422z" />
<glyph unicode="V" horiz-adv-x="1366" d="M43 1403q105 -10 184 -10q83 0 181 10q32 -107 80 -247.5t87 -247t102.5 -276.5t94.5 -257q253 620 387 1028q58 -10 90 -10t90 10q-3 -8 -63 -150t-82 -195t-80 -193.5t-92.5 -228t-83.5 -211t-88 -229t-72 -200.5q-54 4 -90 4t-90 -4q-93 249 -275 710.5t-280 696.5z " />
<glyph unicode="W" horiz-adv-x="2048" d="M43 1403q98 -10 172 -10t166 10q56 -239 268 -1034h4q312 901 353 1034q58 -10 102 -10t102 10q18 -100 156 -511.5t168 -522.5h4q82 256 177.5 582.5t125.5 451.5q58 -10 86 -10q39 0 94 10q-66 -184 -223 -652t-244 -755q-62 4 -104 4q-84 0 -107 -4q-99 377 -323 999 h-4q-13 -36 -104 -290t-148.5 -419.5t-97.5 -289.5q-62 4 -105 4q-83 0 -106 -4q-69 260 -228 803t-184 604z" />
<glyph unicode="X" horiz-adv-x="1251" d="M53 -4q48 60 116.5 159.5t183 274t139.5 211.5q-90 167 -424 762q110 -10 186 -10q77 0 182 10q151 -306 254 -500q128 204 299 500q65 -10 105 -10q39 0 104 10q-41 -54 -113 -157.5t-173 -251t-146 -212.5q204 -396 430 -786q-42 4 -180 4q-139 0 -178 -4 q-32 60 -123.5 240t-145.5 278q-142 -218 -311 -518q-62 4 -100 4q-79 0 -105 -4z" />
<glyph unicode="Y" horiz-adv-x="1251" d="M47 1403q105 -10 184 -10q78 0 183 10q223 -487 305 -615h4q31 46 63 101.5t69 131.5t57.5 120t64.5 141t55 121q52 -10 94 -10q41 0 99 10q-70 -116 -200.5 -355t-227.5 -430q0 -33 -2 -99.5t-2 -100.5q0 -255 20 -422q-38 4 -174 4t-174 -4q2 38 13 175.5t11 213.5 q0 64 -4 190q-95 191 -238.5 461t-199.5 367z" />
<glyph unicode="Z" horiz-adv-x="1251" d="M25 -4v29q160 245 363 584.5t364 635.5l-2 4q-436 0 -641 -18q10 52 10 86t-10 86q132 0 304 -5t261 -5q122 0 504 10v-37q-348 -558 -719 -1219v-4q470 0 717 17q-1 -13 -6 -41t-5 -45q0 -18 5 -44.5t6 -33.5q-115 4 -512 4q-479 0 -639 -4z" />
<glyph unicode="[" horiz-adv-x="681" d="M213 -254q10 76 10 375v190v281v256q0 422 -10 555q95 -10 174 -10q119 0 266 10q-6 -54 -6 -55q0 -2 6 -56l-221 13q-14 -439 -14 -742q0 -235 4.5 -453.5t9.5 -259.5q84 0 221 13q-6 -54 -6 -58q0 -13 2.5 -32.5t3.5 -26.5q-120 10 -225 10q-95 0 -215 -10z" />
<glyph unicode="\" horiz-adv-x="1064" d="M156 1434q62 -4 86 -4q30 0 84 4l585 -1469q-62 4 -86 4q-30 0 -84 -4z" />
<glyph unicode="]" horiz-adv-x="681" d="M29 -137q136 -13 221 -13q5 41 9.5 259.5t4.5 453.5q0 303 -14 742l-221 -13q6 54 6 56q0 1 -6 55q147 -10 266 -10q79 0 174 10q-10 -133 -10 -555v-256v-281v-190q0 -217 10 -375q-120 10 -215 10q-105 0 -225 -10q1 7 3.5 26.5t2.5 32.5q0 4 -6 58z" />
<glyph unicode="^" horiz-adv-x="1241" d="M129 516l410 827h163l410 -827h-205l-286 586l-287 -586h-205z" />
<glyph unicode="_" horiz-adv-x="1024" d="M0 -150h1024v-102h-1024v102z" />
<glyph unicode="`" horiz-adv-x="681" d="M23 1438q0 38 24.5 65t71.5 27q33 0 62 -19.5t101 -99t226 -266.5h-113q-178 107 -255.5 160.5t-97 77.5t-19.5 55z" />
<glyph unicode="a" horiz-adv-x="1024" d="M49 231q0 128 77 196t226 103q117 28 168 47.5t66.5 39.5t15.5 59q0 76 -53 127t-143 51q-67 0 -142.5 -35t-103.5 -78h-15l-26 123q180 144 383 144q174 0 274.5 -81t100.5 -253q0 -90 -3.5 -242.5t-3.5 -222.5q0 -48 6.5 -76.5t23 -42.5t36.5 -18t55 -4v-50 q-66 -27 -105 -38t-83 -11q-143 0 -195 144q-51 -71 -114 -107.5t-152 -36.5q-146 0 -219.5 75t-73.5 187zM336 260q0 -74 31 -115t86 -41q69 0 110 52.5t41 150.5q0 67 1 133.5t1 81.5q-27 -16 -71.5 -32.5t-75 -30t-61 -36.5t-46.5 -63.5t-16 -99.5z" />
<glyph unicode="b" d="M109 -12q16 366 16 710v133q0 343 -16 709q58 -10 153 -10q96 0 154 10q-17 -389 -17 -709h4q35 85 107 131t166 46q115 0 206 -66t140 -177.5t49 -246.5q0 -120 -28 -215.5t-73 -157t-106 -102t-124 -57.5t-130 -17q-181 0 -276 137q-33 -19 -98.5 -64.5t-77.5 -53.5 h-49zM399 479q0 -97 7.5 -168.5t26 -132t54 -92t88.5 -31.5q193 0 193 469q0 357 -176 357q-193 0 -193 -402z" />
<glyph unicode="c" horiz-adv-x="1024" d="M88 483q0 229 148.5 377t392.5 148q109 0 189 -24.5t163 -72.5q-54 -90 -78 -213h-49q-38 205 -207 205q-121 0 -183.5 -110.5t-62.5 -311.5q0 -186 78.5 -285.5t227.5 -99.5q60 0 120 29t91 68l24 -21q-14 -31 -45 -121q-103 -82 -276 -82q-98 0 -178.5 20t-138 56.5 t-100 84t-67.5 106.5t-37 120t-12 127z" />
<glyph unicode="d" d="M68 496q0 144 52.5 261.5t143 184t199.5 66.5q90 0 163 -42t109 -110h4q0 314 -16 684q58 -10 154 -10q95 0 153 10q-16 -366 -16 -709v-133q0 -348 16 -702q-23 4 -153 4q-120 0 -138 -4q3 5 10 76.5t7 85.5l-4 4q-40 -96 -109.5 -144.5t-183.5 -48.5q-101 0 -177 40 t-122.5 112.5t-69 166.5t-22.5 208zM371 465q0 -195 49.5 -285t126.5 -90q90 0 141 100t51 312q0 183 -49 273.5t-133 90.5q-35 0 -66 -19.5t-59 -62.5t-44.5 -125t-16.5 -194z" />
<glyph unicode="e" horiz-adv-x="1024" d="M68 481q0 255 131.5 391t343.5 136q202 0 310 -118.5t108 -336.5v-43q0 -19 -3 -25h-587q0 -174 69.5 -281.5t204.5 -107.5q140 0 252 92l25 -18l-45 -115q-115 -86 -312 -86q-104 0 -191.5 29.5t-157 89t-109 160t-39.5 233.5zM371 578h315q-5 163 -40 250t-111 87 q-43 0 -75.5 -29.5t-50 -80.5t-27 -106.5t-11.5 -120.5z" />
<glyph unicode="f" horiz-adv-x="645" d="M37 864q6 24 6 51q0 26 -6 56l143 -6q18 108 39 189.5t56.5 158.5t81.5 125.5t114 78t154 29.5q28 0 86 -10q-9 -48 -9 -199v-67l-24 -8q-105 59 -197 59q-62 0 -92.5 -20t-30.5 -68q0 -46 27 -118.5t70 -147.5l192 4q-1 -8 -3.5 -27t-2.5 -29q0 -3 6 -51l-192 4v-170 q0 -348 16 -702q-23 4 -154 4q-130 0 -153 -4q16 354 16 702v168z" />
<glyph unicode="g" horiz-adv-x="1024" d="M61 -276q0 176 201 253v5q-117 41 -117 151q0 69 53.5 131.5t137.5 85.5v4q-124 29 -193 111q-69 81 -69 213q0 153 119.5 241.5t314.5 88.5q28 0 80.5 -4t70.5 -5q70 -4 115 -4q33 0 106 1t111 1q-4 -32 -4 -49t4 -49l-180 8l-6 -4q110 -79 110 -227q0 -152 -109.5 -246 t-287.5 -94q-15 0 -44.5 1t-47.5 1q-24 0 -41.5 -22t-17.5 -52q0 -105 157 -108l152 -2q173 -3 253.5 -66t80.5 -199q0 -94 -33.5 -170.5t-87 -125t-125.5 -81.5t-145.5 -47t-149.5 -14q-190 0 -299 74.5t-109 198.5zM248 -229q0 -112 76.5 -174t191.5 -62t185.5 71 t70.5 173q0 59 -19.5 97t-60.5 58t-91.5 27.5t-125.5 7.5q-108 0 -147 -20q-29 -14 -54.5 -63t-25.5 -115zM360 653q0 -124 40.5 -182.5t95.5 -58.5q69 0 101 60.5t32 199.5q0 252 -129 252q-140 0 -140 -271z" />
<glyph unicode="h" d="M109 -4q16 354 16 702v133q0 343 -16 709q58 -10 153 -10q96 0 154 10q-17 -389 -17 -709l4 -4q113 181 306 181q319 0 319 -377q0 -74 -4 -184.5t-4 -159.5q0 -131 10 -291q-23 4 -153 4q-131 0 -154 -4q22 172 22 582q0 249 -167 249q-90 0 -134.5 -78t-44.5 -223v-82 q0 -222 17 -448q-23 4 -154 4q-130 0 -153 -4z" />
<glyph unicode="i" horiz-adv-x="569" d="M123 1368q0 68 47.5 115t114.5 47t114 -47t47 -115t-47 -115t-114 -47t-114.5 47t-47.5 115zM131 -4q16 157 16 448v82q0 287 -16 455q65 -10 154 -10q88 0 153 10q-16 -168 -16 -455v-82q0 -291 16 -448q-23 4 -153 4q-128 0 -154 -4z" />
<glyph unicode="j" horiz-adv-x="569" d="M-6 -475q83 26 118 88.5t35 175.5v737q0 287 -16 455q65 -10 154 -10q88 0 153 10q-16 -168 -16 -455v-618q0 -112 -26.5 -193.5t-80 -134.5t-126.5 -83.5t-175 -45.5zM123 1368q0 68 47.5 115t114.5 47t114 -47t47 -115t-47 -115t-114 -47t-114.5 47t-47.5 115z" />
<glyph unicode="k" horiz-adv-x="1024" d="M109 -4q16 354 16 702v133q0 343 -16 709q58 -10 153 -10q96 0 154 10q-17 -389 -17 -965q0 -30 2 -37.5t9 -7.5q32 0 385 451q55 -10 96 -10q30 0 115 10q-41 -47 -191.5 -201t-171.5 -176q22 -34 182 -297t187 -311q-38 4 -162 4q-122 0 -156 -4q-19 19 -85 138.5 t-127.5 225t-78.5 105.5q-6 0 -8.5 -4.5t-4 -23.5t-1.5 -60v-115q0 -223 14 -266q-33 4 -147 4t-147 -4z" />
<glyph unicode="l" horiz-adv-x="569" d="M131 -4q16 354 16 702v133q0 343 -16 709q58 -10 154 -10q95 0 153 10q-16 -366 -16 -709v-133q0 -348 16 -702q-23 4 -153 4q-131 0 -154 -4z" />
<glyph unicode="m" horiz-adv-x="1705" d="M102 -4q17 166 17 448v82q0 276 -17 455q82 -10 146 -10q57 0 149 10l-8 -154h4q120 181 309 181q92 0 159 -50.5t104 -144.5q62 94 143.5 144.5t173.5 50.5q320 0 320 -377q0 -74 -4.5 -184.5t-4.5 -159.5q0 -115 11 -291q-23 4 -154 4t-154 -4q23 180 23 582 q0 249 -164 249q-47 0 -81 -22t-50.5 -59.5t-23.5 -75t-7 -78.5v-148q0 -282 17 -448q-23 4 -154 4q-128 0 -154 -4q17 166 17 448v125q0 130 -33 194t-115 64q-178 0 -178 -301v-82q0 -282 17 -448q-23 4 -154 4q-128 0 -154 -4z" />
<glyph unicode="n" d="M109 -4q16 157 16 448v82q0 287 -16 455q82 -10 145 -10q57 0 149 10l-8 -154h4q120 181 310 181q319 0 319 -377q0 -74 -4 -184.5t-4 -159.5q0 -131 10 -291q-23 4 -153 4q-131 0 -154 -4q22 172 22 582q0 249 -167 249q-90 0 -134.5 -78t-44.5 -223v-82q0 -282 17 -448 q-23 4 -154 4q-127 0 -153 -4z" />
<glyph unicode="o" d="M68 461q0 133 41.5 239.5t112.5 172.5t159.5 100.5t187.5 34.5q237 0 369.5 -134t132.5 -368q0 -250 -138.5 -393.5t-363.5 -143.5q-76 0 -146 15.5t-135.5 52t-113.5 91.5t-77 140.5t-29 192.5zM371 459q0 -404 200 -404q197 0 197 482q0 378 -195 378 q-96 0 -149 -113.5t-53 -342.5z" />
<glyph unicode="p" d="M109 -543q16 370 16 703v112q0 343 -16 709q78 -10 143 -10q63 0 141 10q-14 -110 -14 -176h4q30 90 107 146.5t184 56.5q63 0 120.5 -18t108.5 -58t88 -98t58.5 -143t21.5 -189q0 -142 -34 -248.5t-92 -166.5t-127.5 -89t-149.5 -29q-193 0 -265 144h-4v-166 q0 -368 17 -490q-64 11 -154 11q-89 0 -153 -11zM389 463q0 -365 189 -365q90 0 140 99.5t50 298.5q0 195 -48.5 290t-133.5 95t-141 -102t-56 -316z" />
<glyph unicode="q" d="M68 475q0 112 22.5 206.5t68.5 168.5t123.5 116t178.5 42q117 0 186.5 -50.5t110.5 -148.5l4 4q0 16 -6.5 86.5t-10.5 81.5q45 -10 138 -10q95 0 153 10q-16 -366 -16 -709v-133q0 -341 16 -682q-64 11 -153 11q-90 0 -154 -11q16 341 16 658h-4q-36 -66 -110 -106 t-166 -40q-169 0 -283 142t-114 364zM371 506q0 -112 16.5 -194t45 -125.5t60.5 -63t68 -19.5q88 0 138.5 90.5t50.5 274.5q0 212 -53 312t-146 100q-81 0 -130.5 -89.5t-49.5 -285.5z" />
<glyph unicode="r" horiz-adv-x="796" d="M123 -4q16 157 16 448v82q0 287 -16 455q78 -10 141 -10q64 0 142 10l-7 -250l4 -4q54 141 129.5 207.5t180.5 66.5q7 0 17 -1t15 -1q-12 -61 -12 -147v-66v-34q0 -25 2 -35l-18 -17q-49 29 -105 29q-89 0 -143.5 -59t-54.5 -144v-82q0 -291 16 -448q-23 4 -154 4 q-127 0 -153 -4z" />
<glyph unicode="s" horiz-adv-x="796" d="M59 51q25 105 31 197h51q64 -168 242 -168q68 0 108.5 35.5t40.5 81.5q0 37 -26 66t-67.5 48.5t-92 39.5t-100.5 46.5t-91.5 60.5t-67.5 90.5t-26 129.5q0 82 31.5 147.5t84 104t114.5 58.5t129 20q83 0 149.5 -23.5t139.5 -73.5q-36 -80 -50 -180h-57q-16 64 -66.5 118 t-136.5 54q-63 0 -104 -33t-41 -86q0 -40 26.5 -69.5t69 -49t94.5 -37.5t103.5 -43t94 -58t69 -88.5t26.5 -129.5q0 -88 -32.5 -155t-88.5 -106.5t-125 -59t-149 -19.5q-85 0 -159.5 24t-123.5 58z" />
<glyph unicode="t" horiz-adv-x="681" d="M49 864q6 24 6 51q0 26 -6 56l144 -6q0 96 -9 252q168 68 281 126l20 -14q-18 -158 -18 -362l180 4q-6 -30 -6 -56q0 -27 6 -51l-180 4q-14 -175 -14 -456q0 -146 10 -214.5t32.5 -93t71.5 -24.5q59 0 95 20v-84q-103 -47 -224 -47q-260 0 -260 312q0 78 7.5 287t7.5 298 z" />
<glyph unicode="u" d="M109 981q58 -10 153 -10q96 0 154 10q-23 -188 -23 -588q0 -250 168 -250q178 0 178 301v82q0 287 -16 455q65 -10 154 -10q88 0 153 10q-16 -168 -16 -455v-82q0 -291 16 -448q-33 4 -145 4q-113 0 -150 -4l8 147h-4q-115 -174 -309 -174q-158 0 -238.5 89t-80.5 282 q0 74 4 184.5t4 159.5q0 124 -10 297z" />
<glyph unicode="v" horiz-adv-x="1024" d="M31 981q95 -10 162 -10q68 0 153 10q148 -480 227 -717h5q66 180 245 717q52 -10 84 -10q31 0 86 10q-18 -44 -102 -236.5t-156 -378t-129 -370.5q-26 4 -110 4q-85 0 -111 -4q-279 785 -354 985z" />
<glyph unicode="w" horiz-adv-x="1593" d="M29 981q98 -10 159 -10q68 0 150 10q131 -473 203 -709h4q69 206 207 709q65 -10 114 -10q50 0 115 10q96 -348 207 -709h4q108 339 207 709q52 -10 80 -10t86 10q-59 -109 -344 -985q-26 4 -113 4q-89 0 -115 -4q-93 289 -200 668h-5q-139 -443 -204 -668q-26 4 -117 4 q-94 0 -121 -4q-66 225 -178.5 573t-138.5 412z" />
<glyph unicode="x" horiz-adv-x="1024" d="M53 -4q28 25 139.5 176.5t188.5 265.5q-68 124 -174 299t-152 244q110 -10 176 -10q74 0 166 10q166 -309 176 -326q18 28 96 143.5t117 182.5q52 -10 86 -10q32 0 97 10q-225 -280 -334 -430q163 -282 336 -555q-37 4 -168 4t-168 -4l-189 342q-77 -110 -217 -342 q-54 4 -84 4q-66 0 -92 -4z" />
<glyph unicode="y" horiz-adv-x="1024" d="M37 981q85 -10 153 -10q67 0 152 10q172 -462 246 -643q138 354 231 643q52 -10 82 -10q31 0 86 10q-11 -27 -132.5 -309.5t-268.5 -636.5t-230 -578q-57 11 -86 11t-86 -11q183 366 260 535q-297 709 -407 989z" />
<glyph unicode="z" horiz-adv-x="1024" d="M61 -4v78q225 315 541 790q-231 0 -477 -24q8 31 8 71q0 43 -8 70q113 -10 201 -10h223h227q105 0 187 10v-82q-381 -529 -543 -793h119q193 0 407 25q-6 -37 -6 -70q0 -38 6 -65q-59 4 -291 4h-155q-132 0 -231.5 -1t-149 -2t-58.5 -1z" />
<glyph unicode="{" horiz-adv-x="681" d="M100 516v111q74 13 123 71t49 152v295q0 123 69 185.5t200 62.5h121v-154h-121q-88 0 -88 -94v-277q0 -119 -43 -194.5t-146 -100.5v-4q103 -25 146 -100.5t43 -194.5v-274q0 -90 88 -90h121v-154h-121q-130 0 -199.5 62t-69.5 182v293q0 94 -49 152t-123 71z" />
<glyph unicode="|" horiz-adv-x="1241" d="M539 -508v2044h163v-2044h-163z" />
<glyph unicode="}" horiz-adv-x="681" d="M20 -90h121q88 0 88 90v274q0 119 43 194.5t146 100.5v4q-103 25 -146 100.5t-43 194.5v277q0 94 -88 94h-121v154h121q131 0 200 -62.5t69 -185.5v-295q0 -94 49 -152t123 -71v-111q-74 -13 -123 -71t-49 -152v-293q0 -120 -69.5 -182t-199.5 -62h-121v154z" />
<glyph unicode="~" horiz-adv-x="1241" d="M141 500q91 180 256 180q61 0 151.5 -36t170.5 -71.5t115 -35.5q52 0 93.5 36.5t86.5 114.5l86 -151q-91 -181 -256 -181q-60 0 -150.5 36t-170.5 72t-115 36q-52 0 -94 -37t-87 -115z" />
<glyph unicode="&#xa1;" horiz-adv-x="681" d="M168 -289q0 69 25.5 218t117.5 601h58q92 -452 117.5 -601t25.5 -218q0 -74 -47 -119t-125 -45t-125 45t-47 119zM172 840q0 69 49.5 118.5t118.5 49.5t118.5 -49.5t49.5 -118.5t-49.5 -118.5t-118.5 -49.5t-118.5 49.5t-49.5 118.5z" />
<glyph unicode="&#xa2;" d="M160 483q0 217 132 361t353 164q-3 157 -14 213q11 0 34 -2t35 -2q11 0 33.5 2t34.5 2q-12 -62 -12 -213q65 0 154 -29.5t143 -67.5q-54 -90 -78 -213h-49q-14 85 -57 140t-115 65v-807q4 -2 24 -2q61 0 120.5 29.5t90.5 69.5l25 -21q-14 -31 -45 -121q-88 -68 -215 -78 q0 -164 14 -241q-12 0 -34.5 2t-33.5 2q-12 0 -35 -2t-34 -2q14 77 14 237q-105 7 -189 39t-138.5 81t-90.5 114.5t-51.5 134.5t-15.5 145zM473 481q0 -282 172 -358v768q-85 -26 -128.5 -133.5t-43.5 -276.5z" />
<glyph unicode="&#xa3;" d="M76 -4q10 58 10 110t-10 117q109 0 171 53.5t62 190.5q0 45 -8 145l-172 -4q8 27 8 68q0 38 -8 65l162 -8q-10 95 -10 164q0 227 119.5 353t349.5 126q96 0 180 -28.5t141 -77.5q-24 -27 -60.5 -92.5t-54.5 -112.5l-24 4q-6 107 -52 161t-122 54q-98 0 -136 -71.5 t-38 -221.5q0 -48 5.5 -135t6.5 -125q238 0 362 12q-4 -46 -4 -67q0 -22 4 -68q-115 6 -278 6h-84q0 -87 -81 -211.5t-150 -158.5v-4q466 0 704 16q-10 -78 -10 -133q0 -62 10 -127q-159 4 -696 4q-232 0 -297 -4z" />
<glyph unicode="&#xa4;" d="M61 301l109 109q-80 131 -80 262t80 262l-109 108l138 138l108 -109q124 80 262 80t262 -80l109 109l137 -138l-108 -108q80 -131 80 -262t-80 -262l108 -109l-137 -137l-109 108q-123 -79 -262 -79t-262 79l-108 -108zM295 672q0 -123 75.5 -199t198.5 -76t199 76 t76 199t-76 198.5t-199 75.5t-198.5 -75.5t-75.5 -198.5z" />
<glyph unicode="&#xa5;" d="M0 1403q92 -10 172 -10q85 0 190 10q63 -175 283 -653q183 369 301 653q55 -10 92 -10q43 0 101 10q-128 -170 -412 -653q256 0 356 6q-4 -36 -4 -47q0 -17 4 -45l-381 4v-191h121q186 0 260 6q-4 -36 -4 -47q0 -17 4 -45l-381 4q0 -336 11 -399q-37 4 -162 4t-162 -4 q10 57 10 399l-372 -4q4 28 4 45q0 11 -4 47q92 -6 372 -6v191l-372 -4q4 28 4 45q0 11 -4 47q92 -6 331 -6q-67 123 -186.5 340.5t-171.5 312.5z" />
<glyph unicode="&#xa6;" horiz-adv-x="1241" d="M539 -354v712h163v-712h-163zM539 666v716h163v-716h-163z" />
<glyph unicode="&#xa7;" d="M127 588q0 92 45.5 171.5t122.5 127.5q-88 81 -88 205q0 145 113 241.5t278 96.5q199 0 348 -109q-14 -26 -42.5 -84.5t-45.5 -89.5h-27q-19 80 -80 129t-165 49q-68 0 -113 -44t-45 -107q0 -41 25 -76t66 -60t93.5 -51.5t107.5 -49.5t107.5 -55.5t93.5 -68.5t66 -89 t25 -116q0 -152 -156 -282q59 -40 89 -101.5t30 -132.5q0 -98 -61.5 -180.5t-163 -129t-218.5 -46.5q-206 0 -368 106q24 98 37 211h37q39 -88 118 -150.5t179 -62.5q95 0 154 55t59 115q0 40 -21 73t-57 58t-83 47.5t-98.5 44.5t-102.5 45t-98 53t-83 65t-57 84.5 t-21 107.5zM291 709q0 -55 51.5 -102t118.5 -76t169 -75t165 -85q53 59 53 118q0 45 -30.5 82.5t-85.5 69t-114 58.5t-134 64.5t-128 74.5q-65 -47 -65 -129z" />
<glyph unicode="&#xa8;" horiz-adv-x="681" d="M-2 1296q0 56 36 95t91 39t94 -39t39 -95t-39 -94.5t-94 -38.5t-91 38.5t-36 94.5zM424 1296q0 56 39 95t94 39t94 -39t39 -95t-39 -94.5t-94 -38.5t-94 38.5t-39 94.5z" />
<glyph unicode="&#xa9;" horiz-adv-x="1536" d="M35 696q0 150 58 285.5t156 234t233.5 156.5t285.5 58t285.5 -58t233.5 -156.5t156 -234t58 -285.5q0 -152 -58 -287t-156 -231.5t-233.5 -152.5t-285.5 -56t-285.5 56t-233.5 152.5t-156 231.5t-58 287zM119 696q0 -176 87 -325.5t236.5 -236.5t325.5 -87t325.5 87 t236.5 236.5t87 325.5q0 132 -51.5 252.5t-138.5 207.5t-207 138.5t-252 51.5t-252 -51.5t-207 -138.5t-138.5 -207.5t-51.5 -252.5zM365 696q0 205 133.5 326t349.5 121q133 0 266 -62q-16 -50 -31 -129h-16q-81 115 -215 115q-118 0 -200.5 -100t-82.5 -277 q0 -161 81.5 -252.5t205.5 -91.5q129 0 227 88l15 -8q-18 -29 -31 -107q-114 -49 -242 -49q-76 0 -142.5 14.5t-125.5 47t-101 81t-66.5 121t-24.5 162.5z" />
<glyph unicode="&#xaa;" horiz-adv-x="681" d="M29 911q0 63 37 103t89.5 56.5t105 28.5t89.5 31t37 52q0 40 -29.5 68t-85.5 28q-46 0 -92 -20.5t-67 -47.5h-11l-16 80q113 86 248 86q108 0 177 -46t69 -130q0 -71 -3.5 -167.5t-3.5 -135.5q0 -53 17 -67.5t63 -14.5v-33q-65 -32 -123 -32q-89 0 -127 90 q-72 -90 -172 -90q-97 0 -149.5 47.5t-52.5 113.5zM233 938q0 -53 15 -74.5t51 -21.5q88 0 88 121v108q-15 -7 -41.5 -16.5t-43 -16.5t-34 -19t-26.5 -32t-9 -49z" />
<glyph unicode="&#xab;" horiz-adv-x="1024" d="M168 551q21 32 64.5 97t69.5 104t61.5 95t64.5 105q66 -54 133 -90q-137 -178 -229 -311q125 -181 231 -315q-67 -38 -135 -93q-29 49 -64.5 105.5t-61 96t-69 106t-65.5 100.5zM471 551q21 32 64.5 97t69.5 104t61.5 95t64.5 105q66 -54 133 -90q-137 -178 -229 -311 q125 -181 231 -315q-68 -38 -135 -93q-29 49 -64.5 105.5t-61 96t-69 106t-65.5 100.5z" />
<glyph unicode="&#xac;" horiz-adv-x="1241" d="M102 655v193h1037v-629h-193v436h-844z" />
<glyph unicode="&#xad;" horiz-adv-x="681" d="M86 336v225h510v-225h-510z" />
<glyph unicode="&#xae;" horiz-adv-x="1536" d="M35 696q0 150 58 285.5t156 234t233.5 156.5t285.5 58t285.5 -58t233.5 -156.5t156 -234t58 -285.5q0 -152 -58 -287t-156 -231.5t-233.5 -152.5t-285.5 -56t-285.5 56t-233.5 152.5t-156 231.5t-58 287zM119 696q0 -176 87 -325.5t236.5 -236.5t325.5 -87t325.5 87 t236.5 236.5t87 325.5q0 132 -51.5 252.5t-138.5 207.5t-207 138.5t-252 51.5t-252 -51.5t-207 -138.5t-138.5 -207.5t-51.5 -252.5zM496 293q0 4 3 56.5t6 159t3 241.5q0 281 -12 383q137 -5 159 -5q14 0 69.5 2.5t100.5 2.5q109 0 174.5 -57t65.5 -150q0 -86 -57.5 -146.5 t-141.5 -72.5l262 -416q-6 0 -46.5 3t-63.5 3t-64 -3t-47 -3q-65 118 -142 256q-53 97 -63.5 114t-17.5 17q-6 0 -7 -4.5t-1 -28.5q0 -266 12 -352q-93 6 -96 6q-14 0 -30 -1t-35.5 -2.5t-30.5 -2.5zM678 729q25 0 42 1t49 10.5t51.5 27.5t35.5 54.5t16 88.5q0 74 -38 115 t-89 41h-63q-4 -148 -4 -188v-150z" />
<glyph unicode="&#xaf;" horiz-adv-x="681" d="M41 1225v141h600v-141h-600z" />
<glyph unicode="&#xb0;" horiz-adv-x="819" d="M117 1083q0 123 85 208t208 85t207.5 -85t84.5 -208t-84.5 -207.5t-207.5 -84.5t-208 84.5t-85 207.5zM244 1083q0 -69 48.5 -117t117.5 -48t117 48t48 117t-48 117.5t-117 48.5t-117.5 -48.5t-48.5 -117.5z" />
<glyph unicode="&#xb1;" horiz-adv-x="1241" d="M102 0v168h1037v-168h-1037zM102 563v168h435v305h168v-305h434v-168h-434v-305h-168v305h-435z" />
<glyph unicode="&#xb2;" horiz-adv-x="681" d="M0 1219q26 72 95 114.5t181 42.5q312 0 312 -233q0 -88 -104 -208.5t-267 -221.5l2 -4q238 0 369 6q-10 -52 -10 -84q0 -34 10 -86q-33 1 -94 2.5t-111 2.5t-94 1q-43 0 -90.5 -1t-106 -2.5t-90.5 -2.5v57q193 167 279 298t86 243q0 90 -35.5 129t-87.5 39 q-34 0 -59.5 -17.5t-38.5 -45t-19 -54t-6 -51.5l-17 -4q-33 30 -104 80z" />
<glyph unicode="&#xb3;" horiz-adv-x="681" d="M0 627q13 23 42.5 60.5t35.5 45.5h24q8 -61 42.5 -103t93.5 -42q60 0 101.5 50.5t41.5 125.5q0 81 -39 131.5t-104 50.5q-12 0 -31 -2t-31 -2v66q28 -4 35 -4q147 0 147 170q0 75 -31 110t-79 35q-56 0 -83.5 -38t-35.5 -107h-25q-21 23 -88 81q38 61 98 91t165 30 q150 0 217 -52.5t67 -139.5q0 -70 -46.5 -115.5t-141.5 -75.5v-10q117 -14 172 -59t55 -146q0 -110 -103.5 -179t-240.5 -69q-191 0 -258 97z" />
<glyph unicode="&#xb4;" horiz-adv-x="681" d="M174 1145q154 187 226 266.5t101 99t62 19.5q47 0 71.5 -27t24.5 -65q0 -31 -19.5 -55t-97 -77.5t-255.5 -160.5h-113z" />
<glyph unicode="&#xb5;" d="M109 -543q16 370 16 703v112q0 343 -16 709q58 -10 153 -10q96 0 154 10q-23 -188 -23 -588q0 -250 168 -250q178 0 178 301v82q0 287 -16 455q65 -10 154 -10q88 0 153 10q-16 -168 -16 -455v-82q0 -291 16 -448q-33 4 -145 4q-113 0 -150 -4l8 147h-4 q-68 -103 -123.5 -138.5t-119.5 -35.5q-21 0 -37.5 4.5t-38.5 15.5l-21 11v-55q0 -26 1 -96.5t1 -110.5q0 -189 15 -281q-64 11 -154 11q-89 0 -153 -11z" />
<glyph unicode="&#xb6;" horiz-adv-x="1433" d="M260 1018q0 176 96.5 275.5t257.5 99.5h582v-58l-135 -16v-1557h-86v1555l-121 -17v-1538h-86v836q-252 0 -380 116t-128 304z" />
<glyph unicode="&#xb7;" horiz-adv-x="569" d="M141 614q0 60 42 102t102 42t101.5 -42t41.5 -102t-41.5 -101.5t-101.5 -41.5t-102 41.5t-42 101.5z" />
<glyph unicode="&#xb8;" horiz-adv-x="681" d="M41 -399l33 75q62 -28 121 -28q56 0 87 21.5t31 62.5q0 75 -94 75q-41 0 -57 -8l-23 17l88 190h86l-57 -125q30 10 66 10q94 0 139 -41t45 -108q0 -85 -76.5 -131.5t-208.5 -46.5q-41 0 -100.5 13.5t-79.5 23.5z" />
<glyph unicode="&#xb9;" horiz-adv-x="681" d="M49 1221v10q183 60 383 155l37 -10q-14 -172 -14 -366v-76v-92q0 -125 8 -297q-18 1 -56.5 3.5t-58.5 2.5t-59.5 -2.5t-52.5 -3.5q14 154 14 340v329l-8 7q-71 -44 -138 -68q-25 34 -55 68z" />
<glyph unicode="&#xba;" horiz-adv-x="702" d="M25 1049q0 105 47.5 181t120 111t159.5 35q153 0 239.5 -80t86.5 -221q0 -151 -90.5 -238t-235.5 -87q-63 0 -119 16.5t-104 51t-76 94t-28 137.5zM229 1047q0 -232 121 -232q123 0 123 279q0 217 -123 217q-56 0 -88.5 -66t-32.5 -198z" />
<glyph unicode="&#xbb;" horiz-adv-x="1024" d="M158 236q106 134 231 315q-92 133 -229 311q67 36 133 90q29 -49 64.5 -105t61.5 -95t69.5 -104t64.5 -97q-22 -34 -65.5 -100.5t-69 -106t-61 -96t-64.5 -105.5q-67 55 -135 93zM461 236q106 134 231 315q-92 133 -229 311q67 36 133 90q29 -49 64.5 -105t61.5 -95 t69.5 -104t64.5 -97q-22 -34 -65.5 -100.5t-69 -106t-61 -96t-64.5 -105.5q-68 55 -135 93z" />
<glyph unicode="&#xbc;" horiz-adv-x="1708" d="M49 1221v10q183 60 383 155l37 -10q-14 -172 -14 -366v-76v-92q0 -125 8 -297q-18 1 -56.5 3.5t-58.5 2.5t-59.5 -2.5t-52.5 -3.5q14 154 14 340v329l-8 7q-71 -44 -138 -68q-25 34 -55 68zM401 -47l592 1444q38 -6 74 -6q37 0 74 6l-592 -1444q-37 6 -74 6t-74 -6z M942 188q1 8 3.5 29.5t2.5 34.5t-2.5 32.5t-3.5 26.5q42 59 114 162.5t133.5 189.5t119.5 162q5 0 37.5 -3t50.5 -3t50 2.5t42 3.5q-12 -83 -12 -350v-153l110 10q0 -6 -3 -33.5t-3 -40.5t2.5 -38.5t3.5 -37.5l-110 6q0 -131 10 -188h-107h-106l10 188h-342zM1036 342l8 -12 h240v342h-4q-44 -58 -244 -330z" />
<glyph unicode="&#xbd;" horiz-adv-x="1708" d="M49 1221v10q183 60 383 155l37 -10q-14 -172 -14 -366v-76v-92q0 -125 8 -297q-18 1 -56.5 3.5t-58.5 2.5t-59.5 -2.5t-52.5 -3.5q14 154 14 340v329l-8 7q-71 -44 -138 -68q-25 34 -55 68zM408 -47l591 1444q37 -6 74 -6t74 6l-592 -1444q-37 6 -74 6q-35 0 -73 -6z M971 668q26 72 95 114.5t181 42.5q312 0 312 -233q0 -88 -104 -208.5t-267 -221.5l2 -4q238 0 369 6q-11 -57 -11 -84q0 -38 11 -80h-299h-287v51q193 167 278.5 298t85.5 243q0 90 -35.5 129t-87.5 39q-44 0 -73.5 -31t-39 -66.5t-9.5 -70.5l-17 -4q-33 30 -104 80z" />
<glyph unicode="&#xbe;" horiz-adv-x="1708" d="M18 627q82 103 84 106h25q8 -62 42 -103.5t93 -41.5q60 0 102 50.5t42 125.5q0 80 -39.5 131t-104.5 51q-12 0 -31 -2t-30 -2v66q28 -4 35 -4q147 0 147 170q0 75 -31 110t-80 35q-56 0 -83 -38t-35 -107h-25q-21 23 -88 81q38 61 97.5 91t164.5 30q150 0 217.5 -52.5 t67.5 -139.5q0 -70 -47 -115.5t-142 -75.5v-10q117 -14 172.5 -59t55.5 -146q0 -110 -103.5 -179t-240.5 -69q-183 0 -265 97zM463 -47l592 1444q37 -6 73 -6t74 6l-592 -1444q-38 6 -73 6q-37 0 -74 -6zM942 188q1 8 3.5 29.5t2.5 34.5t-2.5 32.5t-3.5 26.5 q42 59 114 162.5t133.5 189.5t119.5 162q5 0 37.5 -3t50.5 -3t50 2.5t42 3.5q-12 -83 -12 -350v-153l110 10q0 -6 -3 -33.5t-3 -40.5t2.5 -38.5t3.5 -37.5l-110 6q0 -131 10 -188h-107h-106l10 188h-342zM1036 342l8 -12h240v342h-4q-44 -58 -244 -330z" />
<glyph unicode="&#xbf;" horiz-adv-x="909" d="M135 -152q0 68 34 132.5t82 113.5t96 94t82 92t34 89q0 38 -29 68t-74 30q-36 0 -88 -27l-18 11q23 43 33 84q66 16 123 16q134 0 212 -76.5t78 -187.5q0 -137 -145 -271q-81 -77 -113 -123.5t-32 -99.5q0 -73 46.5 -107t110.5 -34q60 0 105 29.5t69 80.5h25l8 -139 q-44 -35 -118 -55.5t-154 -20.5q-159 0 -263 79.5t-104 221.5zM299 840q0 69 49.5 118.5t118.5 49.5t118.5 -49.5t49.5 -118.5t-49.5 -118.5t-118.5 -49.5t-118.5 49.5t-49.5 118.5z" />
<glyph unicode="&#xc0;" horiz-adv-x="1366" d="M29 -4q77 168 264 622t319 795q45 -10 78 -10t78 10q134 -358 199 -529t180.5 -456t189.5 -432q-44 4 -180 4t-174 -4q-81 250 -141 414q-176 4 -262 4q-69 0 -213 -4q-72 -182 -140 -414q-22 4 -96 4q-76 0 -102 -4zM365 1778q0 38 24.5 65t71.5 27q33 0 62 -19.5 t101 -99t226 -266.5h-113q-178 107 -255.5 160.5t-97 77.5t-19.5 55zM420 530h375q-101 285 -183 488q-97 -222 -192 -488z" />
<glyph unicode="&#xc1;" horiz-adv-x="1366" d="M29 -4q77 168 264 622t319 795q45 -10 78 -10t78 10q134 -358 199 -529t180.5 -456t189.5 -432q-44 4 -180 4t-174 -4q-81 250 -141 414q-176 4 -262 4q-69 0 -213 -4q-72 -182 -140 -414q-22 4 -96 4q-76 0 -102 -4zM420 530h375q-101 285 -183 488q-97 -222 -192 -488z M516 1485q154 187 226 266.5t101 99t62 19.5q47 0 71.5 -27t24.5 -65q0 -31 -19.5 -55t-97 -77.5t-255.5 -160.5h-113z" />
<glyph unicode="&#xc2;" horiz-adv-x="1366" d="M29 -4q77 168 264 622t319 795q45 -10 78 -10t78 10q134 -358 199 -529t180.5 -456t189.5 -432q-44 4 -180 4t-174 -4q-81 250 -141 414q-176 4 -262 4q-69 0 -213 -4q-72 -182 -140 -414q-22 4 -96 4q-76 0 -102 -4zM340 1485l246 362h192l248 -362h-115l-229 198 l-227 -198h-115zM420 530h375q-101 285 -183 488q-97 -222 -192 -488z" />
<glyph unicode="&#xc3;" horiz-adv-x="1366" d="M29 -4q77 168 264 622t319 795q45 -10 78 -10t78 10q134 -358 199 -529t180.5 -456t189.5 -432q-44 4 -180 4t-174 -4q-81 250 -141 414q-176 4 -262 4q-69 0 -213 -4q-72 -182 -140 -414q-22 4 -96 4q-76 0 -102 -4zM309 1526q17 112 77 185t165 73q50 0 109 -23.5 t111.5 -47t88.5 -23.5q37 0 62 20t47 74h88q-17 -112 -77 -185t-165 -73q-50 0 -109 23.5t-111.5 47t-88.5 23.5q-37 0 -62 -20t-47 -74h-88zM420 530h375q-101 285 -183 488q-97 -222 -192 -488z" />
<glyph unicode="&#xc4;" horiz-adv-x="1366" d="M29 -4q77 168 264 622t319 795q45 -10 78 -10t78 10q134 -358 199 -529t180.5 -456t189.5 -432q-44 4 -180 4t-174 -4q-81 250 -141 414q-176 4 -262 4q-69 0 -213 -4q-72 -182 -140 -414q-22 4 -96 4q-76 0 -102 -4zM334 1636q0 56 39 94.5t94 38.5t94 -38.5t39 -94.5 t-39 -94.5t-94 -38.5t-94 38.5t-39 94.5zM420 530h375q-101 285 -183 488q-97 -222 -192 -488zM766 1636q0 56 39 94.5t94 38.5t94 -38.5t39 -94.5t-39 -94.5t-94 -38.5t-94 38.5t-39 94.5z" />
<glyph unicode="&#xc5;" horiz-adv-x="1366" d="M29 -4q77 168 264 622t319 795q45 -10 78 -10t78 10q134 -358 199 -529t180.5 -456t189.5 -432q-44 4 -180 4t-174 -4q-81 250 -141 414q-176 4 -262 4q-69 0 -213 -4q-72 -182 -140 -414q-22 4 -96 4q-76 0 -102 -4zM420 530h375q-101 285 -183 488q-97 -222 -192 -488z M463 1665q0 92 64.5 156.5t156.5 64.5q91 0 156 -64.5t65 -156.5t-65 -156.5t-156 -64.5q-92 0 -156.5 64.5t-64.5 156.5zM567 1665q0 -50 33 -83.5t84 -33.5q50 0 83.5 34t33.5 83t-33.5 83t-83.5 34q-51 0 -84 -33.5t-33 -83.5z" />
<glyph unicode="&#xc6;" horiz-adv-x="1820" d="M14 -4q76 118 371 606.5t475 800.5q72 -10 449 -10q336 0 428 10q-8 -31 -8 -86q0 -51 8 -92q-379 24 -463 24q-10 -150 -10 -446q196 2 465 16q-11 -65 -11 -92q0 -5 11 -84q-247 19 -465 19q0 -44 -1 -131.5t-1 -131.5q0 -133 6 -256q232 0 469 27q-8 -41 -8 -92 q0 -61 8 -82q-148 4 -359 4h-202q-199 0 -232 -4q14 213 17 475q-120 10 -218 10q-50 0 -143.5 -3.5t-122.5 -4.5q-163 -291 -248 -477q-62 4 -104 4q-85 0 -111 -4zM559 614q37 0 102 -3t99 -3q65 0 201 4v316v157q0 81 -3 164h-16q-244 -377 -383 -635z" />
<glyph unicode="&#xc7;" horiz-adv-x="1366" d="M72 647q0 165 43.5 298t118 222.5t179 149.5t222 86.5t250.5 26.5q106 0 226 -29.5t192 -71.5q-39 -97 -48 -209h-28q-78 98 -160 140.5t-193 42.5q-67 0 -132.5 -23t-126 -72.5t-106.5 -121t-73.5 -177t-27.5 -231.5q0 -122 28 -222t74.5 -167t110 -112.5t131.5 -66 t141 -20.5q98 0 202 42.5t169 111.5l26 -17q-36 -89 -45 -174q-170 -84 -411 -84l-35 -88q30 10 65 10q94 0 139.5 -41t45.5 -108q0 -85 -76.5 -131.5t-208.5 -46.5q-41 0 -100.5 13.5t-79.5 23.5l32 75q62 -28 121 -28q56 0 87.5 21.5t31.5 62.5q0 75 -94 75q-41 0 -57 -8 l-23 17l68 157q-210 16 -364 106t-234 236.5t-80 331.5z" />
<glyph unicode="&#xc8;" horiz-adv-x="1024" d="M147 -4q17 289 17 561v279q0 264 -17 567q50 -1 173.5 -5.5t191.5 -4.5q336 0 428 10q-8 -31 -8 -86q0 -51 8 -92q-379 24 -463 24q-10 -150 -10 -446q196 2 465 16q-10 -59 -10 -92q0 -12 10 -84q-247 19 -465 19q0 -44 -1 -131.5t-1 -131.5q0 -133 6 -256q232 0 469 27 q-8 -41 -8 -92q0 -61 8 -82q-148 4 -358 4h-203q-199 0 -232 -4zM246 1778q0 38 24.5 65t71.5 27q33 0 62 -19.5t101 -99t226 -266.5h-113q-178 107 -255.5 160.5t-97 77.5t-19.5 55z" />
<glyph unicode="&#xc9;" horiz-adv-x="1024" d="M147 -4q17 289 17 561v279q0 264 -17 567q50 -1 173.5 -5.5t191.5 -4.5q336 0 428 10q-8 -31 -8 -86q0 -51 8 -92q-379 24 -463 24q-10 -150 -10 -446q196 2 465 16q-10 -59 -10 -92q0 -12 10 -84q-247 19 -465 19q0 -44 -1 -131.5t-1 -131.5q0 -133 6 -256q232 0 469 27 q-8 -41 -8 -92q0 -61 8 -82q-148 4 -358 4h-203q-199 0 -232 -4zM397 1485q154 187 226 266.5t101 99t62 19.5q47 0 72 -27t25 -65q0 -31 -20 -55t-97.5 -77.5t-255.5 -160.5h-113z" />
<glyph unicode="&#xca;" horiz-adv-x="1024" d="M147 -4q17 289 17 561v279q0 264 -17 567q50 -1 173.5 -5.5t191.5 -4.5q336 0 428 10q-8 -31 -8 -86q0 -51 8 -92q-379 24 -463 24q-10 -150 -10 -446q196 2 465 16q-10 -59 -10 -92q0 -12 10 -84q-247 19 -465 19q0 -44 -1 -131.5t-1 -131.5q0 -133 6 -256q232 0 469 27 q-8 -41 -8 -92q0 -61 8 -82q-148 4 -358 4h-203q-199 0 -232 -4zM170 1485l246 362h192l248 -362h-115l-229 198l-227 -198h-115z" />
<glyph unicode="&#xcb;" horiz-adv-x="1024" d="M147 -4q17 289 17 561v279q0 264 -17 567q50 -1 173.5 -5.5t191.5 -4.5q336 0 428 10q-8 -31 -8 -86q0 -51 8 -92q-379 24 -463 24q-10 -150 -10 -446q196 2 465 16q-10 -59 -10 -92q0 -12 10 -84q-247 19 -465 19q0 -44 -1 -131.5t-1 -131.5q0 -133 6 -256q232 0 469 27 q-8 -41 -8 -92q0 -61 8 -82q-148 4 -358 4h-203q-199 0 -232 -4zM164 1636q0 56 39 94.5t94 38.5t94 -38.5t39 -94.5t-39 -94.5t-94 -38.5t-94 38.5t-39 94.5zM596 1636q0 56 39 94.5t94 38.5t94 -38.5t39 -94.5t-39 -94.5t-94 -38.5t-94 38.5t-39 94.5z" />
<glyph unicode="&#xcc;" horiz-adv-x="681" d="M23 1778q0 38 24.5 65t71.5 27q33 0 62 -19.5t101 -99t226 -266.5h-113q-178 107 -255.5 160.5t-97 77.5t-19.5 55zM174 -4q16 272 16 561v279q0 282 -16 567q78 -10 168 -10t168 10q-16 -285 -16 -567v-279q0 -289 16 -561q-31 4 -168 4t-168 -4z" />
<glyph unicode="&#xcd;" horiz-adv-x="681" d="M174 -4q16 272 16 561v279q0 282 -16 567q78 -10 168 -10t168 10q-16 -285 -16 -567v-279q0 -289 16 -561q-31 4 -168 4t-168 -4zM174 1485q154 187 226 266.5t101 99t62 19.5q47 0 71.5 -27t24.5 -65q0 -31 -19.5 -55t-97 -77.5t-255.5 -160.5h-113z" />
<glyph unicode="&#xce;" horiz-adv-x="681" d="M0 1485l244 362h192l248 -362h-115l-229 198l-227 -198h-113zM174 -4q16 272 16 561v279q0 282 -16 567q78 -10 168 -10t168 10q-16 -285 -16 -567v-279q0 -289 16 -561q-31 4 -168 4t-168 -4z" />
<glyph unicode="&#xcf;" horiz-adv-x="681" d="M-2 1636q0 56 36 94.5t91 38.5t94 -38.5t39 -94.5t-39 -94.5t-94 -38.5t-91 38.5t-36 94.5zM174 -4q16 272 16 561v279q0 282 -16 567q78 -10 168 -10t168 10q-16 -285 -16 -567v-279q0 -289 16 -561q-31 4 -168 4t-168 -4zM424 1636q0 56 39 94.5t94 38.5t94 -38.5 t39 -94.5t-39 -94.5t-94 -38.5t-94 38.5t-39 94.5z" />
<glyph unicode="&#xd0;" horiz-adv-x="1593" d="M2 721q6 30 6 59q0 31 -6 58q80 0 180 -7q0 284 -16 572q78 -10 168 -10q45 0 151.5 5t151.5 5q248 0 348.5 -16t212.5 -74q127 -64 211 -220t84 -356q0 -166 -56.5 -307t-153.5 -235t-226 -146.5t-273 -52.5q-115 0 -262 2t-188 2q-137 0 -168 -4q16 272 16 561v174 q-29 -3 -88.5 -5t-91.5 -5zM485 285q0 -48 1 -109.5t1 -62.5q143 -7 181 -7q237 0 369 161t132 474q0 251 -128 398t-341 147q-108 0 -213 -10q0 -1 -1 -63t-1 -111v-123v-102v-46q77 0 184 3.5t119 3.5q-6 -27 -6 -58q0 -29 6 -59q-288 6 -303 6v-215v-104v-123z" />
<glyph unicode="&#xd1;" horiz-adv-x="1593" d="M160 -4q9 40 25 379.5t16 619.5q0 112 -5.5 255t-5.5 153q65 -10 93 -10q27 0 92 10q451 -501 889 -975v178v199q0 527 -15 598q65 -10 92 -10q28 0 93 10q-33 -611 -33 -1161v-246q-54 4 -84 4q-34 0 -80 -4q-403 471 -895 989q-4 -160 -4 -240v-237q0 -386 12 -512 q-22 4 -96 4q-32 0 -94 -4zM455 1526q17 112 76.5 185t164.5 73q50 0 109 -23.5t112 -47t89 -23.5q37 0 61.5 19.5t46.5 74.5h88q-17 -112 -76.5 -185t-164.5 -73q-50 0 -109 23.5t-112 47t-89 23.5q-37 0 -61.5 -19.5t-46.5 -74.5h-88z" />
<glyph unicode="&#xd2;" horiz-adv-x="1705" d="M72 696q0 150 56.5 284.5t157.5 234t249.5 157.5t322.5 58q165 0 304.5 -45.5t245.5 -134.5t166 -230.5t60 -321.5q0 -204 -99.5 -370.5t-279 -262.5t-403.5 -96q-132 0 -247 25.5t-214 82t-169 140t-110 206t-40 273.5zM408 678q0 -158 34.5 -275t95.5 -183.5t135.5 -98 t164.5 -31.5q94 0 176 39.5t146 117t101 204.5t37 290q0 262 -123 417t-323 155q-136 0 -238.5 -86.5t-154 -229t-51.5 -319.5zM535 1778q0 38 24.5 65t71.5 27q33 0 62 -19.5t101 -99t226 -266.5h-113q-178 107 -255.5 160.5t-97 77.5t-19.5 55z" />
<glyph unicode="&#xd3;" horiz-adv-x="1705" d="M72 696q0 150 56.5 284.5t157.5 234t249.5 157.5t322.5 58q165 0 304.5 -45.5t245.5 -134.5t166 -230.5t60 -321.5q0 -204 -99.5 -370.5t-279 -262.5t-403.5 -96q-132 0 -247 25.5t-214 82t-169 140t-110 206t-40 273.5zM408 678q0 -158 34.5 -275t95.5 -183.5t135.5 -98 t164.5 -31.5q94 0 176 39.5t146 117t101 204.5t37 290q0 262 -123 417t-323 155q-136 0 -238.5 -86.5t-154 -229t-51.5 -319.5zM686 1485q154 187 226 266.5t101 99t62 19.5q47 0 71.5 -27t24.5 -65q0 -31 -19.5 -55t-97 -77.5t-255.5 -160.5h-113z" />
<glyph unicode="&#xd4;" horiz-adv-x="1705" d="M72 696q0 150 56.5 284.5t157.5 234t249.5 157.5t322.5 58q165 0 304.5 -45.5t245.5 -134.5t166 -230.5t60 -321.5q0 -204 -99.5 -370.5t-279 -262.5t-403.5 -96q-132 0 -247 25.5t-214 82t-169 140t-110 206t-40 273.5zM408 678q0 -158 34.5 -275t95.5 -183.5t135.5 -98 t164.5 -31.5q94 0 176 39.5t146 117t101 204.5t37 290q0 262 -123 417t-323 155q-136 0 -238.5 -86.5t-154 -229t-51.5 -319.5zM510 1485l246 362h192l248 -362h-115l-229 198l-227 -198h-115z" />
<glyph unicode="&#xd5;" horiz-adv-x="1705" d="M72 696q0 150 56.5 284.5t157.5 234t249.5 157.5t322.5 58q165 0 304.5 -45.5t245.5 -134.5t166 -230.5t60 -321.5q0 -204 -99.5 -370.5t-279 -262.5t-403.5 -96q-132 0 -247 25.5t-214 82t-169 140t-110 206t-40 273.5zM408 678q0 -158 34.5 -275t95.5 -183.5t135.5 -98 t164.5 -31.5q94 0 176 39.5t146 117t101 204.5t37 290q0 262 -123 417t-323 155q-136 0 -238.5 -86.5t-154 -229t-51.5 -319.5zM479 1526q17 112 77 185t165 73q50 0 109 -23.5t111.5 -47t88.5 -23.5q37 0 62 20t47 74h88q-17 -112 -77 -185t-165 -73q-50 0 -109 23.5 t-111.5 47t-88.5 23.5q-37 0 -62 -20t-47 -74h-88z" />
<glyph unicode="&#xd6;" horiz-adv-x="1705" d="M72 696q0 150 56.5 284.5t157.5 234t249.5 157.5t322.5 58q165 0 304.5 -45.5t245.5 -134.5t166 -230.5t60 -321.5q0 -204 -99.5 -370.5t-279 -262.5t-403.5 -96q-132 0 -247 25.5t-214 82t-169 140t-110 206t-40 273.5zM408 678q0 -158 34.5 -275t95.5 -183.5t135.5 -98 t164.5 -31.5q94 0 176 39.5t146 117t101 204.5t37 290q0 262 -123 417t-323 155q-136 0 -238.5 -86.5t-154 -229t-51.5 -319.5zM504 1636q0 56 39 94.5t94 38.5t94 -38.5t39 -94.5t-39 -94.5t-94 -38.5t-94 38.5t-39 94.5zM936 1636q0 56 39 94.5t94 38.5t94 -38.5t39 -94.5 t-39 -94.5t-94 -38.5t-94 38.5t-39 94.5z" />
<glyph unicode="&#xd7;" horiz-adv-x="1241" d="M139 168l344 346l-344 346l137 135l345 -344l344 344l137 -135l-346 -346l346 -346l-137 -135l-344 344l-347 -344z" />
<glyph unicode="&#xd8;" horiz-adv-x="1705" d="M72 696q0 150 56.5 284.5t157.5 234t249.5 157.5t322.5 58q290 0 485 -134l195 207q35 -43 80 -73l-188 -201q204 -192 204 -531q0 -204 -99.5 -370.5t-279 -262.5t-403.5 -96q-301 0 -494 125l-192 -198q-35 43 -80 73l188 193q-202 189 -202 534zM408 678 q0 -190 51 -320l731 777q-118 178 -338 178q-136 0 -238.5 -86.5t-154 -229t-51.5 -319.5zM510 256q108 -166 328 -166q94 0 176 39.5t146 117t101 204.5t37 290q0 161 -53 291z" />
<glyph unicode="&#xd9;" horiz-adv-x="1593" d="M180 1403q92 -10 168 -10t168 10q-29 -284 -29 -717q0 -148 18 -252.5t49 -168.5t84.5 -100t113 -48.5t145.5 -12.5q54 0 98.5 13t78 35t60 58.5t44.5 74.5t31 92t20 102.5t11.5 114.5t5.5 120t1 126q0 262 -16 563q65 -10 104 -10q45 0 103 10q-27 -327 -27 -768 q0 -349 -150.5 -507.5t-453.5 -158.5q-108 0 -199.5 18t-170.5 58t-134.5 101t-87 151.5t-31.5 204.5q0 59 1 146t1 120q0 37 1 106.5t1 106.5q0 331 -8 422zM530 1778q0 38 25 65t72 27q33 0 62 -19.5t101 -99t226 -266.5h-113q-178 107 -255.5 160.5t-97.5 77.5t-20 55z " />
<glyph unicode="&#xda;" horiz-adv-x="1593" d="M180 1403q92 -10 168 -10t168 10q-29 -284 -29 -717q0 -148 18 -252.5t49 -168.5t84.5 -100t113 -48.5t145.5 -12.5q54 0 98.5 13t78 35t60 58.5t44.5 74.5t31 92t20 102.5t11.5 114.5t5.5 120t1 126q0 262 -16 563q65 -10 104 -10q45 0 103 10q-27 -327 -27 -768 q0 -349 -150.5 -507.5t-453.5 -158.5q-108 0 -199.5 18t-170.5 58t-134.5 101t-87 151.5t-31.5 204.5q0 59 1 146t1 120q0 37 1 106.5t1 106.5q0 331 -8 422zM702 1485q153 186 226 266.5t102 99.5t62 19q47 0 71.5 -27t24.5 -65q0 -31 -20 -55t-97.5 -77.5t-255.5 -160.5 h-113z" />
<glyph unicode="&#xdb;" horiz-adv-x="1593" d="M180 1403q92 -10 168 -10t168 10q-29 -284 -29 -717q0 -148 18 -252.5t49 -168.5t84.5 -100t113 -48.5t145.5 -12.5q54 0 98.5 13t78 35t60 58.5t44.5 74.5t31 92t20 102.5t11.5 114.5t5.5 120t1 126q0 262 -16 563q65 -10 104 -10q45 0 103 10q-27 -327 -27 -768 q0 -349 -150.5 -507.5t-453.5 -158.5q-108 0 -199.5 18t-170.5 58t-134.5 101t-87 151.5t-31.5 204.5q0 59 1 146t1 120q0 37 1 106.5t1 106.5q0 331 -8 422zM506 1485l246 362h192l248 -362h-115l-229 198l-227 -198h-115z" />
<glyph unicode="&#xdc;" horiz-adv-x="1593" d="M180 1403q92 -10 168 -10t168 10q-29 -284 -29 -717q0 -148 18 -252.5t49 -168.5t84.5 -100t113 -48.5t145.5 -12.5q54 0 98.5 13t78 35t60 58.5t44.5 74.5t31 92t20 102.5t11.5 114.5t5.5 120t1 126q0 262 -16 563q65 -10 104 -10q45 0 103 10q-27 -327 -27 -768 q0 -349 -150.5 -507.5t-453.5 -158.5q-108 0 -199.5 18t-170.5 58t-134.5 101t-87 151.5t-31.5 204.5q0 59 1 146t1 120q0 37 1 106.5t1 106.5q0 331 -8 422zM500 1636q0 56 39 94.5t94 38.5t94 -38.5t39 -94.5t-39 -94.5t-94 -38.5t-94 38.5t-39 94.5zM932 1636 q0 56 39 94.5t94 38.5t94 -38.5t39 -94.5t-39 -94.5t-94 -38.5t-94 38.5t-39 94.5z" />
<glyph unicode="&#xdd;" horiz-adv-x="1251" d="M47 1403q105 -10 184 -10q78 0 183 10q223 -487 305 -615h4q31 46 63 101.5t69 131.5t57.5 120t64.5 141t55 121q52 -10 94 -10q41 0 99 10q-70 -116 -200.5 -355t-227.5 -430q0 -33 -2 -99.5t-2 -100.5q0 -255 20 -422q-38 4 -174 4t-174 -4q2 38 13 175.5t11 213.5 q0 64 -4 190q-95 191 -238.5 461t-199.5 367zM530 1485q153 186 226 266.5t102 99.5t62 19q47 0 71.5 -27t24.5 -65q0 -31 -20 -55t-97.5 -77.5t-255.5 -160.5h-113z" />
<glyph unicode="&#xde;" d="M147 -4q17 289 17 561v279q0 264 -17 567q78 -10 168 -10t168 10q-10 -133 -10 -238h199q180 0 293.5 -93.5t113.5 -270.5q0 -136 -64 -233t-168 -143t-235 -46h-143q0 -171 14 -383q-31 4 -168 4t-168 -4zM467 520q0 -25 2 -31q146 0 216.5 75t70.5 224q0 117 -53.5 189 t-165.5 72h-68q-2 -14 -2 -50v-51v-112v-279v-37z" />
<glyph unicode="&#xdf;" d="M109 -4q16 363 16 586q0 46 -8 217.5t-8 285.5q0 220 130 340.5t339 120.5q164 0 250.5 -70t86.5 -190q0 -59 -23.5 -104.5t-78.5 -100.5q-59 -59 -80.5 -95t-21.5 -73q0 -41 20.5 -77.5t53.5 -65t72.5 -57.5t79 -61t72.5 -68t53.5 -86t20.5 -109q0 -106 -61 -204.5 t-155 -157t-189 -58.5q-22 0 -43 2t-35.5 4t-34.5 7.5t-27 7.5t-27 8.5t-22 7.5q48 102 48 189h30q75 -115 176 -115q64 0 106 35.5t42 91.5q0 50 -28 96t-70 80t-91.5 73.5t-91.5 76t-70 89t-28 111.5q0 61 30.5 121.5t106.5 155.5q52 65 85.5 137.5t33.5 130.5 q0 84 -54 134t-126 50q-189 0 -189 -274v-744q0 -222 17 -448q-23 4 -154 4q-130 0 -153 -4z" />
<glyph unicode="&#xe0;" horiz-adv-x="1024" d="M49 231q0 128 77 196t226 103q117 28 168 47.5t66.5 39.5t15.5 59q0 76 -53 127t-143 51q-67 0 -142.5 -35t-103.5 -78h-15l-26 123q180 144 383 144q174 0 274.5 -81t100.5 -253q0 -90 -3.5 -242.5t-3.5 -222.5q0 -48 6.5 -76.5t23 -42.5t36.5 -18t55 -4v-50 q-66 -27 -105 -38t-83 -11q-143 0 -195 144q-51 -71 -114 -107.5t-152 -36.5q-146 0 -219.5 75t-73.5 187zM207 1438q0 38 24.5 65t71.5 27q33 0 62 -19.5t101 -99t226 -266.5h-112q-178 107 -255.5 160.5t-97.5 77.5t-20 55zM336 260q0 -74 31 -115t86 -41q69 0 110 52.5 t41 150.5q0 67 1 133.5t1 81.5q-27 -16 -71.5 -32.5t-75 -30t-61 -36.5t-46.5 -63.5t-16 -99.5z" />
<glyph unicode="&#xe1;" horiz-adv-x="1024" d="M49 231q0 128 77 196t226 103q117 28 168 47.5t66.5 39.5t15.5 59q0 76 -53 127t-143 51q-67 0 -142.5 -35t-103.5 -78h-15l-26 123q180 144 383 144q174 0 274.5 -81t100.5 -253q0 -90 -3.5 -242.5t-3.5 -222.5q0 -48 6.5 -76.5t23 -42.5t36.5 -18t55 -4v-50 q-66 -27 -105 -38t-83 -11q-143 0 -195 144q-51 -71 -114 -107.5t-152 -36.5q-146 0 -219.5 75t-73.5 187zM336 260q0 -74 31 -115t86 -41q69 0 110 52.5t41 150.5q0 67 1 133.5t1 81.5q-27 -16 -71.5 -32.5t-75 -30t-61 -36.5t-46.5 -63.5t-16 -99.5zM377 1145 q154 187 226 266.5t101 99t62 19.5q47 0 71.5 -27t24.5 -65q0 -31 -20 -55t-97.5 -77.5t-255.5 -160.5h-112z" />
<glyph unicode="&#xe2;" horiz-adv-x="1024" d="M49 231q0 128 77 196t226 103q117 28 168 47.5t66.5 39.5t15.5 59q0 76 -53 127t-143 51q-67 0 -142.5 -35t-103.5 -78h-15l-26 123q180 144 383 144q174 0 274.5 -81t100.5 -253q0 -90 -3.5 -242.5t-3.5 -222.5q0 -48 6.5 -76.5t23 -42.5t36.5 -18t55 -4v-50 q-66 -27 -105 -38t-83 -11q-143 0 -195 144q-51 -71 -114 -107.5t-152 -36.5q-146 0 -219.5 75t-73.5 187zM170 1145l246 362h192l248 -362h-115l-229 198l-227 -198h-115zM336 260q0 -74 31 -115t86 -41q69 0 110 52.5t41 150.5q0 67 1 133.5t1 81.5q-27 -16 -71.5 -32.5 t-75 -30t-61 -36.5t-46.5 -63.5t-16 -99.5z" />
<glyph unicode="&#xe3;" horiz-adv-x="1024" d="M49 231q0 128 77 196t226 103q117 28 168 47.5t66.5 39.5t15.5 59q0 76 -53 127t-143 51q-67 0 -142.5 -35t-103.5 -78h-15l-26 123q180 144 383 144q174 0 274.5 -81t100.5 -253q0 -90 -3.5 -242.5t-3.5 -222.5q0 -48 6.5 -76.5t23 -42.5t36.5 -18t55 -4v-50 q-66 -27 -105 -38t-83 -11q-143 0 -195 144q-51 -71 -114 -107.5t-152 -36.5q-146 0 -219.5 75t-73.5 187zM139 1186q17 112 77 185t165 73q50 0 109 -23.5t111.5 -47t88.5 -23.5q37 0 62 20t47 74h88q-17 -112 -77 -185t-165 -73q-50 0 -109 23.5t-111.5 47t-88.5 23.5 q-37 0 -62 -20t-47 -74h-88zM336 260q0 -74 31 -115t86 -41q69 0 110 52.5t41 150.5q0 67 1 133.5t1 81.5q-27 -16 -71.5 -32.5t-75 -30t-61 -36.5t-46.5 -63.5t-16 -99.5z" />
<glyph unicode="&#xe4;" horiz-adv-x="1024" d="M49 231q0 128 77 196t226 103q117 28 168 47.5t66.5 39.5t15.5 59q0 76 -53 127t-143 51q-67 0 -142.5 -35t-103.5 -78h-15l-26 123q180 144 383 144q174 0 274.5 -81t100.5 -253q0 -90 -3.5 -242.5t-3.5 -222.5q0 -48 6.5 -76.5t23 -42.5t36.5 -18t55 -4v-50 q-66 -27 -105 -38t-83 -11q-143 0 -195 144q-51 -71 -114 -107.5t-152 -36.5q-146 0 -219.5 75t-73.5 187zM164 1296q0 56 39 95t94 39t94 -39t39 -95t-39 -94.5t-94 -38.5t-94 38.5t-39 94.5zM336 260q0 -74 31 -115t86 -41q69 0 110 52.5t41 150.5q0 67 1 133.5t1 81.5 q-27 -16 -71.5 -32.5t-75 -30t-61 -36.5t-46.5 -63.5t-16 -99.5zM596 1296q0 56 39 95t94 39t94 -39t39 -95t-39 -94.5t-94 -38.5t-94 38.5t-39 94.5z" />
<glyph unicode="&#xe5;" horiz-adv-x="1024" d="M49 231q0 128 77 196t226 103q117 28 168 47.5t66.5 39.5t15.5 59q0 76 -53 127t-143 51q-67 0 -142.5 -35t-103.5 -78h-15l-26 123q180 144 383 144q174 0 274.5 -81t100.5 -253q0 -90 -3.5 -242.5t-3.5 -222.5q0 -48 6.5 -76.5t23 -42.5t36.5 -18t55 -4v-50 q-66 -27 -105 -38t-83 -11q-143 0 -195 144q-51 -71 -114 -107.5t-152 -36.5q-146 0 -219.5 75t-73.5 187zM293 1325q0 92 64.5 156.5t156.5 64.5q91 0 156 -64.5t65 -156.5t-65 -156.5t-156 -64.5q-92 0 -156.5 64.5t-64.5 156.5zM336 260q0 -74 31 -115t86 -41 q69 0 110 52.5t41 150.5q0 67 1 133.5t1 81.5q-27 -16 -71.5 -32.5t-75 -30t-61 -36.5t-46.5 -63.5t-16 -99.5zM397 1325q0 -50 33 -83.5t84 -33.5q50 0 83.5 34t33.5 83t-33.5 83t-83.5 34q-51 0 -84 -33.5t-33 -83.5z" />
<glyph unicode="&#xe6;" horiz-adv-x="1593" d="M80 219q0 68 11.5 113.5t43 85t89 67.5t147.5 52q193 52 236.5 72t43.5 61q0 70 -34 117.5t-81.5 67t-103.5 19.5q-70 0 -119 -25.5t-108 -84.5q-9 50 -29 100q151 144 332 144q93 0 165 -33.5t118 -85.5q128 119 305 119q202 0 309.5 -118.5t107.5 -336.5v-43 q0 -21 -2 -25h-606q0 -86 16 -154.5t50 -122t91.5 -83t135.5 -29.5q140 0 252 92l25 -18l-45 -115q-115 -86 -312 -86q-117 0 -202 27.5t-135.5 73.5t-86.5 116q-36 -90 -119 -153.5t-210 -63.5q-143 0 -214 70t-71 180zM367 274q0 -81 34 -129.5t93 -48.5q67 0 112 59 t45 146v236q-152 -32 -218 -90t-66 -173zM905 578h334q0 337 -166 337q-84 0 -126 -81.5t-42 -221.5v-34z" />
<glyph unicode="&#xe7;" horiz-adv-x="1024" d="M88 483q0 229 148.5 377t392.5 148q109 0 189 -24.5t163 -72.5q-54 -90 -78 -213h-49q-38 205 -207 205q-121 0 -183.5 -110.5t-62.5 -311.5q0 -186 78.5 -285.5t227.5 -99.5q60 0 120 29t91 68l24 -21q-14 -31 -45 -121q-103 -82 -276 -82h-21q-12 0 -16 2l-35 -90 q30 10 65 10q94 0 139.5 -41t45.5 -108q0 -85 -76.5 -131.5t-208.5 -46.5q-41 0 -100.5 13.5t-79.5 23.5l33 75q62 -28 120 -28q56 0 87.5 21.5t31.5 62.5q0 75 -94 75q-41 0 -57 -8l-23 17l70 164q-110 18 -192.5 66.5t-129.5 119t-69.5 149.5t-22.5 168z" />
<glyph unicode="&#xe8;" horiz-adv-x="1024" d="M68 481q0 255 131.5 391t343.5 136q202 0 310 -118.5t108 -336.5v-43q0 -19 -3 -25h-587q0 -174 69.5 -281.5t204.5 -107.5q140 0 252 92l25 -18l-45 -115q-115 -86 -312 -86q-104 0 -191.5 29.5t-157 89t-109 160t-39.5 233.5zM207 1438q0 38 24.5 65t71.5 27 q33 0 62 -19.5t101 -99t226 -266.5h-112q-178 107 -255.5 160.5t-97.5 77.5t-20 55zM371 578h315q-5 163 -40 250t-111 87q-43 0 -75.5 -29.5t-50 -80.5t-27 -106.5t-11.5 -120.5z" />
<glyph unicode="&#xe9;" horiz-adv-x="1024" d="M68 481q0 255 131.5 391t343.5 136q202 0 310 -118.5t108 -336.5v-43q0 -19 -3 -25h-587q0 -174 69.5 -281.5t204.5 -107.5q140 0 252 92l25 -18l-45 -115q-115 -86 -312 -86q-104 0 -191.5 29.5t-157 89t-109 160t-39.5 233.5zM371 578h315q-5 163 -40 250t-111 87 q-43 0 -75.5 -29.5t-50 -80.5t-27 -106.5t-11.5 -120.5zM377 1145q154 187 226 266.5t101 99t62 19.5q47 0 71.5 -27t24.5 -65q0 -31 -20 -55t-97.5 -77.5t-255.5 -160.5h-112z" />
<glyph unicode="&#xea;" horiz-adv-x="1024" d="M68 481q0 255 131.5 391t343.5 136q202 0 310 -118.5t108 -336.5v-43q0 -19 -3 -25h-587q0 -174 69.5 -281.5t204.5 -107.5q140 0 252 92l25 -18l-45 -115q-115 -86 -312 -86q-104 0 -191.5 29.5t-157 89t-109 160t-39.5 233.5zM170 1145l246 362h192l248 -362h-115 l-229 198l-227 -198h-115zM371 578h315q-5 163 -40 250t-111 87q-43 0 -75.5 -29.5t-50 -80.5t-27 -106.5t-11.5 -120.5z" />
<glyph unicode="&#xeb;" horiz-adv-x="1024" d="M68 481q0 255 131.5 391t343.5 136q202 0 310 -118.5t108 -336.5v-43q0 -19 -3 -25h-587q0 -174 69.5 -281.5t204.5 -107.5q140 0 252 92l25 -18l-45 -115q-115 -86 -312 -86q-104 0 -191.5 29.5t-157 89t-109 160t-39.5 233.5zM164 1296q0 56 39 95t94 39t94 -39t39 -95 t-39 -94.5t-94 -38.5t-94 38.5t-39 94.5zM371 578h315q-5 163 -40 250t-111 87q-43 0 -75.5 -29.5t-50 -80.5t-27 -106.5t-11.5 -120.5zM596 1296q0 56 39 95t94 39t94 -39t39 -95t-39 -94.5t-94 -38.5t-94 38.5t-39 94.5z" />
<glyph unicode="&#xec;" horiz-adv-x="569" d="M-27 1438q0 39 22 65.5t68 26.5q33 0 62 -19t102 -99.5t226 -266.5h-113q-176 105 -254.5 160t-95.5 78t-17 55zM131 -4q16 157 16 448v82q0 287 -16 455q65 -10 154 -10q88 0 153 10q-16 -168 -16 -455v-82q0 -291 16 -448q-23 4 -153 4q-128 0 -154 -4z" />
<glyph unicode="&#xed;" horiz-adv-x="569" d="M119 1145q154 187 226 266.5t101 99t62 19.5q47 0 71.5 -27t24.5 -65q0 -31 -20 -55t-97.5 -77.5t-255.5 -160.5h-112zM131 -4q16 157 16 448v82q0 287 -16 455q65 -10 154 -10q88 0 153 10q-16 -168 -16 -455v-82q0 -291 16 -448q-23 4 -153 4q-128 0 -154 -4z" />
<glyph unicode="&#xee;" horiz-adv-x="569" d="M-51 1145l239 362h193l248 -362h-115l-229 198l-228 -198h-108zM131 -4q16 157 16 448v82q0 287 -16 455q65 -10 154 -10q88 0 153 10q-16 -168 -16 -455v-82q0 -291 16 -448q-23 4 -153 4q-128 0 -154 -4z" />
<glyph unicode="&#xef;" horiz-adv-x="569" d="M-57 1296q0 56 36 95t91 39t94 -39t39 -95t-38.5 -94.5t-94.5 -38.5q-55 0 -91 38.5t-36 94.5zM131 -4q16 157 16 448v82q0 287 -16 455q65 -10 154 -10q88 0 153 10q-16 -168 -16 -455v-82q0 -291 16 -448q-23 4 -153 4q-128 0 -154 -4zM369 1296q0 56 39 95t94 39 t94 -39t39 -95t-38.5 -94.5t-94.5 -38.5t-94.5 38.5t-38.5 94.5z" />
<glyph unicode="&#xf0;" d="M25 1194q112 25 305 86q-145 127 -283 207q120 29 199 59q140 -88 293 -203q120 36 274 87q17 -40 49 -87l-254 -63q90 -76 155.5 -138t129 -138.5t103 -150t63.5 -162.5t24 -185q0 -250 -138 -393.5t-363 -143.5q-76 0 -146 15.5t-136 52t-114 91.5t-77 140.5t-29 192.5 q0 105 27.5 193.5t73.5 148t105.5 101t122.5 60.5t126 19q17 0 53 -4q-27 56 -86.5 130t-108.5 110q-118 -38 -311 -115q-15 34 -57 90zM383 459q0 -404 201 -404q196 0 196 482q0 179 -46.5 270.5t-147.5 91.5q-97 0 -150 -108.5t-53 -331.5z" />
<glyph unicode="&#xf1;" d="M109 -4q16 157 16 448v82q0 287 -16 455q82 -10 145 -10q57 0 149 10l-8 -154h4q120 181 310 181q319 0 319 -377q0 -74 -4 -184.5t-4 -159.5q0 -131 10 -291q-23 4 -153 4q-131 0 -154 -4q22 172 22 582q0 249 -167 249q-90 0 -134.5 -78t-44.5 -223v-82q0 -282 17 -448 q-23 4 -154 4q-127 0 -153 -4zM197 1186q17 112 76.5 185t164.5 73q50 0 109 -23.5t112 -47t89 -23.5q37 0 61.5 19.5t46.5 74.5h88q-17 -112 -77 -185t-165 -73q-50 0 -109 23.5t-111.5 47t-88.5 23.5q-37 0 -61.5 -19.5t-46.5 -74.5h-88z" />
<glyph unicode="&#xf2;" d="M68 461q0 133 41.5 239.5t112.5 172.5t159.5 100.5t187.5 34.5q237 0 369.5 -134t132.5 -368q0 -250 -138.5 -393.5t-363.5 -143.5q-76 0 -146 15.5t-135.5 52t-113.5 91.5t-77 140.5t-29 192.5zM252 1438q0 38 24.5 65t71.5 27q33 0 62 -19.5t101 -99t226 -266.5h-112 q-178 107 -255.5 160.5t-97.5 77.5t-20 55zM371 459q0 -404 200 -404q197 0 197 482q0 378 -195 378q-96 0 -149 -113.5t-53 -342.5z" />
<glyph unicode="&#xf3;" d="M68 461q0 133 41.5 239.5t112.5 172.5t159.5 100.5t187.5 34.5q237 0 369.5 -134t132.5 -368q0 -250 -138.5 -393.5t-363.5 -143.5q-76 0 -146 15.5t-135.5 52t-113.5 91.5t-77 140.5t-29 192.5zM371 459q0 -404 200 -404q197 0 197 482q0 378 -195 378 q-96 0 -149 -113.5t-53 -342.5zM403 1145q153 186 226 266.5t102 99.5t62 19q47 0 71.5 -27t24.5 -65q0 -31 -20 -55t-97.5 -77.5t-255.5 -160.5h-113z" />
<glyph unicode="&#xf4;" d="M68 461q0 133 41.5 239.5t112.5 172.5t159.5 100.5t187.5 34.5q237 0 369.5 -134t132.5 -368q0 -250 -138.5 -393.5t-363.5 -143.5q-76 0 -146 15.5t-135.5 52t-113.5 91.5t-77 140.5t-29 192.5zM227 1145l246 362h193l247 -362h-114l-230 198l-227 -198h-115zM371 459 q0 -404 200 -404q197 0 197 482q0 378 -195 378q-96 0 -149 -113.5t-53 -342.5z" />
<glyph unicode="&#xf5;" d="M68 461q0 133 41.5 239.5t112.5 172.5t159.5 100.5t187.5 34.5q237 0 369.5 -134t132.5 -368q0 -250 -138.5 -393.5t-363.5 -143.5q-76 0 -146 15.5t-135.5 52t-113.5 91.5t-77 140.5t-29 192.5zM197 1186q17 112 76.5 185t164.5 73q50 0 109 -23.5t112 -47t89 -23.5 q37 0 61.5 19.5t46.5 74.5h88q-17 -112 -77 -185t-165 -73q-50 0 -109 23.5t-111.5 47t-88.5 23.5q-37 0 -61.5 -19.5t-46.5 -74.5h-88zM371 459q0 -404 200 -404q197 0 197 482q0 378 -195 378q-96 0 -149 -113.5t-53 -342.5z" />
<glyph unicode="&#xf6;" d="M68 461q0 133 41.5 239.5t112.5 172.5t159.5 100.5t187.5 34.5q237 0 369.5 -134t132.5 -368q0 -250 -138.5 -393.5t-363.5 -143.5q-76 0 -146 15.5t-135.5 52t-113.5 91.5t-77 140.5t-29 192.5zM221 1296q0 56 39 95t94 39t94 -39t39 -95t-38.5 -94.5t-94.5 -38.5 t-94.5 38.5t-38.5 94.5zM371 459q0 -404 200 -404q197 0 197 482q0 378 -195 378q-96 0 -149 -113.5t-53 -342.5zM653 1296q0 56 39 95t94 39q56 0 95 -39t39 -95q0 -55 -39 -94t-95 -39t-94.5 38.5t-38.5 94.5z" />
<glyph unicode="&#xf7;" horiz-adv-x="1241" d="M102 422v192h1037v-192h-1037zM453 92q0 69 49.5 118.5t118.5 49.5t118 -49.5t49 -118.5t-49 -115.5t-118 -46.5q-70 0 -119 47t-49 115zM453 944q0 69 49.5 118.5t118.5 49.5t118 -49.5t49 -118.5t-49 -118.5t-118 -49.5t-118.5 49.5t-49.5 118.5z" />
<glyph unicode="&#xf8;" d="M27 -47l155 168q-114 127 -114 340q0 133 41.5 239.5t112.5 172.5t159.5 100.5t187.5 34.5q195 0 322 -95l151 170q26 -35 70 -61l-154 -172q113 -125 113 -344q0 -250 -138.5 -393.5t-363.5 -143.5q-198 0 -317 90l-156 -168q-28 38 -69 62zM371 459q0 -63 6 -121 l368 412q-48 165 -172 165q-96 0 -149 -113.5t-53 -342.5zM397 221q43 -166 174 -166q197 0 197 482q0 34 -4 96z" />
<glyph unicode="&#xf9;" d="M109 981q58 -10 153 -10q96 0 154 10q-23 -188 -23 -588q0 -250 168 -250q178 0 178 301v82q0 287 -16 455q65 -10 154 -10q88 0 153 10q-16 -168 -16 -455v-82q0 -291 16 -448q-33 4 -145 4q-113 0 -150 -4l8 147h-4q-115 -174 -309 -174q-158 0 -238.5 89t-80.5 282 q0 74 4 184.5t4 159.5q0 124 -10 297zM252 1438q0 38 24.5 65t71.5 27q33 0 62 -19.5t101 -99t226 -266.5h-112q-178 107 -255.5 160.5t-97.5 77.5t-20 55z" />
<glyph unicode="&#xfa;" d="M109 981q58 -10 153 -10q96 0 154 10q-23 -188 -23 -588q0 -250 168 -250q178 0 178 301v82q0 287 -16 455q65 -10 154 -10q88 0 153 10q-16 -168 -16 -455v-82q0 -291 16 -448q-33 4 -145 4q-113 0 -150 -4l8 147h-4q-115 -174 -309 -174q-158 0 -238.5 89t-80.5 282 q0 74 4 184.5t4 159.5q0 124 -10 297zM403 1145q153 186 226 266.5t102 99.5t62 19q47 0 71.5 -27t24.5 -65q0 -31 -20 -55t-97.5 -77.5t-255.5 -160.5h-113z" />
<glyph unicode="&#xfb;" d="M109 981q58 -10 153 -10q96 0 154 10q-23 -188 -23 -588q0 -250 168 -250q178 0 178 301v82q0 287 -16 455q65 -10 154 -10q88 0 153 10q-16 -168 -16 -455v-82q0 -291 16 -448q-33 4 -145 4q-113 0 -150 -4l8 147h-4q-115 -174 -309 -174q-158 0 -238.5 89t-80.5 282 q0 74 4 184.5t4 159.5q0 124 -10 297zM227 1145l246 362h193l247 -362h-114l-230 198l-227 -198h-115z" />
<glyph unicode="&#xfc;" d="M109 981q58 -10 153 -10q96 0 154 10q-23 -188 -23 -588q0 -250 168 -250q178 0 178 301v82q0 287 -16 455q65 -10 154 -10q88 0 153 10q-16 -168 -16 -455v-82q0 -291 16 -448q-33 4 -145 4q-113 0 -150 -4l8 147h-4q-115 -174 -309 -174q-158 0 -238.5 89t-80.5 282 q0 74 4 184.5t4 159.5q0 124 -10 297zM221 1296q0 56 39 95t94 39t94 -39t39 -95t-38.5 -94.5t-94.5 -38.5t-94.5 38.5t-38.5 94.5zM653 1296q0 56 39 95t94 39q56 0 95 -39t39 -95q0 -55 -39 -94t-95 -39t-94.5 38.5t-38.5 94.5z" />
<glyph unicode="&#xfd;" horiz-adv-x="1024" d="M37 981q85 -10 153 -10q67 0 152 10q172 -462 246 -643q138 354 231 643q52 -10 82 -10q31 0 86 10q-11 -27 -132.5 -309.5t-268.5 -636.5t-230 -578q-57 11 -86 11t-86 -11q183 366 260 535q-297 709 -407 989zM346 1145q154 187 226 266.5t101 99t62 19.5 q47 0 71.5 -27t24.5 -65q0 -31 -19.5 -55t-97 -77.5t-255.5 -160.5h-113z" />
<glyph unicode="&#xfe;" d="M109 -543q16 370 16 703v112v559q0 343 -16 709q58 -10 153 -10q96 0 154 10q-17 -389 -17 -709h4q34 84 107.5 130.5t163.5 46.5q63 0 120.5 -18t108.5 -58t88 -98t58.5 -143t21.5 -189q0 -142 -34 -248.5t-92 -166.5t-127.5 -89t-149.5 -29q-193 0 -265 144h-4v-166 q0 -368 17 -490q-64 11 -154 11q-89 0 -153 -11zM389 463q0 -365 189 -365q90 0 140 99.5t50 298.5q0 195 -48.5 290t-133.5 95t-141 -102t-56 -316z" />
<glyph unicode="&#xff;" horiz-adv-x="1024" d="M37 981q85 -10 153 -10q67 0 152 10q172 -462 246 -643q138 354 231 643q52 -10 82 -10q31 0 86 10q-11 -27 -132.5 -309.5t-268.5 -636.5t-230 -578q-57 11 -86 11t-86 -11q183 366 260 535q-297 709 -407 989zM184 1296q0 56 39 95t94 39t94.5 -39t39.5 -95 q0 -55 -39 -94t-95 -39q-55 0 -94 38.5t-39 94.5zM616 1296q0 56 39 95t95 39q55 0 94 -39t39 -95t-38.5 -94.5t-94.5 -38.5t-95 39t-39 94z" />
<glyph unicode="&#x152;" horiz-adv-x="2048" d="M57 686q0 171 58.5 313.5t158 235.5t230 144t276.5 51q159 0 273.5 -62.5t181.5 -157.5l4 4q-3 35 -8 189q47 -1 157.5 -5.5t174.5 -4.5q336 0 428 10q-9 -35 -9 -86q0 -45 9 -92q-379 24 -463 24q-10 -150 -10 -446q195 2 464 16q-10 -59 -10 -92q0 -12 10 -84 q-247 19 -464 19q0 -44 -1 -131.5t-1 -131.5q0 -133 6 -256q232 0 469 27q-9 -46 -9 -92q0 -58 9 -82q-148 4 -359 4q-381 0 -418 -4q1 17 15 190l-4 4q-167 -221 -475 -221q-140 0 -265.5 49t-221 139t-151 227t-55.5 302zM393 666q0 -138 33 -250.5t89 -185t129.5 -111.5 t156.5 -39q85 0 162 43t137.5 123t96.5 206t36 281q0 139 -37 252t-97.5 183t-134 107.5t-151.5 37.5q-186 0 -303 -170.5t-117 -476.5z" />
<glyph unicode="&#x153;" horiz-adv-x="1820" d="M68 461q0 133 41.5 239.5t112.5 172.5t159.5 100.5t187.5 34.5q251 0 400 -168q131 168 354 168q202 0 310 -118.5t108 -336.5v-43q0 -21 -2 -25h-641q0 -173 84.5 -281t242.5 -108q140 0 252 92l25 -18l-45 -115q-115 -86 -311 -86q-265 0 -396 164q-132 -164 -381 -164 q-76 0 -146 15.5t-135.5 52t-113.5 91.5t-77 140.5t-29 192.5zM371 459q0 -412 231 -412q106 0 163.5 112t57.5 337q0 214 -60 316.5t-159 102.5q-104 0 -168.5 -116t-64.5 -340zM1098 578h368v92q0 110 -46 177.5t-120 67.5q-202 0 -202 -337z" />
<glyph unicode="&#x178;" horiz-adv-x="1251" d="M47 1403q105 -10 184 -10q78 0 183 10q223 -487 305 -615h4q31 46 63 101.5t69 131.5t57.5 120t64.5 141t55 121q52 -10 94 -10q41 0 99 10q-70 -116 -200.5 -355t-227.5 -430q0 -33 -2 -99.5t-2 -100.5q0 -255 20 -422q-38 4 -174 4t-174 -4q2 38 13 175.5t11 213.5 q0 64 -4 190q-95 191 -238.5 461t-199.5 367zM328 1636q0 56 39 94.5t94 38.5t94 -38.5t39 -94.5t-39 -94.5t-94 -38.5t-94 38.5t-39 94.5zM760 1636q0 56 39 94.5t94 38.5t94 -38.5t39 -94.5t-39 -94.5t-94 -38.5t-94 38.5t-39 94.5z" />
<glyph unicode="&#x2c6;" horiz-adv-x="681" d="M0 1145l244 362h192l248 -362h-115l-229 198l-227 -198h-113z" />
<glyph unicode="&#x2dc;" horiz-adv-x="681" d="M-27 1186q39 258 236 258q50 0 109 -23.5t111.5 -47t88.5 -23.5q37 0 62 20t47 74h88q-17 -112 -77 -185t-165 -73q-50 0 -109 23.5t-111.5 47t-88.5 23.5q-37 0 -62 -20t-47 -74h-82z" />
<glyph unicode="&#x2000;" horiz-adv-x="943" />
<glyph unicode="&#x2001;" horiz-adv-x="1886" />
<glyph unicode="&#x2002;" horiz-adv-x="943" />
<glyph unicode="&#x2003;" horiz-adv-x="1886" />
<glyph unicode="&#x2004;" horiz-adv-x="628" />
<glyph unicode="&#x2005;" horiz-adv-x="471" />
<glyph unicode="&#x2006;" horiz-adv-x="314" />
<glyph unicode="&#x2007;" horiz-adv-x="314" />
<glyph unicode="&#x2008;" horiz-adv-x="235" />
<glyph unicode="&#x2009;" horiz-adv-x="377" />
<glyph unicode="&#x200a;" horiz-adv-x="104" />
<glyph unicode="&#x2010;" horiz-adv-x="681" d="M86 336v225h510v-225h-510z" />
<glyph unicode="&#x2011;" horiz-adv-x="681" d="M86 336v225h510v-225h-510z" />
<glyph unicode="&#x2012;" horiz-adv-x="681" d="M86 336v225h510v-225h-510z" />
<glyph unicode="&#x2013;" horiz-adv-x="1024" d="M0 365v167h1024v-167h-1024z" />
<glyph unicode="&#x2014;" horiz-adv-x="2048" d="M0 365v167h2048v-167h-2048z" />
<glyph unicode="&#x2018;" horiz-adv-x="569" d="M74 877q0 27 21 67.5t98.5 153.5t250.5 352l52 -20q-27 -121 -46.5 -205t-39 -159t-33.5 -121t-30 -84t-28.5 -57.5t-29.5 -33t-32.5 -17t-37.5 -3.5q-55 0 -100 34t-45 93z" />
<glyph unicode="&#x2019;" horiz-adv-x="569" d="M74 770q36 161 60.5 263.5t48.5 184t40.5 123t38 68.5t40.5 34t48 7q55 0 100.5 -34t45.5 -93q0 -27 -21.5 -68t-98.5 -153t-251 -352z" />
<glyph unicode="&#x201a;" horiz-adv-x="569" d="M43 -373q42 190 71 304t53.5 194t48 115t46 48t57.5 13q55 0 100.5 -34t45.5 -93q0 -20 -8 -40.5t-50 -85t-108.5 -157.5t-204.5 -284z" />
<glyph unicode="&#x201c;" horiz-adv-x="1024" d="M66 877q0 27 21 67.5t98.5 153.5t250.5 352l51 -20q-37 -163 -60.5 -263.5t-47.5 -183.5t-40.5 -123.5t-38 -68t-40.5 -34.5t-49 -7q-55 0 -100 34t-45 93zM489 877q0 27 21.5 68t98.5 153t251 352l51 -20q-37 -163 -60.5 -263.5t-47.5 -183.5t-40.5 -123.5t-38 -68 t-40.5 -34.5t-49 -7q-55 0 -100.5 34t-45.5 93z" />
<glyph unicode="&#x201d;" horiz-adv-x="1024" d="M133 770q36 161 60.5 264t48.5 183.5t41 122.5t38.5 69t40.5 34t48 7q55 0 100 -34t45 -93q0 -27 -21.5 -68t-98.5 -153t-251 -352zM557 770q36 161 60.5 264t48.5 183.5t41 122.5t38.5 69t40.5 34t48 7q55 0 100 -34t45 -93q0 -27 -21.5 -68t-98.5 -153t-251 -352z" />
<glyph unicode="&#x201e;" horiz-adv-x="1024" d="M43 -373q42 190 71 304t53.5 194t48 115t46 48t57.5 13q55 0 100.5 -34t45.5 -93q0 -20 -8 -40.5t-50 -85t-108.5 -157.5t-204.5 -284zM467 -373q42 190 71 304t53.5 194t48 115t46 48t57.5 13q55 0 100.5 -34t45.5 -93q0 -20 -8 -40.5t-50 -85t-108.5 -157.5 t-204.5 -284z" />
<glyph unicode="&#x2022;" horiz-adv-x="1241" d="M272 696q0 142 103 245t246 103t245.5 -103t102.5 -245t-102.5 -245t-245.5 -103t-246 103t-103 245z" />
<glyph unicode="&#x2026;" horiz-adv-x="2048" d="M174 131q0 69 49.5 118.5t118.5 49.5t118.5 -49.5t49.5 -118.5q0 -68 -49 -115t-119 -47t-119 47t-49 115zM856 131q0 69 49.5 118.5t118.5 49.5t118.5 -49.5t49.5 -118.5q0 -68 -49 -115t-119 -47t-119 47t-49 115zM1538 131q0 69 49.5 118.5t118.5 49.5t118.5 -49.5 t49.5 -118.5q0 -68 -49 -115t-119 -47t-119 47t-49 115z" />
<glyph unicode="&#x202f;" horiz-adv-x="377" />
<glyph unicode="&#x2039;" horiz-adv-x="681" d="M129 551q21 32 64.5 97t69.5 104t61.5 95t64.5 105q66 -54 133 -90q-137 -178 -229 -311q125 -181 231 -315q-68 -38 -135 -93q-29 49 -64.5 105.5t-61 96t-69 106t-65.5 100.5z" />
<glyph unicode="&#x203a;" horiz-adv-x="681" d="M158 236q106 134 231 315q-92 133 -229 311q67 36 133 90q29 -49 64.5 -105t61.5 -95t69.5 -104t64.5 -97q-22 -34 -65.5 -100.5t-69 -106t-61 -96t-64.5 -105.5q-67 55 -135 93z" />
<glyph unicode="&#x205f;" horiz-adv-x="471" />
<glyph unicode="&#x20ac;" d="M25 489q28 70 34 152q36 -7 107 -10v82v22q0 19 2 25q-98 0 -137 -6q35 80 35 147q33 -6 120 -6h2q52 250 214.5 366.5t404.5 116.5q92 0 165.5 -20t160.5 -64q-54 -138 -66 -209h-18q-16 39 -41.5 73.5t-76 64.5t-112.5 30q-150 0 -227.5 -87.5t-104.5 -272.5h306 q130 0 237 8q-33 -79 -41 -153q-71 12 -229 12h-29h-254q-2 -6 -2 -21v-20v-41v-47h236q118 0 241 10q-37 -96 -39 -156q-102 13 -211 13h-24h-193q22 -184 102.5 -292t227.5 -108q153 0 234 150l28 -4q-25 -126 -28 -197q-100 -67 -250 -67q-95 0 -178 17t-158 55.5 t-132 97t-97 146.5t-56 200q-94 0 -153 -7z" />
<glyph unicode="&#x2122;" horiz-adv-x="1996" d="M115 1296q6 48 6 54q0 3 -6 51q82 -8 231 -8h88h88q158 0 232 8q-6 -48 -6 -51q0 -6 6 -54q-143 13 -172 13h-52q0 -13 -1.5 -66t-3 -154.5t-1.5 -232.5q0 -228 6 -291q-62 4 -96 4t-96 -4q6 63 6 291q0 131 -1.5 232.5t-3 154.5t-1.5 66h-51q-29 0 -172 -13zM817 565 q38 210 125 836q19 -8 45 -8q34 0 53 8q44 -97 152.5 -312.5t132.5 -271.5q108 201 287 584q21 -8 53 -8t51 8q64 -558 107 -836q-78 4 -111 4q-28 0 -94 -4q-7 164 -45 561h-4q-243 -492 -269 -561h-53q-32 74 -133.5 281t-126.5 268h-4q-53 -378 -53 -549q-46 4 -64 4 q-17 0 -49 -4z" />
<glyph unicode="&#x25fc;" horiz-adv-x="983" d="M0 0v983h983v-983h-983z" />
<glyph unicode="&#xfb01;" horiz-adv-x="1251" d="M37 864q6 24 6 51q0 26 -6 56l143 -6q18 108 39 189.5t56.5 158.5t81.5 125.5t114 78t154 29.5q28 0 86 -10q-9 -48 -9 -199v-67l-24 -8q-105 59 -197 59q-62 0 -92.5 -20t-30.5 -68q0 -46 27 -118.5t70 -147.5l192 4q-1 -8 -3.5 -27t-2.5 -29q0 -3 6 -51l-192 4v-170 q0 -348 16 -702q-23 4 -154 4q-130 0 -153 -4q16 354 16 702v168zM805 1368q0 68 47.5 115t114.5 47t114 -47t47 -115t-47 -115t-114 -47t-114.5 47t-47.5 115zM813 -4q16 157 16 448v82q0 287 -16 455q65 -10 154 -10q88 0 153 10q-16 -168 -16 -455v-82q0 -291 16 -448 q-23 4 -153 4q-128 0 -154 -4z" />
<glyph unicode="&#xfb02;" horiz-adv-x="1251" d="M37 864q6 24 6 51q0 26 -6 56l143 -6q18 108 39 189.5t56.5 158.5t81.5 125.5t114 78t154 29.5q28 0 86 -10q-9 -48 -9 -199v-67l-24 -8q-105 59 -197 59q-62 0 -92.5 -20t-30.5 -68q0 -46 27 -118.5t70 -147.5l192 4q-1 -8 -3.5 -27t-2.5 -29q0 -3 6 -51l-192 4v-170 q0 -348 16 -702q-23 4 -154 4q-130 0 -153 -4q16 354 16 702v168zM813 -4q16 354 16 702v133q0 343 -16 709q58 -10 154 -10q95 0 153 10q-16 -366 -16 -709v-133q0 -348 16 -702q-23 4 -153 4q-131 0 -154 -4z" />
</font>
</defs>
</svg>
